<?xml version="1.0" encoding="UTF-8"?><svg xmlns="http://www.w3.org/2000/svg" xmlns:xlink="http://www.w3.org/1999/xlink" viewBox="0 0 127.25 230.87"><defs><style>.cls-1,.cls-2{fill:none;}.cls-3{clip-path:url(#clippath);}.cls-4{fill:#fff;}.cls-5{fill:url(#linear-gradient);}.cls-5,.cls-6,.cls-2{stroke:#fff;stroke-miterlimit:10;stroke-width:.5px;}.cls-7{clip-path:url(#clippath-1);}.cls-8{clip-path:url(#clippath-4);}.cls-9{clip-path:url(#clippath-3);}.cls-10{clip-path:url(#clippath-2);}.cls-6{fill:#5e91be;}</style><clipPath id="clippath"><polygon class="cls-1" points="61.66 .38 126.67 65.55 125.18 144.64 68.53 229.42 .99 155.15 9.09 68.87 61.66 .38"/></clipPath><clipPath id="clippath-1"><polygon class="cls-1" points="61.66 .38 126.67 65.55 125.18 144.64 68.53 229.42 .99 155.15 9.09 68.87 61.66 .38"/></clipPath><clipPath id="clippath-2"><polygon class="cls-1" points="61.66 .38 126.67 65.55 125.18 144.64 68.53 229.42 .99 155.15 9.09 68.87 61.66 .38"/></clipPath><clipPath id="clippath-3"><polygon class="cls-1" points="61.66 .38 126.67 65.55 125.18 144.64 68.53 229.42 .99 155.15 9.09 68.87 61.66 .38"/></clipPath><clipPath id="clippath-4"><polygon class="cls-2" points="61.66 .38 126.67 65.55 125.18 144.64 68.53 229.42 .99 155.15 9.09 68.87 61.66 .38"/></clipPath><linearGradient id="linear-gradient" x1="67.9" y1="70.37" x2="67.9" y2=".3" gradientTransform="translate(-.02 .08)" gradientUnits="userSpaceOnUse"><stop offset="0" stop-color="#5e91be" stop-opacity="0"/><stop offset="1" stop-color="#abc9d4"/></linearGradient></defs><g id="Glow"><path class="cls-4" d="M126.67,65.55L61.66,.38,9.28,68.63l-.36-.03L.7,154.76h-.07s.07,.07,.07,.07l-.03,.28,.07-.23H.74l-.07,.23,.32,.03,67.54,74.27,56.84-85.03-.19,.1,1.49-78.94ZM.78,154.77l.15-.49H.93l-.15,.49H.78Z"/></g><g id="Pain"><g class="cls-3"><g><polygon class="cls-6" points="8.92 68.6 27.26 70.17 .67 155.11 8.92 68.6"/><polygon class="cls-6" points="87.04 164.54 .67 155.11 27.26 70.17 87.04 164.54"/></g></g></g><g id="Stress"><g class="cls-7"><g><polygon class="cls-6" points="27.26 70.17 126.37 65.27 125.18 144.64 87.04 164.54 27.26 70.17"/><polygon class="cls-6" points="126.37 65.27 125.18 144.64 87.04 164.54 126.37 65.27"/></g></g></g><g id="Sad"><g class="cls-10"><g><polygon class="cls-6" points="68.53 229.42 .63 154.75 87 164.18 68.53 229.42"/><polygon class="cls-6" points="68.53 229.42 87 164.18 125.37 144.39 68.53 229.42"/></g></g></g><g id="Happy"><g class="cls-9"><g><polygon class="cls-4" points="61.66 .38 9.09 68.87 27.43 70.45 126.67 65.55 61.66 .38"/><g><polyline class="cls-4" points="27.43 70.45 126.67 65.55 61.66 .38"/><polygon class="cls-4" points="61.66 .38 9.09 68.87 27.43 70.45 61.66 .38"/></g></g></g><g><g class="cls-8"><g><polygon class="cls-5" points="61.66 .38 9.09 68.87 27.43 70.45 126.67 65.55 61.66 .38"/><g><polyline class="cls-6" points="27.43 70.45 126.67 65.55 61.66 .38"/><polygon class="cls-6" points="61.66 .38 9.09 68.87 27.43 70.45 61.66 .38"/></g></g></g><polygon class="cls-2" points="61.66 .38 126.67 65.55 125.18 144.64 68.53 229.42 .99 155.15 9.09 68.87 61.66 .38"/></g></g></svg>