<?xml version="1.0" encoding="utf-8"?>
<!-- Generator: Adobe Illustrator 26.5.0, SVG Export Plug-In . SVG Version: 6.00 Build 0)  -->
<svg version="1.1" id="Layer_1" xmlns="http://www.w3.org/2000/svg" xmlns:xlink="http://www.w3.org/1999/xlink" x="0px" y="0px"
	 viewBox="0 0 256.1 233.2" style="enable-background:new 0 0 256.1 233.2;" xml:space="preserve">
<style type="text/css">
	.st0{fill:#FFFFFF;}
	.st1{clip-path:url(#SVGID_00000032638638634930623400000001947242541052993669_);}
	.st2{fill:#713981;stroke:#FFFFFF;stroke-miterlimit:10;}
	.st3{clip-path:url(#SVGID_00000021079551440476937260000011118055544867400842_);}
	.st4{fill:#C16ADC;stroke:#FFFFFF;stroke-miterlimit:10;}
	.st5{clip-path:url(#SVGID_00000017487769308305143720000014214704215677034395_);}
	.st6{fill:#1E0725;stroke:#FFFFFF;stroke-miterlimit:10;}
	.st7{clip-path:url(#SVGID_00000173850958707966102140000003572751246641384354_);}
	.st8{clip-path:url(#SVGID_00000122678581736531604960000004194156137148718237_);}
	
		.st9{fill:url(#SVGID_00000173128143453892287920000001126986286654943646_);stroke:#FFFFFF;stroke-width:0.5;stroke-miterlimit:10;}
	.st10{fill:#FE9FFF;stroke:#FFFFFF;stroke-miterlimit:10;}
	.st11{fill:none;stroke:#FFFFFF;stroke-width:0.5;stroke-miterlimit:10;}
	.st12{fill:#020B2C;}
	.st13{fill:none;stroke:#020B2C;stroke-width:0.75;stroke-miterlimit:10;}
</style>
<g id="Glow">
	<path class="st0" d="M133.8,104.2L96.4,47.1L48.2,88.7l-0.3-0.1l-19,61.3l0,0v0.1l-0.1,0.2l0.1-0.2l0,0l-0.1,0.2l0.2,0.1l37.8,64.1
		l54.1-53.1h-0.2L133.8,104.2L133.8,104.2L133.8,104.2z M29,149.9l0.2-0.3l0,0L29,149.9L29,149.9z"/>
</g>
<g id="Pain">
	<g>
		<g>
			<g>
				<defs>
					<polygon id="SVGID_1_" points="96.4,47.1 133.8,104.2 120.8,161.3 66.9,214.3 29.1,150.2 48,88.9 					"/>
				</defs>
				<clipPath id="SVGID_00000029012663672747267550000002419118126080002435_">
					<use xlink:href="#SVGID_1_"  style="overflow:visible;"/>
				</clipPath>
				<g style="clip-path:url(#SVGID_00000029012663672747267550000002419118126080002435_);">
					<g>
						<polygon class="st2" points="47.9,88.6 61,92.6 28.9,150.2 						"/>
						<polygon class="st2" points="90.1,170 28.9,150.2 61,92.6 						"/>
					</g>
				</g>
			</g>
		</g>
	</g>
</g>
<g id="Stress">
	<g>
		<g>
			<g>
				<defs>
					<polygon id="SVGID_00000148642990158319315960000017391178358897651088_" points="96.4,47.1 133.8,104.2 120.8,161.3 
						66.9,214.3 29.1,150.2 48,88.9 					"/>
				</defs>
				<clipPath id="SVGID_00000114061166806067481010000005026156754722547094_">
					<use xlink:href="#SVGID_00000148642990158319315960000017391178358897651088_"  style="overflow:visible;"/>
				</clipPath>
				<g style="clip-path:url(#SVGID_00000114061166806067481010000005026156754722547094_);">
					<g>
						<polygon class="st4" points="61,92.6 133.6,103.9 120.8,161.3 90.1,170 						"/>
						<polygon class="st4" points="133.6,103.9 120.8,161.3 90.1,170 						"/>
					</g>
				</g>
			</g>
		</g>
	</g>
</g>
<g id="Sad">
	<g>
		<g>
			<g>
				<defs>
					<polygon id="SVGID_00000078013717814579953610000013589815085157783984_" points="96.4,47.1 133.8,104.2 120.8,161.3 
						66.9,214.3 29.1,150.2 48,88.9 					"/>
				</defs>
				<clipPath id="SVGID_00000165925119063681145760000014429450221057130883_">
					<use xlink:href="#SVGID_00000078013717814579953610000013589815085157783984_"  style="overflow:visible;"/>
				</clipPath>
				<g style="clip-path:url(#SVGID_00000165925119063681145760000014429450221057130883_);">
					<g>
						<polygon class="st6" points="66.9,214.3 28.9,149.9 90.1,169.8 						"/>
						<polygon class="st6" points="66.9,214.3 90.1,169.8 120.9,161.2 						"/>
					</g>
				</g>
			</g>
		</g>
	</g>
</g>
<g id="Happy">
	<g>
		<g>
			<g>
				<defs>
					<polygon id="SVGID_00000015344391797805877290000009762540587271287712_" points="96.4,47.1 133.8,104.2 120.8,161.3 
						66.9,214.3 29.1,150.2 48,88.9 					"/>
				</defs>
				<clipPath id="SVGID_00000087396030637697960960000015939097673411186600_">
					<use xlink:href="#SVGID_00000015344391797805877290000009762540587271287712_"  style="overflow:visible;"/>
				</clipPath>
				<g style="clip-path:url(#SVGID_00000087396030637697960960000015939097673411186600_);">
					<g>
						<polygon class="st0" points="96.4,47.1 48,88.9 61,92.8 133.8,104.2 						"/>
						<g>
							<polyline class="st0" points="61,92.8 133.8,104.2 96.4,47.1 							"/>
							<polygon class="st0" points="96.4,47.1 48,88.9 61,92.8 							"/>
						</g>
					</g>
				</g>
			</g>
		</g>
	</g>
	<g>
		<g>
			<g>
				<g>
					<defs>
						<polygon id="SVGID_00000157298216790367267710000005560823359801463182_" points="96.4,47.1 133.8,104.2 120.8,161.3 
							66.9,214.3 29.1,150.2 48,88.9 						"/>
					</defs>
					<clipPath id="SVGID_00000178900155324564235920000013013932911234985647_">
						<use xlink:href="#SVGID_00000157298216790367267710000005560823359801463182_"  style="overflow:visible;"/>
					</clipPath>
					<g style="clip-path:url(#SVGID_00000178900155324564235920000013013932911234985647_);">
						<g>
							
								<linearGradient id="SVGID_00000166670831497379822190000016246187454812036543_" gradientUnits="userSpaceOnUse" x1="208.9938" y1="767.6434" x2="208.9938" y2="715.6901" gradientTransform="matrix(0.979 0.2036 -0.2036 0.979 42.1087 -695.2227)">
								<stop  offset="0" style="stop-color:#5E91BE;stop-opacity:0"/>
								<stop  offset="1" style="stop-color:#ABC9D4"/>
							</linearGradient>
							
								<polygon style="fill:url(#SVGID_00000166670831497379822190000016246187454812036543_);stroke:#FFFFFF;stroke-width:0.5;stroke-miterlimit:10;" points="
								96.4,47.1 48,88.9 61,92.8 133.8,104.2 							"/>
							<g>
								<polyline class="st10" points="61,92.8 133.8,104.2 96.4,47.1 								"/>
								<polygon class="st10" points="96.4,47.1 48,88.9 61,92.8 								"/>
							</g>
						</g>
					</g>
				</g>
			</g>
		</g>
		<polygon class="st11" points="96.4,47.1 133.8,104.2 120.8,161.3 66.9,214.3 29.1,150.2 48,88.9 		"/>
	</g>
</g>
<g>
	<path class="st12" d="M84.7,32.3c0-0.2,0.1-0.3,0.3-0.3h0.4c0.2,0,0.3,0.1,0.3,0.3v2.1h2.6v-2.1c0-0.2,0.1-0.3,0.3-0.3H89
		c0.2,0,0.3,0.1,0.3,0.3v5c0,0.2-0.1,0.3-0.3,0.3h-0.4c-0.2,0-0.3-0.1-0.3-0.3v-2h-2.6v2c0,0.2-0.1,0.3-0.3,0.3H85
		c-0.2,0-0.3-0.1-0.3-0.3V32.3z"/>
	<path class="st12" d="M91.9,32.2c0.1-0.2,0.2-0.3,0.4-0.3h0.5c0.2,0,0.3,0.1,0.4,0.3l1.8,5c0,0.1,0,0.2,0,0.3s-0.1,0.1-0.3,0.1
		h-0.4c-0.2,0-0.3-0.1-0.4-0.3l-0.4-1.2h-2l-0.4,1.2c-0.1,0.2-0.2,0.3-0.4,0.3h-0.4c-0.1,0-0.2,0-0.3-0.1s-0.1-0.2,0-0.3L91.9,32.2
		L91.9,32.2z M93.3,35.3l-0.5-1.5c0-0.1-0.1-0.2-0.1-0.3s-0.1-0.2-0.1-0.3s-0.1-0.2-0.1-0.3l0,0c0,0.1-0.1,0.2-0.1,0.3
		s-0.1,0.2-0.1,0.3s-0.1,0.2-0.1,0.3l-0.5,1.5H93.3L93.3,35.3z"/>
	<path class="st12" d="M95.7,32.3c0-0.2,0.1-0.3,0.3-0.3h1.9c0.3,0,0.5,0,0.7,0.1s0.4,0.2,0.6,0.4s0.3,0.4,0.4,0.6s0.1,0.5,0.1,0.8
		s0,0.5-0.1,0.8s-0.2,0.4-0.4,0.6c-0.2,0.2-0.3,0.3-0.6,0.4s-0.5,0.1-0.7,0.1h-1.2v1.6c0,0.2-0.1,0.3-0.3,0.3H96
		c-0.2,0-0.3-0.1-0.3-0.3V32.3L95.7,32.3z M97.7,34.8c0.3,0,0.5-0.1,0.7-0.3s0.2-0.4,0.2-0.7s-0.1-0.5-0.2-0.7
		c-0.2-0.2-0.4-0.3-0.7-0.3h-1v1.9L97.7,34.8L97.7,34.8z"/>
	<path class="st12" d="M100.6,32.3c0-0.2,0.1-0.3,0.3-0.3h1.9c0.3,0,0.5,0,0.7,0.1s0.4,0.2,0.6,0.4s0.3,0.4,0.4,0.6s0.1,0.5,0.1,0.8
		s0,0.5-0.1,0.8s-0.2,0.4-0.4,0.6c-0.2,0.2-0.3,0.3-0.6,0.4s-0.5,0.1-0.7,0.1h-1.2v1.6c0,0.2-0.1,0.3-0.3,0.3h-0.4
		c-0.2,0-0.3-0.1-0.3-0.3V32.3L100.6,32.3z M102.6,34.8c0.3,0,0.5-0.1,0.7-0.3s0.2-0.4,0.2-0.7s-0.1-0.5-0.2-0.7
		c-0.2-0.2-0.4-0.3-0.7-0.3h-1v1.9L102.6,34.8L102.6,34.8z"/>
	<path class="st12" d="M106.6,35.2l-1.7-2.9c-0.1-0.1-0.1-0.2,0-0.3s0.1-0.1,0.3-0.1h0.4c0.2,0,0.3,0.1,0.4,0.2l0.8,1.4
		c0,0.1,0.1,0.2,0.1,0.3S107,34,107,34c0,0.1,0.1,0.2,0.1,0.2l0,0c0-0.1,0.1-0.2,0.1-0.2c0-0.1,0.1-0.2,0.1-0.2
		c0-0.1,0.1-0.2,0.1-0.3l0.8-1.4c0.1-0.2,0.2-0.2,0.4-0.2h0.4c0.1,0,0.2,0,0.3,0.1c0,0.1,0,0.2,0,0.3l-1.7,2.9v2
		c0,0.2-0.1,0.3-0.3,0.3h-0.4c-0.2,0-0.3-0.1-0.3-0.3L106.6,35.2L106.6,35.2z"/>
</g>
<g>
	<path class="st12" d="M60.8,232.6c-0.1-0.1-0.1-0.1-0.1-0.2c0-0.1,0-0.2,0.1-0.3l0.2-0.3c0.1-0.1,0.1-0.1,0.2-0.1
		c0.1,0,0.2,0,0.3,0.1c0,0,0.1,0.1,0.2,0.1c0.1,0.1,0.2,0.1,0.3,0.1s0.2,0.1,0.3,0.1s0.2,0.1,0.4,0.1c0.3,0,0.5-0.1,0.6-0.2
		c0.2-0.1,0.2-0.3,0.2-0.5s-0.1-0.3-0.2-0.4s-0.3-0.2-0.5-0.3s-0.4-0.2-0.6-0.3c-0.2-0.1-0.4-0.2-0.6-0.3c-0.2-0.1-0.4-0.3-0.5-0.5
		s-0.2-0.4-0.2-0.7c0-0.2,0-0.5,0.2-0.7c0.1-0.2,0.2-0.4,0.4-0.5s0.4-0.2,0.6-0.3s0.5-0.1,0.8-0.1c0.2,0,0.3,0,0.5,0
		s0.3,0.1,0.4,0.1c0.1,0,0.2,0.1,0.3,0.1s0.2,0.1,0.2,0.1c0.2,0.1,0.2,0.3,0.1,0.5l-0.1,0.3c-0.1,0.1-0.1,0.2-0.2,0.2
		s-0.2,0-0.2-0.1c-0.1-0.1-0.2-0.1-0.4-0.2s-0.3-0.1-0.6-0.1s-0.5,0.1-0.6,0.2s-0.2,0.3-0.2,0.5s0.1,0.3,0.2,0.4
		c0.1,0.1,0.3,0.2,0.5,0.3s0.4,0.2,0.6,0.3c0.2,0.1,0.4,0.2,0.6,0.3c0.2,0.1,0.4,0.3,0.5,0.5s0.2,0.4,0.2,0.7c0,0.2,0,0.4-0.1,0.6
		c-0.1,0.2-0.2,0.4-0.4,0.5c-0.2,0.1-0.4,0.3-0.6,0.4s-0.5,0.1-0.8,0.1c-0.2,0-0.4,0-0.6-0.1s-0.3-0.1-0.5-0.1s-0.3-0.1-0.4-0.2
		S60.8,232.7,60.8,232.6L60.8,232.6z"/>
	<path class="st12" d="M66.6,227.7c0.1-0.2,0.2-0.3,0.4-0.3h0.5c0.2,0,0.3,0.1,0.4,0.3l1.8,5c0,0.1,0,0.2,0,0.3
		c-0.1,0.1-0.1,0.1-0.3,0.1H69c-0.2,0-0.3-0.1-0.4-0.3l-0.4-1.2h-2l-0.4,1.2c-0.1,0.2-0.2,0.3-0.4,0.3H65c-0.1,0-0.2,0-0.3-0.1
		s-0.1-0.2,0-0.3L66.6,227.7L66.6,227.7z M68,230.8l-0.5-1.5c0-0.1-0.1-0.2-0.1-0.3s-0.1-0.2-0.1-0.3s-0.1-0.2-0.1-0.3l0,0
		c0,0.1-0.1,0.2-0.1,0.3S67,228.9,67,229s-0.1,0.2-0.1,0.3l-0.5,1.5H68L68,230.8z"/>
	<path class="st12" d="M70.4,227.8c0-0.2,0.1-0.3,0.3-0.3h1.6c0.4,0,0.8,0.1,1.2,0.2s0.7,0.3,0.9,0.6s0.4,0.5,0.6,0.9
		c0.1,0.4,0.2,0.8,0.2,1.2s-0.1,0.9-0.2,1.2c-0.1,0.4-0.3,0.6-0.6,0.9s-0.6,0.4-0.9,0.6s-0.8,0.2-1.2,0.2h-1.6
		c-0.2,0-0.3-0.1-0.3-0.3V227.8L70.4,227.8z M72.3,232.3c0.6,0,1-0.2,1.4-0.5s0.5-0.8,0.5-1.5c0-0.3-0.1-0.6-0.1-0.8
		c-0.1-0.2-0.2-0.4-0.4-0.6c-0.2-0.2-0.4-0.3-0.6-0.4c-0.2-0.1-0.5-0.1-0.8-0.1h-0.9v3.9C71.4,232.3,72.3,232.3,72.3,232.3z"/>
</g>
<g>
	<path class="st12" d="M142,132.2c-0.1-0.1-0.1-0.1-0.1-0.2c0-0.1,0-0.2,0.1-0.3l0.2-0.3c0.1-0.1,0.1-0.1,0.2-0.1
		c0.1,0,0.2,0,0.3,0.1c0.1,0,0.1,0.1,0.2,0.1c0.1,0.1,0.2,0.1,0.3,0.1s0.2,0.1,0.3,0.1s0.2,0.1,0.4,0.1c0.3,0,0.5-0.1,0.6-0.2
		s0.2-0.3,0.2-0.5s-0.1-0.3-0.2-0.4c-0.1-0.1-0.3-0.2-0.5-0.3s-0.4-0.2-0.6-0.3c-0.2-0.1-0.4-0.2-0.6-0.3c-0.2-0.1-0.4-0.3-0.5-0.5
		s-0.2-0.4-0.2-0.7c0-0.2,0.1-0.5,0.1-0.7c0.1-0.2,0.2-0.4,0.4-0.5s0.4-0.2,0.6-0.3s0.5-0.1,0.8-0.1c0.2,0,0.3,0,0.5,0
		c0.1,0,0.3,0.1,0.4,0.1c0.1,0,0.2,0.1,0.3,0.1c0.1,0.1,0.2,0.1,0.2,0.1c0.2,0.1,0.2,0.3,0.1,0.5l-0.1,0.3c-0.1,0.1-0.1,0.2-0.2,0.2
		s-0.2,0-0.2-0.1c-0.1-0.1-0.2-0.1-0.4-0.2s-0.4-0.1-0.6-0.1c-0.3,0-0.5,0.1-0.6,0.2c-0.1,0.1-0.2,0.3-0.2,0.5s0.1,0.3,0.2,0.4
		c0.1,0.1,0.3,0.2,0.5,0.3s0.4,0.2,0.6,0.3c0.2,0.1,0.4,0.2,0.6,0.3c0.2,0.1,0.4,0.3,0.5,0.5s0.2,0.4,0.2,0.7c0,0.2,0,0.4-0.1,0.6
		c-0.1,0.2-0.2,0.4-0.4,0.5s-0.4,0.3-0.6,0.4s-0.5,0.1-0.8,0.1c-0.2,0-0.4,0-0.6-0.1c-0.2,0-0.4-0.1-0.5-0.1s-0.3-0.1-0.4-0.2
		S142.1,132.2,142,132.2L142,132.2z"/>
	<path class="st12" d="M147.9,127.8h-1.5c-0.2,0-0.3-0.1-0.3-0.3v-0.2c0-0.2,0.1-0.3,0.3-0.3h4.1c0.2,0,0.3,0.1,0.3,0.3v0.2
		c0,0.2-0.1,0.3-0.3,0.3H149v4.5c0,0.2-0.1,0.3-0.3,0.3h-0.4c-0.2,0-0.3-0.1-0.3-0.3L147.9,127.8L147.9,127.8z"/>
	<path class="st12" d="M151.4,127.3c0-0.2,0.1-0.3,0.3-0.3h1.5c0.3,0,0.5,0,0.7,0s0.3,0.1,0.4,0.1c0.3,0.1,0.5,0.3,0.7,0.6
		s0.3,0.6,0.3,1c0,0.2,0,0.3-0.1,0.5s-0.1,0.3-0.2,0.4s-0.2,0.3-0.3,0.4c-0.1,0.1-0.2,0.2-0.4,0.2l0,0l0.1,0.1c0,0,0,0.1,0.1,0.1
		l0.1,0.1l0.9,1.7c0.1,0.1,0.1,0.2,0,0.3s-0.1,0.1-0.3,0.1h-0.4c-0.2,0-0.3-0.1-0.4-0.2l-1-1.9h-1v1.8c0,0.2-0.1,0.3-0.3,0.3h-0.4
		c-0.2,0-0.3-0.1-0.3-0.3L151.4,127.3L151.4,127.3z M153.4,129.6c0.3,0,0.5-0.1,0.7-0.2s0.2-0.4,0.2-0.7c0-0.2,0-0.3-0.1-0.5
		s-0.2-0.2-0.3-0.3c-0.1,0-0.1-0.1-0.2-0.1c-0.1,0-0.2,0-0.4,0h-0.8v1.8H153.4L153.4,129.6z"/>
	<path class="st12" d="M156.5,127.3c0-0.2,0.1-0.3,0.3-0.3h2.7c0.2,0,0.3,0.1,0.3,0.3v0.2c0,0.2-0.1,0.3-0.3,0.3h-2v1.5h1.6
		c0.2,0,0.3,0.1,0.3,0.3v0.2c0,0.2-0.1,0.3-0.3,0.3h-1.6v1.5h2.2c0.2,0,0.3,0.1,0.3,0.3v0.2c0,0.2-0.1,0.3-0.3,0.3h-2.9
		c-0.2,0-0.3-0.1-0.3-0.3V127.3L156.5,127.3z"/>
	<path class="st12" d="M160.7,132.2c-0.1-0.1-0.1-0.1-0.1-0.2c0-0.1,0-0.2,0.1-0.3l0.2-0.3c0.1-0.1,0.1-0.1,0.2-0.1
		c0.1,0,0.2,0,0.3,0.1c0.1,0,0.1,0.1,0.2,0.1c0.1,0.1,0.2,0.1,0.3,0.1s0.2,0.1,0.3,0.1s0.2,0.1,0.4,0.1c0.3,0,0.5-0.1,0.6-0.2
		s0.2-0.3,0.2-0.5s-0.1-0.3-0.2-0.4s-0.3-0.2-0.5-0.3s-0.4-0.2-0.6-0.3c-0.2-0.1-0.4-0.2-0.6-0.3c-0.2-0.1-0.4-0.3-0.5-0.5
		s-0.2-0.4-0.2-0.7c0-0.2,0.1-0.5,0.1-0.7c0.1-0.2,0.2-0.4,0.4-0.5s0.4-0.2,0.6-0.3s0.5-0.1,0.8-0.1c0.2,0,0.3,0,0.5,0
		c0.1,0,0.3,0.1,0.4,0.1s0.2,0.1,0.3,0.1c0.1,0.1,0.2,0.1,0.2,0.1c0.2,0.1,0.2,0.3,0.1,0.5l-0.1,0.3c-0.1,0.1-0.1,0.2-0.2,0.2
		s-0.2,0-0.2-0.1c-0.1-0.1-0.2-0.1-0.4-0.2s-0.4-0.1-0.6-0.1c-0.3,0-0.5,0.1-0.6,0.2c-0.2,0.1-0.2,0.3-0.2,0.5s0.1,0.3,0.2,0.4
		c0.1,0.1,0.3,0.2,0.5,0.3s0.4,0.2,0.6,0.3c0.2,0.1,0.4,0.2,0.6,0.3c0.2,0.1,0.4,0.3,0.5,0.5s0.2,0.4,0.2,0.7c0,0.2,0,0.4-0.1,0.6
		c-0.1,0.2-0.2,0.4-0.4,0.5s-0.4,0.3-0.6,0.4s-0.5,0.1-0.8,0.1c-0.2,0-0.4,0-0.6-0.1s-0.4-0.1-0.5-0.1s-0.3-0.1-0.4-0.2
		S160.8,132.2,160.7,132.2L160.7,132.2z"/>
	<path class="st12" d="M165.1,132.2c-0.1-0.1-0.1-0.1-0.1-0.2s0-0.2,0.1-0.3l0.2-0.3c0.1-0.1,0.1-0.1,0.2-0.1c0.1,0,0.2,0,0.3,0.1
		c0.1,0,0.1,0.1,0.2,0.1c0.1,0.1,0.2,0.1,0.3,0.1s0.2,0.1,0.3,0.1s0.2,0.1,0.4,0.1c0.3,0,0.5-0.1,0.6-0.2s0.2-0.3,0.2-0.5
		s-0.1-0.3-0.2-0.4c-0.1-0.1-0.3-0.2-0.5-0.3s-0.4-0.2-0.6-0.3c-0.2-0.1-0.4-0.2-0.6-0.3c-0.2-0.1-0.4-0.3-0.5-0.5s-0.2-0.4-0.2-0.7
		c0-0.2,0.1-0.5,0.1-0.7c0.1-0.2,0.2-0.4,0.4-0.5s0.4-0.2,0.6-0.3c0.2-0.1,0.5-0.1,0.8-0.1c0.2,0,0.3,0,0.5,0c0.1,0,0.3,0.1,0.4,0.1
		s0.2,0.1,0.3,0.1c0.1,0.1,0.2,0.1,0.2,0.1c0.2,0.1,0.2,0.3,0.1,0.5l-0.1,0.3c-0.1,0.1-0.1,0.2-0.2,0.2s-0.2,0-0.2-0.1
		c-0.1-0.1-0.2-0.1-0.4-0.2s-0.4-0.1-0.6-0.1c-0.3,0-0.5,0.1-0.6,0.2c-0.2,0.1-0.2,0.3-0.2,0.5s0.1,0.3,0.2,0.4
		c0.1,0.1,0.3,0.2,0.5,0.3s0.4,0.2,0.6,0.3c0.2,0.1,0.4,0.2,0.6,0.3c0.2,0.1,0.4,0.3,0.5,0.5s0.2,0.4,0.2,0.7c0,0.2,0,0.4-0.1,0.6
		c-0.1,0.2-0.2,0.4-0.4,0.5s-0.4,0.3-0.6,0.4s-0.5,0.1-0.8,0.1c-0.2,0-0.4,0-0.6-0.1s-0.4-0.1-0.5-0.1s-0.3-0.1-0.4-0.2
		C165.3,132.3,165.2,132.2,165.1,132.2L165.1,132.2z"/>
</g>
<g>
	<path class="st12" d="M0,127.2c0-0.2,0.1-0.3,0.3-0.3h1.9c0.3,0,0.5,0,0.7,0.1s0.4,0.2,0.6,0.4s0.3,0.4,0.4,0.6
		c0.1,0.2,0.1,0.4,0.1,0.7s0,0.5-0.1,0.8c-0.1,0.2-0.2,0.4-0.4,0.6c-0.2,0.2-0.3,0.3-0.6,0.4c-0.2,0.1-0.5,0.1-0.7,0.1H1v1.6
		c0,0.2-0.1,0.3-0.3,0.3H0.3c-0.2,0-0.3-0.1-0.3-0.3V127.2L0,127.2z M2,129.7c0.3,0,0.5-0.1,0.7-0.3s0.2-0.4,0.2-0.7
		s-0.1-0.5-0.2-0.7s-0.4-0.3-0.7-0.3H1v1.9L2,129.7L2,129.7z"/>
	<path class="st12" d="M5.8,127.1c0.1-0.2,0.2-0.3,0.4-0.3h0.5c0.2,0,0.3,0.1,0.4,0.3l1.8,5c0,0.1,0,0.2,0,0.3
		c-0.1,0.1-0.1,0.1-0.3,0.1H8.2c-0.2,0-0.3-0.1-0.4-0.3L7.4,131h-2L5,132.2c-0.1,0.2-0.2,0.3-0.4,0.3H4.3c-0.1,0-0.2,0-0.3-0.1
		c0-0.1,0-0.2,0-0.3L5.8,127.1L5.8,127.1z M7.2,130.2l-0.5-1.5c0-0.1-0.1-0.2-0.1-0.3s-0.1-0.2-0.1-0.3s-0.1-0.2-0.1-0.3l0,0
		c0,0.1-0.1,0.2-0.1,0.3s-0.1,0.2-0.1,0.3s-0.1,0.2-0.1,0.3l-0.5,1.5H7.2L7.2,130.2z"/>
	<path class="st12" d="M9.6,127.2c0-0.2,0.1-0.3,0.3-0.3h0.4c0.2,0,0.3,0.1,0.3,0.3v5c0,0.2-0.1,0.3-0.3,0.3H9.9
		c-0.2,0-0.3-0.1-0.3-0.3C9.6,132.2,9.6,127.2,9.6,127.2z"/>
	<path class="st12" d="M11.9,127.2c0-0.2,0.1-0.3,0.3-0.3h0.4c0.2,0,0.3,0.1,0.4,0.2l2,3.1c0.1,0.1,0.1,0.2,0.2,0.3s0.1,0.2,0.1,0.3
		c0.1,0.1,0.1,0.2,0.1,0.3l0,0c0-0.1,0-0.2,0-0.3s0-0.2,0-0.3s0-0.2,0-0.3v-2.9c0-0.2,0.1-0.3,0.3-0.3h0.4c0.2,0,0.3,0.1,0.3,0.3v5
		c0,0.2-0.1,0.3-0.3,0.3h-0.4c-0.2,0-0.3-0.1-0.4-0.2l-2-3.1c-0.1-0.1-0.1-0.2-0.2-0.3c-0.1-0.1-0.1-0.2-0.1-0.3
		c-0.1-0.1-0.1-0.2-0.2-0.3l0,0c0,0.1,0,0.2,0,0.3s0,0.2,0,0.3s0,0.2,0,0.3v2.9c0,0.2-0.1,0.3-0.3,0.3h-0.4c-0.2,0-0.3-0.1-0.3-0.3
		L11.9,127.2L11.9,127.2z"/>
</g>
<path class="st13" d="M170.1,3.1c15.7-1.9,30.5,7.3,35.2,21.9"/>
<g>
	<path class="st12" d="M134.1,0.9h-1.5c-0.2,0-0.3-0.1-0.3-0.3V0.3c0-0.2,0.1-0.3,0.3-0.3h4.1c0.2,0,0.3,0.1,0.3,0.3v0.2
		c0,0.2-0.1,0.3-0.3,0.3h-1.5v4.5c0,0.2-0.1,0.3-0.3,0.3h-0.4c-0.2,0-0.3-0.1-0.3-0.3L134.1,0.9L134.1,0.9z"/>
	<path class="st12" d="M137.6,0.3c0-0.2,0.1-0.3,0.3-0.3h0.4c0.2,0,0.3,0.1,0.3,0.3v5c0,0.2-0.1,0.3-0.3,0.3H138
		c-0.2,0-0.3-0.1-0.3-0.3L137.6,0.3L137.6,0.3z"/>
	<path class="st12" d="M140,0.3c0-0.2,0.1-0.3,0.3-0.3h1.5c0.3,0,0.5,0,0.7,0s0.3,0.1,0.4,0.1c0.3,0.1,0.5,0.3,0.7,0.6
		s0.3,0.6,0.3,1c0,0.2,0,0.3-0.1,0.5c0,0.2-0.1,0.3-0.2,0.4c-0.1,0.1-0.2,0.3-0.3,0.4s-0.2,0.2-0.4,0.2l0,0l0.1,0.1
		c0,0,0,0.1,0.1,0.1c0,0,0,0.1,0.1,0.1l0.9,1.7c0.1,0.1,0.1,0.2,0,0.3s-0.1,0.1-0.3,0.1h-0.4c-0.2,0-0.3-0.1-0.4-0.2l-1-1.9h-1v1.8
		c0,0.2-0.1,0.3-0.3,0.3h-0.4c-0.2,0-0.3-0.1-0.3-0.3L140,0.3L140,0.3z M141.9,2.7c0.3,0,0.5-0.1,0.7-0.2c0.2-0.2,0.2-0.4,0.2-0.7
		c0-0.2,0-0.3-0.1-0.5s-0.2-0.2-0.3-0.3c-0.1,0-0.1-0.1-0.2-0.1c-0.1,0-0.2,0-0.4,0H141v1.8L141.9,2.7L141.9,2.7z"/>
	<path class="st12" d="M145,0.3c0-0.2,0.1-0.3,0.3-0.3h2.7c0.2,0,0.3,0.1,0.3,0.3v0.2c0,0.2-0.1,0.3-0.3,0.3h-2v1.5h1.6
		c0.2,0,0.3,0.1,0.3,0.3v0.2c0,0.2-0.1,0.3-0.3,0.3H146v1.5h2.2c0.2,0,0.3,0.1,0.3,0.3v0.2c0,0.2-0.1,0.3-0.3,0.3h-2.9
		c-0.2,0-0.3-0.1-0.3-0.3V0.3L145,0.3z"/>
	<path class="st12" d="M149.4,0.3c0-0.2,0.1-0.3,0.3-0.3h1.6c0.4,0,0.8,0.1,1.2,0.2s0.7,0.3,0.9,0.6c0.2,0.2,0.5,0.5,0.6,0.9
		s0.2,0.8,0.2,1.2s-0.1,0.9-0.2,1.2c-0.1,0.4-0.3,0.7-0.6,0.9s-0.5,0.4-0.9,0.6c-0.4,0.1-0.8,0.2-1.2,0.2h-1.6
		c-0.2,0-0.3-0.1-0.3-0.3V0.3z M151.3,4.8c0.6,0,1-0.2,1.4-0.5s0.5-0.8,0.5-1.5c0-0.3-0.1-0.6-0.1-0.8s-0.2-0.4-0.4-0.6
		s-0.4-0.3-0.6-0.4c-0.2-0.1-0.5-0.1-0.8-0.1h-0.9v3.9H151.3L151.3,4.8z"/>
</g>
<polyline class="st13" points="181.8,49.3 205.6,49.3 205.6,214.5 181.8,214.5 "/>
<g>
	<path class="st12" d="M220.8,127.3c0-0.2,0.1-0.3,0.3-0.3h0.5c0.2,0,0.3,0.1,0.4,0.3l1,2.5c0,0.1,0.1,0.2,0.1,0.3s0.1,0.2,0.1,0.3
		l0.1,0.3l0,0c0-0.1,0.1-0.2,0.1-0.3s0.1-0.2,0.1-0.3s0.1-0.2,0.1-0.3l1-2.5c0.1-0.2,0.2-0.3,0.4-0.3h0.5c0.2,0,0.3,0.1,0.3,0.3
		l0.4,5c0,0.2-0.1,0.3-0.3,0.3h-0.4c-0.2,0-0.3-0.1-0.3-0.3l-0.2-2.9c0-0.1,0-0.2,0-0.3v-0.3c0-0.1,0-0.2,0-0.3l0,0
		c0,0.1-0.1,0.2-0.1,0.3s-0.1,0.2-0.1,0.3s-0.1,0.2-0.1,0.3l-0.8,1.9c-0.1,0.2-0.2,0.3-0.4,0.3h-0.3c-0.2,0-0.3-0.1-0.4-0.3
		l-0.8-1.9c0-0.1-0.1-0.2-0.1-0.3s-0.1-0.2-0.1-0.3s-0.1-0.2-0.1-0.3l0,0c0,0.1,0,0.2,0,0.3s0,0.2,0,0.3s0,0.2,0,0.3l-0.2,2.9
		c0,0.2-0.1,0.3-0.3,0.3h-0.4c-0.2,0-0.3-0.1-0.3-0.3L220.8,127.3L220.8,127.3z"/>
	<path class="st12" d="M227.4,127.3c0-0.2,0.1-0.3,0.3-0.3h2.7c0.2,0,0.3,0.1,0.3,0.3v0.2c0,0.2-0.1,0.3-0.3,0.3h-2v1.5h1.6
		c0.2,0,0.3,0.1,0.3,0.3v0.2c0,0.2-0.1,0.3-0.3,0.3h-1.6v1.5h2.2c0.2,0,0.3,0.1,0.3,0.3v0.2c0,0.2-0.1,0.3-0.3,0.3h-2.9
		c-0.2,0-0.3-0.1-0.3-0.3V127.3L227.4,127.3z"/>
	<path class="st12" d="M233.1,127.3c0.1-0.2,0.2-0.3,0.4-0.3h0.5c0.2,0,0.3,0.1,0.4,0.3l1.8,5c0,0.1,0,0.2,0,0.3s-0.1,0.1-0.3,0.1
		h-0.4c-0.2,0-0.3-0.1-0.4-0.3l-0.4-1.2h-2l-0.4,1.2c-0.1,0.2-0.2,0.3-0.4,0.3h-0.4c-0.1,0-0.2,0-0.3-0.1s-0.1-0.2,0-0.3
		L233.1,127.3L233.1,127.3z M234.4,130.4l-0.5-1.5c0-0.1-0.1-0.2-0.1-0.3s-0.1-0.2-0.1-0.3s-0.1-0.2-0.1-0.3l0,0
		c0,0.1-0.1,0.2-0.1,0.3s-0.1,0.2-0.1,0.3s0,0.2-0.1,0.3l-0.3,1.5H234.4L234.4,130.4z"/>
	<path class="st12" d="M236.9,127.3c0-0.2,0.1-0.3,0.3-0.3h0.4c0.2,0,0.3,0.1,0.4,0.2l2,3.1c0.1,0.1,0.1,0.2,0.2,0.3
		s0.1,0.2,0.1,0.3c0.1,0.1,0.1,0.2,0.1,0.3l0,0c0-0.1,0-0.2,0-0.3s0-0.2,0-0.3s0-0.2,0-0.3v-2.9c0-0.2,0.1-0.3,0.3-0.3h0.4
		c0.2,0,0.3,0.1,0.3,0.3v5c0,0.2-0.1,0.3-0.3,0.3h-0.4c-0.2,0-0.3-0.1-0.4-0.2l-2-3.1c-0.1-0.1-0.1-0.2-0.2-0.3
		c-0.1-0.1-0.1-0.2-0.1-0.3c-0.1-0.1-0.1-0.2-0.2-0.3l0,0c0,0.1,0,0.2,0,0.3s0,0.2,0,0.3s0,0.2,0,0.3v2.9c0,0.2-0.1,0.3-0.3,0.3
		h-0.4c-0.2,0-0.3-0.1-0.3-0.3L236.9,127.3L236.9,127.3z"/>
	<path class="st12" d="M242.8,127.3c0-0.2,0.1-0.3,0.3-0.3h0.4c0.2,0,0.3,0.1,0.3,0.3v5c0,0.2-0.1,0.3-0.3,0.3h-0.4
		c-0.2,0-0.3-0.1-0.3-0.3V127.3z"/>
	<path class="st12" d="M245.2,127.3c0-0.2,0.1-0.3,0.3-0.3h0.4c0.2,0,0.3,0.1,0.4,0.2l2,3.1c0.1,0.1,0.1,0.2,0.2,0.3
		s0.1,0.2,0.1,0.3c0.1,0.1,0.1,0.2,0.1,0.3l0,0c0-0.1,0-0.2,0-0.3s0-0.2,0-0.3s0-0.2,0-0.3v-2.9c0-0.2,0.1-0.3,0.3-0.3h0.4
		c0.2,0,0.3,0.1,0.3,0.3v5c0,0.2-0.1,0.3-0.3,0.3H249c-0.2,0-0.3-0.1-0.4-0.2l-2-3.1c-0.1-0.1-0.1-0.2-0.2-0.3
		c-0.1-0.1-0.1-0.2-0.1-0.3c-0.1-0.1-0.1-0.2-0.2-0.3l0,0c0,0.1,0,0.2,0,0.3s0,0.2,0,0.3s0,0.2,0,0.3v2.9c0,0.2-0.1,0.3-0.3,0.3
		h-0.4c-0.2,0-0.3-0.1-0.3-0.3L245.2,127.3L245.2,127.3z"/>
	<path class="st12" d="M250.8,129.9c0-0.4,0.1-0.8,0.2-1.2c0.1-0.4,0.4-0.7,0.6-0.9c0.3-0.3,0.6-0.5,0.9-0.6s0.8-0.2,1.2-0.2
		c0.2,0,0.4,0,0.6,0.1s0.4,0.1,0.5,0.1s0.3,0.1,0.4,0.2c0.1,0.1,0.2,0.1,0.3,0.1c0.2,0.1,0.2,0.3,0.1,0.5l-0.1,0.2
		c-0.1,0.1-0.1,0.1-0.2,0.2c-0.1,0-0.2,0-0.3-0.1s-0.3-0.1-0.5-0.2s-0.5-0.1-0.8-0.1s-0.6,0.1-0.8,0.2c-0.2,0.1-0.4,0.2-0.6,0.4
		c-0.2,0.2-0.3,0.4-0.4,0.6s-0.1,0.5-0.1,0.8s0.1,0.6,0.1,0.8s0.2,0.5,0.4,0.6s0.4,0.3,0.6,0.4s0.5,0.1,0.7,0.1s0.4,0,0.6-0.1
		c0.2-0.1,0.3-0.1,0.4-0.2c0.1-0.1,0.3-0.2,0.4-0.3v-0.6h-0.5c-0.2,0-0.3-0.1-0.3-0.3v-0.2c0-0.2,0.1-0.3,0.3-0.3h1.1
		c0.2,0,0.3,0.1,0.3,0.3v2.3c0,0.2-0.1,0.3-0.3,0.3h-0.2c-0.1,0-0.2,0-0.2-0.1c-0.1-0.1-0.1-0.1-0.1-0.2v-0.2l0,0l0,0
		c-0.1,0.1-0.3,0.2-0.4,0.3c-0.1,0.1-0.3,0.1-0.5,0.2s-0.4,0.1-0.7,0.1c-0.4,0-0.7-0.1-1.1-0.2c-0.3-0.1-0.6-0.3-0.9-0.6
		s-0.5-0.6-0.6-0.9S250.8,130.3,250.8,129.9L250.8,129.9z"/>
</g>
</svg>
