<?xml version="1.0" encoding="utf-8"?>
<!-- Generator: Adobe Illustrator 26.5.0, SVG Export Plug-In . SVG Version: 6.00 Build 0)  -->
<svg version="1.1" id="Layer_2_00000106841550786263532590000013421236131777964724_"
	 xmlns="http://www.w3.org/2000/svg" xmlns:xlink="http://www.w3.org/1999/xlink" x="0px" y="0px" viewBox="0 0 19.4 19.4"
	 style="enable-background:new 0 0 19.4 19.4;" xml:space="preserve">
<style type="text/css">
	.st0{fill:none;stroke:#FFFFFF;stroke-width:1.5;stroke-miterlimit:10;}
</style>
<g id="Layer_1-2">
	<g>
		<circle class="st0" cx="9.7" cy="9.7" r="5.5"/>
		<line class="st0" x1="0.7" y1="13.4" x2="3.1" y2="12.4"/>
		<line class="st0" x1="2.8" y1="16.6" x2="4.6" y2="14.8"/>
		<line class="st0" x1="6" y1="18.7" x2="7" y2="16.3"/>
		<line class="st0" x1="9.7" y1="19.4" x2="9.7" y2="16.9"/>
		<line class="st0" x1="13.4" y1="18.7" x2="12.4" y2="16.3"/>
		<line class="st0" x1="16.6" y1="16.6" x2="14.8" y2="14.8"/>
		<line class="st0" x1="18.7" y1="13.4" x2="16.3" y2="12.4"/>
		<line class="st0" x1="9.7" y1="0" x2="9.7" y2="2.5"/>
		<line class="st0" x1="6" y1="0.7" x2="7" y2="3.1"/>
		<line class="st0" x1="2.8" y1="2.8" x2="4.6" y2="4.6"/>
		<line class="st0" x1="0.7" y1="6" x2="3.1" y2="7"/>
		<line class="st0" x1="16.6" y1="2.8" x2="14.8" y2="4.6"/>
		<line class="st0" x1="13.4" y1="0.7" x2="12.4" y2="3.1"/>
		<line class="st0" x1="0" y1="9.7" x2="2.5" y2="9.7"/>
		<line class="st0" x1="19.4" y1="9.7" x2="16.9" y2="9.7"/>
		<line class="st0" x1="18.7" y1="6" x2="16.3" y2="7"/>
	</g>
</g>
</svg>
