<?xml version="1.0" encoding="utf-8"?>
<!-- Generator: Adobe Illustrator 26.5.0, SVG Export Plug-In . SVG Version: 6.00 Build 0)  -->
<svg version="1.1" id="Layer_2_00000123412004490246680790000007983470193981406373_"
	 xmlns="http://www.w3.org/2000/svg" xmlns:xlink="http://www.w3.org/1999/xlink" x="0px" y="0px" viewBox="0 0 32.9 15.9"
	 style="enable-background:new 0 0 32.9 15.9;" xml:space="preserve">
<style type="text/css">
	.st0{fill:none;stroke:#FFFFFF;stroke-width:1.5;stroke-miterlimit:10;}
</style>
<g id="Layer_1-2">
	<g>
		<line class="st0" x1="16.5" y1="0" x2="16.5" y2="4.3"/>
		<line class="st0" x1="10.2" y1="1.2" x2="11.9" y2="5.2"/>
		<line class="st0" x1="4.9" y1="4.8" x2="7.9" y2="7.8"/>
		<line class="st0" x1="1.4" y1="10.1" x2="5.3" y2="11.7"/>
		<line class="st0" x1="28" y1="4.8" x2="25" y2="7.8"/>
		<line class="st0" x1="22.7" y1="1.2" x2="21.1" y2="5.2"/>
		<line class="st0" x1="31.5" y1="10.1" x2="27.6" y2="11.7"/>
		<path class="st0" d="M32.8,15.4"/>
		<path class="st0" d="M0.2,15.4"/>
		<path class="st0" d="M7.8,13.4c0.2-0.5,0.4-1,0.6-1.5C9.9,9,13,7.1,16.5,7.1c4.1,0,7.5,2.7,8.7,6.3C19.5,11.1,13.7,11.2,7.8,13.4z
			"/>
	</g>
</g>
</svg>
