<?xml version="1.0" encoding="UTF-8"?><svg id="Layer_1" xmlns="http://www.w3.org/2000/svg" viewBox="0 0 263.36 144.03"><defs><style>.cls-1{fill:#1a1a1a;}</style></defs><path class="cls-1" d="M21.5,139.45c16.45-16.55,32.96-33.05,49.45-49.57,19.4-19.43,38.82-38.83,58.15-58.34,1.99-2.01,3.01-2.2,5.13-.07,35.81,36.03,71.73,71.94,107.57,107.93,3.41,3.43,7.22,5.36,12.06,4.35,8.86-1.85,12.47-12.4,6.69-19.41-.79-.96-1.71-1.82-2.59-2.7C219.36,82.95,180.74,44.26,142.12,5.58c-7.41-7.43-13.43-7.43-20.82-.04C82.42,44.49,43.55,83.46,4.64,122.38c-3.85,3.85-5.74,8.1-3.97,13.49,1.63,4.94,6.18,8.16,11.36,8.13,3.87-.02,6.81-1.88,9.48-4.55Z"/><path class="cls-1" d="M12.03,144.01c3.87-.03,6.81-1.88,9.47-4.56,16.45-16.55,32.96-33.05,49.45-49.57,19.4-19.43,38.82-38.83,58.15-58.34,1.99-2.01,3.01-2.2,5.13-.07,35.81,36.03,71.73,71.94,107.57,107.93,3.41,3.43,7.22,5.36,12.06,4.35,8.86-1.85,12.47-12.4,6.69-19.41-.79-.96-1.71-1.82-2.59-2.7C219.36,82.95,180.74,44.26,142.12,5.58c-7.41-7.43-13.43-7.43-20.82-.04C82.42,44.49,43.55,83.46,4.64,122.38c-3.85,3.85-5.74,8.1-3.97,13.49,1.63,4.94,6.18,8.16,11.36,8.14Z"/></svg>