<svg xmlns='http://www.w3.org/2000/svg' version='1.1' width='754px' height='565px'><svg xmlns="http://www.w3.org/2000/svg" id="graphic" fill="currentColor" font-family="Source Sans Pro" width="743" height="554" x="10.5" y="10.5"><g class="facets"><g class="fl-facets"><g class="fl-facet" transform="translate(30.689239501953125, 0)" opacity="1"><rect class="fl-facet-rect" width="712.3107604980469" height="519" fill="none"/><rect class="fl-facet-primary-rect" width="712.3107604980469" height="519" y="0" fill="none"/><g class="fl-facet-title"><rect class="fl-facet-title-bg" height="0" width="0" fill="rgb(238, 238, 238)" x="0" opacity="0"/><text class="fl-facet-title-text" font-size="14" font-weight="600" dx="0" dy="14.700000000000001" x="0" opacity="0"/></g><g class="fl-facet-primary" transform="translate(0, 0)"><g class="fl-chart"><rect class="fl-chart-debug-rectangle" x="0" y="0" width="712.3107604980469" height="519" style="stroke-width: 1px; fill: none; display: none; stroke: red;"/><clipPath class="fl-data-clip-path" id="fl-chart-layout-1-clip-path"><rect x="0" y="9.450000000000001" width="697.3213027954101" height="509.55"/></clipPath><clipPath class="fl-grid-clip-path" id="fl-chart-layout-1-grid-clip-path"><rect x="-1.5" y="7.950000000000001" width="700.3213027954101" height="512.55"/></clipPath><g class="fl-chart-background"><rect class="fl-chart-fill" x="0" y="9.450000000000001" width="697.3213027954101" height="509.55" fill="none"/><image class="fl-chart-image" x="0" y="9.450000000000001" width="697.3213027954101" height="509.55" preserveAspectRatio="none"/><rect class="fl-chart-interaction" x="0" y="9.450000000000001" width="697.3213027954101" height="509.55" style="opacity: 0;"/></g><g class="fl-data-background" clip-path="url(#fl-chart-layout-1-clip-path)"/><g class="fl-gridlines" clip-path="url(#fl-chart-layout-1-grid-clip-path)" style="pointer-events: none;"><g class="fl-gridlines-vertical"/><g class="fl-gridlines-horizontal"><line x1="0" x2="697.3213027954101" y1="519" y2="519" style="shape-rendering: crispedges; opacity: 1; stroke: rgb(232, 240, 236); stroke-width: 1.5;"/><line x1="0" x2="697.3213027954101" y1="468.045" y2="468.045" style="shape-rendering: crispedges; opacity: 1; stroke: rgb(232, 240, 236); stroke-width: 1.5;"/><line x1="0" x2="697.3213027954101" y1="417.09000000000003" y2="417.09000000000003" style="shape-rendering: crispedges; opacity: 1; stroke: rgb(232, 240, 236); stroke-width: 1.5;"/><line x1="0" x2="697.3213027954101" y1="366.13499999999993" y2="366.13499999999993" style="shape-rendering: crispedges; opacity: 1; stroke: rgb(232, 240, 236); stroke-width: 1.5;"/><line x1="0" x2="697.3213027954101" y1="315.17999999999995" y2="315.17999999999995" style="shape-rendering: crispedges; opacity: 1; stroke: rgb(232, 240, 236); stroke-width: 1.5;"/><line x1="0" x2="697.3213027954101" y1="264.225" y2="264.225" style="shape-rendering: crispedges; opacity: 1; stroke: rgb(232, 240, 236); stroke-width: 1.5;"/><line x1="0" x2="697.3213027954101" y1="213.27" y2="213.27" style="shape-rendering: crispedges; opacity: 1; stroke: rgb(232, 240, 236); stroke-width: 1.5;"/><line x1="0" x2="697.3213027954101" y1="162.31500000000003" y2="162.31500000000003" style="shape-rendering: crispedges; opacity: 1; stroke: rgb(232, 240, 236); stroke-width: 1.5;"/><line x1="0" x2="697.3213027954101" y1="111.35999999999999" y2="111.35999999999999" style="shape-rendering: crispedges; opacity: 1; stroke: rgb(232, 240, 236); stroke-width: 1.5;"/><line x1="0" x2="697.3213027954101" y1="60.404999999999994" y2="60.404999999999994" style="shape-rendering: crispedges; opacity: 1; stroke: rgb(232, 240, 236); stroke-width: 1.5;"/><line x1="0" x2="697.3213027954101" y1="9.450000000000001" y2="9.450000000000001" style="shape-rendering: crispedges; opacity: 1; stroke: rgb(232, 240, 236); stroke-width: 1.5;"/></g></g><g class="fl-axes"><g class="fl-x-axes"><g class="fl-axis fl-x-axis fl-bottom-axis"><g class="fl-axis-line"><line x1="0" y1="519" y2="519" style="shape-rendering: crispedges; stroke-linecap: square; stroke-width: 1.5; opacity: 1; stroke: rgb(238, 238, 238);" x2="697.3213027954101"/></g><g class="fl-axis-ticks"><g transform="translate(29.0550537109375, 519)" style="opacity: 1;"><line y2="7" style="stroke: rgb(238, 238, 238); stroke-width: 1.5;"/><text text-anchor="end" transform="translate(12.852737426757812, 25.08799934387207)" style="user-select: none; cursor: default; fill: rgb(0, 0, 0); font-size: 16.8px; font-weight: normal;"><tspan x="0" dy="0">Jan</tspan></text></g><g transform="translate(87.1651611328125, 519)" style="opacity: 1;"><line y2="7" style="stroke: rgb(238, 238, 238); stroke-width: 1.5;"/><text text-anchor="end" transform="translate(12.835945129394531, 25.08799934387207)" style="user-select: none; cursor: default; fill: rgb(0, 0, 0); font-size: 16.8px; font-weight: normal;"><tspan x="0" dy="0">Feb</tspan></text></g><g transform="translate(145.2752685546875, 519)" style="opacity: 1;"><line y2="7" style="stroke: rgb(238, 238, 238); stroke-width: 1.5;"/><text text-anchor="end" transform="translate(13.247306823730469, 25.08799934387207)" style="user-select: none; cursor: default; fill: rgb(0, 0, 0); font-size: 16.8px; font-weight: normal;"><tspan x="0" dy="0">Mar</tspan></text></g><g transform="translate(203.3853759765625, 519)" style="opacity: 1;"><line y2="7" style="stroke: rgb(238, 238, 238); stroke-width: 1.5;"/><text text-anchor="end" transform="translate(12.139167785644531, 25.08799934387207)" style="user-select: none; cursor: default; fill: rgb(0, 0, 0); font-size: 16.8px; font-weight: normal;"><tspan x="0" dy="0">Apr</tspan></text></g><g transform="translate(261.4954833984375, 519)" style="opacity: 1;"><line y2="7" style="stroke: rgb(238, 238, 238); stroke-width: 1.5;"/><text text-anchor="end" transform="translate(14.254707336425781, 25.08799934387207)" style="user-select: none; cursor: default; fill: rgb(0, 0, 0); font-size: 16.8px; font-weight: normal;"><tspan x="0" dy="0">May</tspan></text></g><g transform="translate(319.6055908203125, 519)" style="opacity: 1;"><line y2="7" style="stroke: rgb(238, 238, 238); stroke-width: 1.5;"/><text text-anchor="end" transform="translate(13.18853759765625, 25.08799934387207)" style="user-select: none; cursor: default; fill: rgb(0, 0, 0); font-size: 16.8px; font-weight: normal;"><tspan x="0" dy="0">Jun</tspan></text></g><g transform="translate(377.7156982421875, 519)" style="opacity: 1;"><line y2="7" style="stroke: rgb(238, 238, 238); stroke-width: 1.5;"/><text text-anchor="end" transform="translate(10.737197875976562, 25.08799934387207)" style="user-select: none; cursor: default; fill: rgb(0, 0, 0); font-size: 16.8px; font-weight: normal;"><tspan x="0" dy="0">Jul</tspan></text></g><g transform="translate(435.8258056640625, 519)" style="opacity: 1;"><line y2="7" style="stroke: rgb(238, 238, 238); stroke-width: 1.5;"/><text text-anchor="end" transform="translate(13.314468383789062, 25.08799934387207)" style="user-select: none; cursor: default; fill: rgb(0, 0, 0); font-size: 16.8px; font-weight: normal;"><tspan x="0" dy="0">Aug</tspan></text></g><g transform="translate(493.9359130859375, 519)" style="opacity: 1;"><line y2="7" style="stroke: rgb(238, 238, 238); stroke-width: 1.5;"/><text text-anchor="end" transform="translate(16.00086212158203, 25.08799934387207)" style="user-select: none; cursor: default; fill: rgb(0, 0, 0); font-size: 16.8px; font-weight: normal;"><tspan x="0" dy="0">Sept</tspan></text></g><g transform="translate(552.0460205078125, 519)" style="opacity: 1;"><line y2="7" style="stroke: rgb(238, 238, 238); stroke-width: 1.5;"/><text text-anchor="end" transform="translate(12.155960083007812, 25.08799934387207)" style="user-select: none; cursor: default; fill: rgb(0, 0, 0); font-size: 16.8px; font-weight: normal;"><tspan x="0" dy="0">Oct</tspan></text></g><g transform="translate(610.1561279296875, 519)" style="opacity: 1;"><line y2="7" style="stroke: rgb(238, 238, 238); stroke-width: 1.5;"/><text text-anchor="end" transform="translate(13.868537902832031, 25.08799934387207)" style="user-select: none; cursor: default; fill: rgb(0, 0, 0); font-size: 16.8px; font-weight: normal;"><tspan x="0" dy="0">Nov</tspan></text></g><g transform="translate(668.2662353515625, 519)" style="opacity: 1;"><line y2="7" style="stroke: rgb(238, 238, 238); stroke-width: 1.5;"/><text text-anchor="end" transform="translate(13.154953002929688, 25.08799934387207)" style="user-select: none; cursor: default; fill: rgb(0, 0, 0); font-size: 16.8px; font-weight: normal;"><tspan x="0" dy="0">Dec</tspan></text></g></g><g class="fl-axis-title"/></g><g class="fl-axis fl-x-axis fl-top-axis"><g class="fl-axis-line"/><g class="fl-axis-ticks"/><g class="fl-axis-title"/></g></g><g class="fl-y-axes"><g class="fl-axis fl-y-axis fl-left-axis"><g class="fl-axis-line"><line x1="0" x2="0" y1="519" y2="9.450000000000001" style="shape-rendering: crispedges; stroke-linecap: square; stroke-width: 1.5; opacity: 1; stroke: rgb(232, 240, 236);"/></g><g class="fl-axis-ticks"><g transform="translate(0, 519)" style="opacity: 1;"><line x2="-7" style="stroke: rgb(232, 240, 236); stroke-width: 1.5;"/><text text-anchor="end" transform="translate(-14, 5.544000148773193)" style="user-select: none; cursor: default; fill: rgb(0, 0, 0); font-size: 16.8px; font-weight: normal;"><tspan x="0" dy="0">0</tspan></text></g><g transform="translate(0, 9.449999809265137)" style="opacity: 1;"><line x2="-7" style="stroke: rgb(232, 240, 236); stroke-width: 1.5;"/><text text-anchor="end" transform="translate(-14, 5.544000148773193)" style="user-select: none; cursor: default; fill: rgb(0, 0, 0); font-size: 16.8px; font-weight: normal;"><tspan x="0" dy="0">50</tspan></text></g><g transform="translate(0, 111.36000061035156)" style="opacity: 1;"><line x2="-7" style="stroke: rgb(232, 240, 236); stroke-width: 1.5;"/><text text-anchor="end" transform="translate(-14, 5.544000148773193)" style="user-select: none; cursor: default; fill: rgb(0, 0, 0); font-size: 16.8px; font-weight: normal;"><tspan x="0" dy="0">40</tspan></text></g><g transform="translate(0, 213.27000427246094)" style="opacity: 1;"><line x2="-7" style="stroke: rgb(232, 240, 236); stroke-width: 1.5;"/><text text-anchor="end" transform="translate(-14, 5.544000148773193)" style="user-select: none; cursor: default; fill: rgb(0, 0, 0); font-size: 16.8px; font-weight: normal;"><tspan x="0" dy="0">30</tspan></text></g><g transform="translate(0, 315.17999267578125)" style="opacity: 1;"><line x2="-7" style="stroke: rgb(232, 240, 236); stroke-width: 1.5;"/><text text-anchor="end" transform="translate(-14, 5.544000148773193)" style="user-select: none; cursor: default; fill: rgb(0, 0, 0); font-size: 16.8px; font-weight: normal;"><tspan x="0" dy="0">20</tspan></text></g><g transform="translate(0, 417.0899963378906)" style="opacity: 1;"><line x2="-7" style="stroke: rgb(232, 240, 236); stroke-width: 1.5;"/><text text-anchor="end" transform="translate(-14, 5.544000148773193)" style="user-select: none; cursor: default; fill: rgb(0, 0, 0); font-size: 16.8px; font-weight: normal;"><tspan x="0" dy="0">10</tspan></text></g><g transform="translate(0, 468.0450134277344)" style="opacity: 1;"><line x2="-7" style="stroke: rgb(232, 240, 236); stroke-width: 1.5;"/><text text-anchor="end" transform="translate(-14, 5.544000148773193)" style="user-select: none; cursor: default; fill: rgb(0, 0, 0); font-size: 16.8px; font-weight: normal;"><tspan x="0" dy="0">5</tspan></text></g><g transform="translate(0, 60.404998779296875)" style="opacity: 1;"><line x2="-7" style="stroke: rgb(232, 240, 236); stroke-width: 1.5;"/><text text-anchor="end" transform="translate(-14, 5.544000148773193)" style="user-select: none; cursor: default; fill: rgb(0, 0, 0); font-size: 16.8px; font-weight: normal;"><tspan x="0" dy="0">45</tspan></text></g><g transform="translate(0, 162.31500244140625)" style="opacity: 1;"><line x2="-7" style="stroke: rgb(232, 240, 236); stroke-width: 1.5;"/><text text-anchor="end" transform="translate(-14, 5.544000148773193)" style="user-select: none; cursor: default; fill: rgb(0, 0, 0); font-size: 16.8px; font-weight: normal;"><tspan x="0" dy="0">35</tspan></text></g><g transform="translate(0, 264.2250061035156)" style="opacity: 1;"><line x2="-7" style="stroke: rgb(232, 240, 236); stroke-width: 1.5;"/><text text-anchor="end" transform="translate(-14, 5.544000148773193)" style="user-select: none; cursor: default; fill: rgb(0, 0, 0); font-size: 16.8px; font-weight: normal;"><tspan x="0" dy="0">25</tspan></text></g><g transform="translate(0, 366.135009765625)" style="opacity: 1;"><line x2="-7" style="stroke: rgb(232, 240, 236); stroke-width: 1.5;"/><text text-anchor="end" transform="translate(-14, 5.544000148773193)" style="user-select: none; cursor: default; fill: rgb(0, 0, 0); font-size: 16.8px; font-weight: normal;"><tspan x="0" dy="0">15</tspan></text></g></g><g class="fl-axis-title"/></g><g class="fl-axis fl-y-axis fl-right-axis"><g class="fl-axis-line"/><g class="fl-axis-ticks"/><g class="fl-axis-title"/></g></g></g><g class="fl-data-foreground" clip-path="url(#fl-chart-layout-1-clip-path)"/></g></g></g></g></g><g class="annotations below"/><g id="areas"/><g id="lines"><g class="series"><clipPath id="clip-0-0"><rect width="697.3213027954101" x="0" y="6.65" height="515.15"/></clipPath><path class="line" opacity="1" pointer-events="none" fill="none" stroke="#69a0c2" stroke-width="2.8000000000000003" transform="translate(30.689239501953125, 0)" clip-path="url(#clip-0-0)" clip-path-id="0-0" d="M29.055054283142113,101.16900000000003L87.16516284942628,90.97800000000002L145.27527141571045,80.787L203.38537998199465,264.225L261.4954885482788,233.652L319.605597114563,233.652L377.7157056808472,274.416L435.82581424713135,131.742L493.9359228134155,223.461L552.0460313796997,223.461L610.1561399459839,131.742L668.266248512268,131.742"/></g><g class="series"><clipPath id="clip-0-1"><rect width="697.3213027954101" x="0" y="6.65" height="515.15"/></clipPath><path class="line" opacity="1" pointer-events="none" fill="none" stroke="#fc9366" stroke-width="2.8000000000000003" transform="translate(30.689239501953125, 0)" clip-path="url(#clip-0-1)" clip-path-id="0-1" d="M29.055054283142113,427.28100000000006L87.16516284942628,396.70799999999997L145.27527141571045,447.66299999999995L203.38537998199465,355.94399999999996L261.4954885482788,284.60699999999997L319.605597114563,50.213999999999984L377.7157056808472,172.50599999999997L435.82581424713135,233.652L493.9359228134155,203.079L552.0460313796997,264.225L610.1561399459839,294.79800000000006L668.266248512268,264.225"/></g></g><g id="data-points"><g class="series" transform="translate(30.689239501953125, 0)" clip-path="url(#facet-clip-0)"><path class="data-point" visibility="visible" fill="#69a0c2" data-type="point" transform="translate(0, 0)" d="M24.855054283142113,101.16900000000003A4.2,4.2,0,1,1,33.255054283142115,101.16900000000003A4.2,4.2,0,1,1,24.855054283142113,101.16900000000003Z" opacity="1" id="point-0-1"/><path class="data-point" visibility="visible" fill="#69a0c2" data-type="point" transform="translate(0, 0)" d="M82.96516284942628,90.97800000000002A4.2,4.2,0,1,1,91.36516284942628,90.97800000000002A4.2,4.2,0,1,1,82.96516284942628,90.97800000000002Z" opacity="1" id="point-0-2"/><path class="data-point" visibility="visible" fill="#69a0c2" data-type="point" transform="translate(0, 0)" d="M141.07527141571046,80.787A4.2,4.2,0,1,1,149.47527141571044,80.787A4.2,4.2,0,1,1,141.07527141571046,80.787Z" opacity="1" id="point-0-3"/><path class="data-point" visibility="visible" fill="#69a0c2" data-type="point" transform="translate(0, 0)" d="M199.18537998199466,264.225A4.2,4.2,0,1,1,207.58537998199463,264.225A4.2,4.2,0,1,1,199.18537998199466,264.225Z" opacity="1" id="point-0-4"/><path class="data-point" visibility="visible" fill="#69a0c2" data-type="point" transform="translate(0, 0)" d="M257.2954885482788,233.652A4.2,4.2,0,1,1,265.6954885482788,233.652A4.2,4.2,0,1,1,257.2954885482788,233.652Z" opacity="1" id="point-0-5"/><path class="data-point" visibility="visible" fill="#69a0c2" data-type="point" transform="translate(0, 0)" d="M315.405597114563,233.652A4.2,4.2,0,1,1,323.805597114563,233.652A4.2,4.2,0,1,1,315.405597114563,233.652Z" opacity="1" id="point-0-6"/><path class="data-point" visibility="visible" fill="#69a0c2" data-type="point" transform="translate(0, 0)" d="M373.5157056808472,274.416A4.2,4.2,0,1,1,381.91570568084717,274.416A4.2,4.2,0,1,1,373.5157056808472,274.416Z" opacity="1" id="point-0-7"/><path class="data-point" visibility="visible" fill="#69a0c2" data-type="point" transform="translate(0, 0)" d="M431.62581424713136,131.742A4.2,4.2,0,1,1,440.02581424713134,131.742A4.2,4.2,0,1,1,431.62581424713136,131.742Z" opacity="1" id="point-0-8"/><path class="data-point" visibility="visible" fill="#69a0c2" data-type="point" transform="translate(0, 0)" d="M489.7359228134155,223.461A4.2,4.2,0,1,1,498.1359228134155,223.461A4.2,4.2,0,1,1,489.7359228134155,223.461Z" opacity="1" id="point-0-9"/><path class="data-point" visibility="visible" fill="#69a0c2" data-type="point" transform="translate(0, 0)" d="M547.8460313796996,223.461A4.2,4.2,0,1,1,556.2460313796997,223.461A4.2,4.2,0,1,1,547.8460313796996,223.461Z" opacity="1" id="point-0-10"/><path class="data-point" visibility="visible" fill="#69a0c2" data-type="point" transform="translate(0, 0)" d="M605.9561399459839,131.742A4.2,4.2,0,1,1,614.356139945984,131.742A4.2,4.2,0,1,1,605.9561399459839,131.742Z" opacity="1" id="point-0-11"/><path class="data-point" visibility="visible" fill="#69a0c2" data-type="point" transform="translate(0, 0)" d="M664.066248512268,131.742A4.2,4.2,0,1,1,672.4662485122681,131.742A4.2,4.2,0,1,1,664.066248512268,131.742Z" opacity="1" id="point-0-12"/></g><g class="series" transform="translate(30.689239501953125, 0)" clip-path="url(#facet-clip-0)"><path class="data-point" visibility="visible" fill="#fc9366" data-type="point" transform="translate(0, 0)" d="M24.855054283142113,427.28100000000006A4.2,4.2,0,1,1,33.255054283142115,427.28100000000006A4.2,4.2,0,1,1,24.855054283142113,427.28100000000006Z" opacity="1" id="point-1-1"/><path class="data-point" visibility="visible" fill="#fc9366" data-type="point" transform="translate(0, 0)" d="M82.96516284942628,396.70799999999997A4.2,4.2,0,1,1,91.36516284942628,396.70799999999997A4.2,4.2,0,1,1,82.96516284942628,396.70799999999997Z" opacity="1" id="point-1-2"/><path class="data-point" visibility="visible" fill="#fc9366" data-type="point" transform="translate(0, 0)" d="M141.07527141571046,447.66299999999995A4.2,4.2,0,1,1,149.47527141571044,447.66299999999995A4.2,4.2,0,1,1,141.07527141571046,447.66299999999995Z" opacity="1" id="point-1-3"/><path class="data-point" visibility="visible" fill="#fc9366" data-type="point" transform="translate(0, 0)" d="M199.18537998199466,355.94399999999996A4.2,4.2,0,1,1,207.58537998199463,355.94399999999996A4.2,4.2,0,1,1,199.18537998199466,355.94399999999996Z" opacity="1" id="point-1-4"/><path class="data-point" visibility="visible" fill="#fc9366" data-type="point" transform="translate(0, 0)" d="M257.2954885482788,284.60699999999997A4.2,4.2,0,1,1,265.6954885482788,284.60699999999997A4.2,4.2,0,1,1,257.2954885482788,284.60699999999997Z" opacity="1" id="point-1-5"/><path class="data-point" visibility="visible" fill="#fc9366" data-type="point" transform="translate(0, 0)" d="M315.405597114563,50.213999999999984A4.2,4.2,0,1,1,323.805597114563,50.213999999999984A4.2,4.2,0,1,1,315.405597114563,50.213999999999984Z" opacity="1" id="point-1-6"/><path class="data-point" visibility="visible" fill="#fc9366" data-type="point" transform="translate(0, 0)" d="M373.5157056808472,172.50599999999997A4.2,4.2,0,1,1,381.91570568084717,172.50599999999997A4.2,4.2,0,1,1,373.5157056808472,172.50599999999997Z" opacity="1" id="point-1-7"/><path class="data-point" visibility="visible" fill="#fc9366" data-type="point" transform="translate(0, 0)" d="M431.62581424713136,233.652A4.2,4.2,0,1,1,440.02581424713134,233.652A4.2,4.2,0,1,1,431.62581424713136,233.652Z" opacity="1" id="point-1-8"/><path class="data-point" visibility="visible" fill="#fc9366" data-type="point" transform="translate(0, 0)" d="M489.7359228134155,203.079A4.2,4.2,0,1,1,498.1359228134155,203.079A4.2,4.2,0,1,1,489.7359228134155,203.079Z" opacity="1" id="point-1-9"/><path class="data-point" visibility="visible" fill="#fc9366" data-type="point" transform="translate(0, 0)" d="M547.8460313796996,264.225A4.2,4.2,0,1,1,556.2460313796997,264.225A4.2,4.2,0,1,1,547.8460313796996,264.225Z" opacity="1" id="point-1-10"/><path class="data-point" visibility="visible" fill="#fc9366" data-type="point" transform="translate(0, 0)" d="M605.9561399459839,294.79800000000006A4.2,4.2,0,1,1,614.356139945984,294.79800000000006A4.2,4.2,0,1,1,605.9561399459839,294.79800000000006Z" opacity="1" id="point-1-11"/><path class="data-point" visibility="visible" fill="#fc9366" data-type="point" transform="translate(0, 0)" d="M664.066248512268,264.225A4.2,4.2,0,1,1,672.4662485122681,264.225A4.2,4.2,0,1,1,664.066248512268,264.225Z" opacity="1" id="point-1-12"/></g></g><g id="lines-secondary"/><g id="data-points-secondary"/><g id="axes-highlights"><g class="axis-highlights-facet"><g class="axis-highlights" style="opacity: 1;" transform="translate(30.689239501953125, 0)"/><defs><pattern id="fl-pattern-diagonal-x" width="4" height="4" patternUnits="userSpaceOnUse"><path d="M 0,4 l 4,-4 M -1,1 l 2,-2 M 3,5 l 2,-2" stroke-width="1" shape-rendering="auto" stroke-linecap="square"/></pattern><pattern id="fl-pattern-dots-x" width="5" height="5" patternUnits="userSpaceOnUse"><circle cx="2.5" cy="2.5" r="1" stroke-width="1" shape-rendering="auto"/></pattern><pattern id="fl-pattern-grid-x" width="4" height="4" patternUnits="userSpaceOnUse"><path d="M 2, 0 l 0, 4" stroke-width="1" shape-rendering="auto" stroke-linecap="square"/><path d="M 0,2 l 4,0" stroke-width="1" shape-rendering="auto" stroke-linecap="square"/></pattern><pattern id="fl-pattern-diagonal-y" width="4" height="4" patternUnits="userSpaceOnUse"><path d="M 0,4 l 4,-4 M -1,1 l 2,-2 M 3,5 l 2,-2" stroke-width="1" shape-rendering="auto" stroke-linecap="square"/></pattern><pattern id="fl-pattern-grid-y" width="4" height="4" patternUnits="userSpaceOnUse"><path d="M 2, 0 l 0, 4" stroke-width="1" shape-rendering="auto" stroke-linecap="square"/><path d="M 0,2 l 4,0" stroke-width="1" shape-rendering="auto" stroke-linecap="square"/></pattern><pattern id="fl-pattern-dots-y" width="5" height="5" patternUnits="userSpaceOnUse"><circle cx="2.5" cy="2.5" r="1" stroke-width="1" shape-rendering="auto"/></pattern></defs></g></g><g id="data-point-labels"><g class="series" transform="translate(30.689239501953125, 0)" clip-path="url(#facet-clip-0)"/><g class="series" transform="translate(30.689239501953125, 0)" clip-path="url(#facet-clip-0)"/></g><g id="stack-labels"/><g class="annotations above"/></svg><svg xmlns="http://www.w3.org/2000/svg" class="flourish-panel-close" viewBox="0 0 40 40" style="width: 1.25rem; height: 1.25rem; position: absolute; right: 1rem; top: 1rem; cursor: pointer; opacity: 0;" x="-31.5" y="14"><path stroke="#333333" stroke-width="0.5rem" stroke-linecap="round" d="M 10,10 L 30,30 M 30,10 L 10,30" style="stroke: rgb(51, 51, 51);"/></svg></svg>