<svg xmlns='http://www.w3.org/2000/svg' version='1.1' width='754px' height='565px'><svg xmlns="http://www.w3.org/2000/svg" id="graphic" fill="currentColor" font-family="Source Sans Pro" width="743" height="554" x="10.5" y="10.5"><g class="facets"><g class="fl-facets"><g class="fl-facet" transform="translate(39.03385925292969, 0)" opacity="1"><rect class="fl-facet-rect" width="703.9661407470703" height="519.1999988555908" fill="none"/><rect class="fl-facet-primary-rect" width="703.9661407470703" height="519.1999988555908" y="0" fill="none"/><g class="fl-facet-title"><rect class="fl-facet-title-bg" height="0" width="0" fill="rgb(238, 238, 238)" x="0" opacity="0"/><text class="fl-facet-title-text" font-size="14" font-weight="600" dx="0" dy="14.700000000000001" x="0" opacity="0"/></g><g class="fl-facet-primary" transform="translate(0, 0)"><g class="fl-chart"><rect class="fl-chart-debug-rectangle" x="0" y="0" width="703.9661407470703" height="519.1999988555908" style="stroke-width: 1px; fill: none; display: none; stroke: red;"/><clipPath class="fl-data-clip-path" id="fl-chart-layout-1-clip-path"><rect x="0" y="9.360000514984131" width="688.9766830444336" height="509.8399983406067"/></clipPath><clipPath class="fl-grid-clip-path" id="fl-chart-layout-1-grid-clip-path"><rect x="-1.6" y="7.760000514984132" width="692.1766830444336" height="513.0399983406068"/></clipPath><g class="fl-chart-background"><rect class="fl-chart-fill" x="0" y="9.360000514984131" width="688.9766830444336" height="509.8399983406067" fill="none"/><image class="fl-chart-image" x="0" y="9.360000514984131" width="688.9766830444336" height="509.8399983406067" preserveAspectRatio="none"/><rect class="fl-chart-interaction" x="0" y="9.360000514984131" width="688.9766830444336" height="509.8399983406067" style="opacity: 0;"/></g><g class="fl-data-background" clip-path="url(#fl-chart-layout-1-clip-path)"/><g class="fl-gridlines" clip-path="url(#fl-chart-layout-1-grid-clip-path)" style="pointer-events: none;"><g class="fl-gridlines-vertical"/><g class="fl-gridlines-horizontal"><line x1="0" x2="688.9766830444336" y1="519.1999988555908" y2="519.1999988555908" style="shape-rendering: crispedges; opacity: 1; stroke: rgb(232, 240, 236); stroke-width: 1.6;"/><line x1="0" x2="688.9766830444336" y1="446.3657133783613" y2="446.3657133783613" style="shape-rendering: crispedges; opacity: 1; stroke: rgb(232, 240, 236); stroke-width: 1.6;"/><line x1="0" x2="688.9766830444336" y1="373.5314279011318" y2="373.5314279011318" style="shape-rendering: crispedges; opacity: 1; stroke: rgb(232, 240, 236); stroke-width: 1.6;"/><line x1="0" x2="688.9766830444336" y1="300.6971424239022" y2="300.6971424239022" style="shape-rendering: crispedges; opacity: 1; stroke: rgb(232, 240, 236); stroke-width: 1.6;"/><line x1="0" x2="688.9766830444336" y1="227.86285694667274" y2="227.86285694667274" style="shape-rendering: crispedges; opacity: 1; stroke: rgb(232, 240, 236); stroke-width: 1.6;"/><line x1="0" x2="688.9766830444336" y1="155.0285714694432" y2="155.0285714694432" style="shape-rendering: crispedges; opacity: 1; stroke: rgb(232, 240, 236); stroke-width: 1.6;"/><line x1="0" x2="688.9766830444336" y1="82.1942859922137" y2="82.1942859922137" style="shape-rendering: crispedges; opacity: 1; stroke: rgb(232, 240, 236); stroke-width: 1.6;"/><line x1="0" x2="688.9766830444336" y1="9.360000514984131" y2="9.360000514984131" style="shape-rendering: crispedges; opacity: 1; stroke: rgb(232, 240, 236); stroke-width: 1.6;"/></g></g><g class="fl-axes"><g class="fl-x-axes"><g class="fl-axis fl-x-axis fl-bottom-axis"><g class="fl-axis-line"><line x1="0" y1="519.1999988555908" y2="519.1999988555908" style="shape-rendering: crispedges; stroke-linecap: square; stroke-width: 1.6; opacity: 1; stroke: rgb(238, 238, 238);" x2="688.9766830444336"/></g><g class="fl-axis-ticks"><g transform="translate(28.70736179351809,519.1999988555908)" style="opacity: 1;"><line y2="7" style="stroke: rgb(238, 238, 238); stroke-width: 1.6;"/><text text-anchor="end" transform="translate(12.852737426757812,25.088)" style="user-select: none; cursor: default; fill: rgb(0, 0, 0); font-size: 16.8px; font-weight: normal;"><tspan x="0" dy="0">Jan</tspan></text></g><g transform="translate(86.12208538055421,519.1999988555908)" style="opacity: 1;"><line y2="7" style="stroke: rgb(238, 238, 238); stroke-width: 1.6;"/><text text-anchor="end" transform="translate(12.835945129394531,25.088)" style="user-select: none; cursor: default; fill: rgb(0, 0, 0); font-size: 16.8px; font-weight: normal;"><tspan x="0" dy="0">Feb</tspan></text></g><g transform="translate(143.53680896759033,519.1999988555908)" style="opacity: 1;"><line y2="7" style="stroke: rgb(238, 238, 238); stroke-width: 1.6;"/><text text-anchor="end" transform="translate(13.247306823730469,25.088)" style="user-select: none; cursor: default; fill: rgb(0, 0, 0); font-size: 16.8px; font-weight: normal;"><tspan x="0" dy="0">Mar</tspan></text></g><g transform="translate(200.95153255462648,519.1999988555908)" style="opacity: 1;"><line y2="7" style="stroke: rgb(238, 238, 238); stroke-width: 1.6;"/><text text-anchor="end" transform="translate(12.13916015625,25.088)" style="user-select: none; cursor: default; fill: rgb(0, 0, 0); font-size: 16.8px; font-weight: normal;"><tspan x="0" dy="0">Apr</tspan></text></g><g transform="translate(258.3662561416626,519.1999988555908)" style="opacity: 1;"><line y2="7" style="stroke: rgb(238, 238, 238); stroke-width: 1.6;"/><text text-anchor="end" transform="translate(14.254707336425781,25.088)" style="user-select: none; cursor: default; fill: rgb(0, 0, 0); font-size: 16.8px; font-weight: normal;"><tspan x="0" dy="0">May</tspan></text></g><g transform="translate(315.78097972869875,519.1999988555908)" style="opacity: 1;"><line y2="7" style="stroke: rgb(238, 238, 238); stroke-width: 1.6;"/><text text-anchor="end" transform="translate(13.18853759765625,25.088)" style="user-select: none; cursor: default; fill: rgb(0, 0, 0); font-size: 16.8px; font-weight: normal;"><tspan x="0" dy="0">Jun</tspan></text></g><g transform="translate(373.1957033157349,519.1999988555908)" style="opacity: 1;"><line y2="7" style="stroke: rgb(238, 238, 238); stroke-width: 1.6;"/><text text-anchor="end" transform="translate(10.737197875976562,25.088)" style="user-select: none; cursor: default; fill: rgb(0, 0, 0); font-size: 16.8px; font-weight: normal;"><tspan x="0" dy="0">Jul</tspan></text></g><g transform="translate(430.610426902771,519.1999988555908)" style="opacity: 1;"><line y2="7" style="stroke: rgb(238, 238, 238); stroke-width: 1.6;"/><text text-anchor="end" transform="translate(13.314468383789062,25.088)" style="user-select: none; cursor: default; fill: rgb(0, 0, 0); font-size: 16.8px; font-weight: normal;"><tspan x="0" dy="0">Aug</tspan></text></g><g transform="translate(488.0251504898071,519.1999988555908)" style="opacity: 1;"><line y2="7" style="stroke: rgb(238, 238, 238); stroke-width: 1.6;"/><text text-anchor="end" transform="translate(16.0008544921875,25.088)" style="user-select: none; cursor: default; fill: rgb(0, 0, 0); font-size: 16.8px; font-weight: normal;"><tspan x="0" dy="0">Sept</tspan></text></g><g transform="translate(545.4398740768432,519.1999988555908)" style="opacity: 1;"><line y2="7" style="stroke: rgb(238, 238, 238); stroke-width: 1.6;"/><text text-anchor="end" transform="translate(12.155960083007812,25.088)" style="user-select: none; cursor: default; fill: rgb(0, 0, 0); font-size: 16.8px; font-weight: normal;"><tspan x="0" dy="0">Oct</tspan></text></g><g transform="translate(602.8545976638794,519.1999988555908)" style="opacity: 1;"><line y2="7" style="stroke: rgb(238, 238, 238); stroke-width: 1.6;"/><text text-anchor="end" transform="translate(13.868537902832031,25.088)" style="user-select: none; cursor: default; fill: rgb(0, 0, 0); font-size: 16.8px; font-weight: normal;"><tspan x="0" dy="0">Nov</tspan></text></g><g transform="translate(660.2693212509155,519.1999988555908)" style="opacity: 1;"><line y2="7" style="stroke: rgb(238, 238, 238); stroke-width: 1.6;"/><text text-anchor="end" transform="translate(13.154953002929688,25.088)" style="user-select: none; cursor: default; fill: rgb(0, 0, 0); font-size: 16.8px; font-weight: normal;"><tspan x="0" dy="0">Dec</tspan></text></g></g><g class="fl-axis-title"/></g><g class="fl-axis fl-x-axis fl-top-axis"><g class="fl-axis-line"/><g class="fl-axis-ticks"/><g class="fl-axis-title"/></g></g><g class="fl-y-axes"><g class="fl-axis fl-y-axis fl-left-axis"><g class="fl-axis-line"><line x1="0" x2="0" y1="519.1999988555908" y2="9.360000514984131" style="shape-rendering: crispedges; stroke-linecap: square; stroke-width: 1.6; opacity: 1; stroke: rgb(232, 240, 236);"/></g><g class="fl-axis-ticks"><g transform="translate(0,519.1999988555908)" style="opacity: 1;"><line x2="-7" style="stroke: rgb(232, 240, 236); stroke-width: 1.6;"/><text text-anchor="end" transform="translate(-14,5.5440000000000005)" style="user-select: none; cursor: default; fill: rgb(0, 0, 0); font-size: 16.8px; font-weight: normal;"><tspan x="0" dy="0">0</tspan></text></g><g transform="translate(0,82.1942859922137)" style="opacity: 1;"><line x2="-7" style="stroke: rgb(232, 240, 236); stroke-width: 1.6;"/><text text-anchor="end" transform="translate(-14,5.5440000000000005)" style="user-select: none; cursor: default; fill: rgb(0, 0, 0); font-size: 16.8px; font-weight: normal;"><tspan x="0" dy="0">300</tspan></text></g><g transform="translate(0,227.86285694667274)" style="opacity: 1;"><line x2="-7" style="stroke: rgb(232, 240, 236); stroke-width: 1.6;"/><text text-anchor="end" transform="translate(-14,5.5440000000000005)" style="user-select: none; cursor: default; fill: rgb(0, 0, 0); font-size: 16.8px; font-weight: normal;"><tspan x="0" dy="0">200</tspan></text></g><g transform="translate(0,373.5314279011318)" style="opacity: 1;"><line x2="-7" style="stroke: rgb(232, 240, 236); stroke-width: 1.6;"/><text text-anchor="end" transform="translate(-14,5.5440000000000005)" style="user-select: none; cursor: default; fill: rgb(0, 0, 0); font-size: 16.8px; font-weight: normal;"><tspan x="0" dy="0">100</tspan></text></g><g transform="translate(0,446.3657133783613)" style="opacity: 1;"><line x2="-7" style="stroke: rgb(232, 240, 236); stroke-width: 1.6;"/><text text-anchor="end" transform="translate(-14,5.5440000000000005)" style="user-select: none; cursor: default; fill: rgb(0, 0, 0); font-size: 16.8px; font-weight: normal;"><tspan x="0" dy="0">50</tspan></text></g><g transform="translate(0,9.360000514984131)" style="opacity: 1;"><line x2="-7" style="stroke: rgb(232, 240, 236); stroke-width: 1.6;"/><text text-anchor="end" transform="translate(-14,5.5440000000000005)" style="user-select: none; cursor: default; fill: rgb(0, 0, 0); font-size: 16.8px; font-weight: normal;"><tspan x="0" dy="0">350</tspan></text></g><g transform="translate(0,155.0285714694432)" style="opacity: 1;"><line x2="-7" style="stroke: rgb(232, 240, 236); stroke-width: 1.6;"/><text text-anchor="end" transform="translate(-14,5.5440000000000005)" style="user-select: none; cursor: default; fill: rgb(0, 0, 0); font-size: 16.8px; font-weight: normal;"><tspan x="0" dy="0">250</tspan></text></g><g transform="translate(0,300.6971424239022)" style="opacity: 1;"><line x2="-7" style="stroke: rgb(232, 240, 236); stroke-width: 1.6;"/><text text-anchor="end" transform="translate(-14,5.5440000000000005)" style="user-select: none; cursor: default; fill: rgb(0, 0, 0); font-size: 16.8px; font-weight: normal;"><tspan x="0" dy="0">150</tspan></text></g></g><g class="fl-axis-title"/></g><g class="fl-axis fl-y-axis fl-right-axis"><g class="fl-axis-line"/><g class="fl-axis-ticks"/><g class="fl-axis-title"/></g></g></g><g class="fl-data-foreground" clip-path="url(#fl-chart-layout-1-clip-path)"/></g></g></g></g></g><g class="annotations below"/><g id="areas"/><g id="lines"><g class="series"><clipPath id="clip-0-0"><rect width="688.9766830444336" x="0" y="6.5600005149841305" height="515.4399983406067"/></clipPath><path class="line" opacity="1" pointer-events="none" fill="none" stroke="#69a0c2" stroke-width="2.8000000000000003" transform="translate(39.03385925292969,0)" clip-path="url(#clip-0-0)" clip-path-id="0-0" d="M28.70736179351809,420.1453706065587L86.12208538055421,424.5154277351924L143.53680896759033,367.7046850629534L200.95153255462648,415.7753134779249L258.3662561416626,408.49188493020193L315.78097972869875,414.31862776838034L373.1957033157349,414.31862776838034L430.610426902771,385.1849135774885L488.0251504898071,353.13782796750746L545.4398740768432,409.9485706397465L602.8545976638794,389.5549707061223L660.2693212509155,428.8854848638262"/></g><g class="series"><clipPath id="clip-0-1"><rect width="688.9766830444336" x="0" y="6.5600005149841305" height="515.4399983406067"/></clipPath><path class="line" opacity="1" pointer-events="none" fill="none" stroke="#fc9366" stroke-width="2.8000000000000003" transform="translate(39.03385925292969,0)" clip-path="url(#clip-0-1)" clip-path-id="0-1" d="M28.70736179351809,463.8459418928964L86.12208538055421,458.01919905471806L143.53680896759033,439.08228483063834L200.95153255462648,472.5860561501639L258.3662561416626,478.4127989883423L315.78097972869875,475.4994275692531L373.1957033157349,465.3026276024409L430.610426902771,440.5389705401829L488.0251504898071,440.5389705401829L545.4398740768432,460.9325704738072L602.8545976638794,441.9956562497275L660.2693212509155,465.3026276024409"/></g></g><g id="data-points"><g class="series" transform="translate(39.03385925292969,0)" clip-path="url(#facet-clip-0)"><path class="data-point" visibility="visible" fill="#69a0c2" data-type="point" transform="translate(0, 0)" d="M24.50736179351809,420.1453706065587A4.2,4.2,0,1,1,32.90736179351809,420.1453706065587A4.2,4.2,0,1,1,24.50736179351809,420.1453706065587Z" opacity="1" id="point-0-1"/><path class="data-point" visibility="visible" fill="#69a0c2" data-type="point" transform="translate(0, 0)" d="M81.92208538055421,424.5154277351924A4.2,4.2,0,1,1,90.32208538055421,424.5154277351924A4.2,4.2,0,1,1,81.92208538055421,424.5154277351924Z" opacity="1" id="point-0-2"/><path class="data-point" visibility="visible" fill="#69a0c2" data-type="point" transform="translate(0, 0)" d="M139.33680896759034,367.7046850629534A4.2,4.2,0,1,1,147.73680896759032,367.7046850629534A4.2,4.2,0,1,1,139.33680896759034,367.7046850629534Z" opacity="1" id="point-0-3"/><path class="data-point" visibility="visible" fill="#69a0c2" data-type="point" transform="translate(0, 0)" d="M196.7515325546265,415.7753134779249A4.2,4.2,0,1,1,205.15153255462647,415.7753134779249A4.2,4.2,0,1,1,196.7515325546265,415.7753134779249Z" opacity="1" id="point-0-4"/><path class="data-point" visibility="visible" fill="#69a0c2" data-type="point" transform="translate(0, 0)" d="M254.1662561416626,408.49188493020193A4.2,4.2,0,1,1,262.56625614166256,408.49188493020193A4.2,4.2,0,1,1,254.1662561416626,408.49188493020193Z" opacity="1" id="point-0-5"/><path class="data-point" visibility="visible" fill="#69a0c2" data-type="point" transform="translate(0, 0)" d="M311.58097972869876,414.31862776838034A4.2,4.2,0,1,1,319.98097972869874,414.31862776838034A4.2,4.2,0,1,1,311.58097972869876,414.31862776838034Z" opacity="1" id="point-0-6"/><path class="data-point" visibility="visible" fill="#69a0c2" data-type="point" transform="translate(0, 0)" d="M368.9957033157349,414.31862776838034A4.2,4.2,0,1,1,377.39570331573486,414.31862776838034A4.2,4.2,0,1,1,368.9957033157349,414.31862776838034Z" opacity="1" id="point-0-7"/><path class="data-point" visibility="visible" fill="#69a0c2" data-type="point" transform="translate(0, 0)" d="M426.410426902771,385.1849135774885A4.2,4.2,0,1,1,434.810426902771,385.1849135774885A4.2,4.2,0,1,1,426.410426902771,385.1849135774885Z" opacity="1" id="point-0-8"/><path class="data-point" visibility="visible" fill="#69a0c2" data-type="point" transform="translate(0, 0)" d="M483.82515048980713,353.13782796750746A4.2,4.2,0,1,1,492.2251504898071,353.13782796750746A4.2,4.2,0,1,1,483.82515048980713,353.13782796750746Z" opacity="1" id="point-0-9"/><path class="data-point" visibility="visible" fill="#69a0c2" data-type="point" transform="translate(0, 0)" d="M541.2398740768432,409.9485706397465A4.2,4.2,0,1,1,549.6398740768433,409.9485706397465A4.2,4.2,0,1,1,541.2398740768432,409.9485706397465Z" opacity="1" id="point-0-10"/><path class="data-point" visibility="visible" fill="#69a0c2" data-type="point" transform="translate(0, 0)" d="M598.6545976638794,389.5549707061223A4.2,4.2,0,1,1,607.0545976638795,389.5549707061223A4.2,4.2,0,1,1,598.6545976638794,389.5549707061223Z" opacity="1" id="point-0-11"/><path class="data-point" visibility="visible" fill="#69a0c2" data-type="point" transform="translate(0, 0)" d="M656.0693212509154,428.8854848638262A4.2,4.2,0,1,1,664.4693212509155,428.8854848638262A4.2,4.2,0,1,1,656.0693212509154,428.8854848638262Z" opacity="1" id="point-0-12"/></g><g class="series" transform="translate(39.03385925292969,0)" clip-path="url(#facet-clip-0)"><path class="data-point" visibility="visible" fill="#fc9366" data-type="point" transform="translate(0, 0)" d="M24.50736179351809,463.8459418928964A4.2,4.2,0,1,1,32.90736179351809,463.8459418928964A4.2,4.2,0,1,1,24.50736179351809,463.8459418928964Z" opacity="1" id="point-1-1"/><path class="data-point" visibility="visible" fill="#fc9366" data-type="point" transform="translate(0, 0)" d="M81.92208538055421,458.01919905471806A4.2,4.2,0,1,1,90.32208538055421,458.01919905471806A4.2,4.2,0,1,1,81.92208538055421,458.01919905471806Z" opacity="1" id="point-1-2"/><path class="data-point" visibility="visible" fill="#fc9366" data-type="point" transform="translate(0, 0)" d="M139.33680896759034,439.08228483063834A4.2,4.2,0,1,1,147.73680896759032,439.08228483063834A4.2,4.2,0,1,1,139.33680896759034,439.08228483063834Z" opacity="1" id="point-1-3"/><path class="data-point" visibility="visible" fill="#fc9366" data-type="point" transform="translate(0, 0)" d="M196.7515325546265,472.5860561501639A4.2,4.2,0,1,1,205.15153255462647,472.5860561501639A4.2,4.2,0,1,1,196.7515325546265,472.5860561501639Z" opacity="1" id="point-1-4"/><path class="data-point" visibility="visible" fill="#fc9366" data-type="point" transform="translate(0, 0)" d="M254.1662561416626,478.4127989883423A4.2,4.2,0,1,1,262.56625614166256,478.4127989883423A4.2,4.2,0,1,1,254.1662561416626,478.4127989883423Z" opacity="1" id="point-1-5"/><path class="data-point" visibility="visible" fill="#fc9366" data-type="point" transform="translate(0, 0)" d="M311.58097972869876,475.4994275692531A4.2,4.2,0,1,1,319.98097972869874,475.4994275692531A4.2,4.2,0,1,1,311.58097972869876,475.4994275692531Z" opacity="1" id="point-1-6"/><path class="data-point" visibility="visible" fill="#fc9366" data-type="point" transform="translate(0, 0)" d="M368.9957033157349,465.3026276024409A4.2,4.2,0,1,1,377.39570331573486,465.3026276024409A4.2,4.2,0,1,1,368.9957033157349,465.3026276024409Z" opacity="1" id="point-1-7"/><path class="data-point" visibility="visible" fill="#fc9366" data-type="point" transform="translate(0, 0)" d="M426.410426902771,440.5389705401829A4.2,4.2,0,1,1,434.810426902771,440.5389705401829A4.2,4.2,0,1,1,426.410426902771,440.5389705401829Z" opacity="1" id="point-1-8"/><path class="data-point" visibility="visible" fill="#fc9366" data-type="point" transform="translate(0, 0)" d="M483.82515048980713,440.5389705401829A4.2,4.2,0,1,1,492.2251504898071,440.5389705401829A4.2,4.2,0,1,1,483.82515048980713,440.5389705401829Z" opacity="1" id="point-1-9"/><path class="data-point" visibility="visible" fill="#fc9366" data-type="point" transform="translate(0, 0)" d="M541.2398740768432,460.9325704738072A4.2,4.2,0,1,1,549.6398740768433,460.9325704738072A4.2,4.2,0,1,1,541.2398740768432,460.9325704738072Z" opacity="1" id="point-1-10"/><path class="data-point" visibility="visible" fill="#fc9366" data-type="point" transform="translate(0, 0)" d="M598.6545976638794,441.9956562497275A4.2,4.2,0,1,1,607.0545976638795,441.9956562497275A4.2,4.2,0,1,1,598.6545976638794,441.9956562497275Z" opacity="1" id="point-1-11"/><path class="data-point" visibility="visible" fill="#fc9366" data-type="point" transform="translate(0, 0)" d="M656.0693212509154,465.3026276024409A4.2,4.2,0,1,1,664.4693212509155,465.3026276024409A4.2,4.2,0,1,1,656.0693212509154,465.3026276024409Z" opacity="1" id="point-1-12"/></g></g><g id="lines-secondary"/><g id="data-points-secondary"/><g id="axes-highlights"><g class="axis-highlights-facet"><g class="axis-highlights" style="opacity: 1;" transform="translate(39.03385925292969, 0)"/><defs><pattern id="fl-pattern-diagonal-x" width="4" height="4" patternUnits="userSpaceOnUse"><path d="M 0,4 l 4,-4 M -1,1 l 2,-2 M 3,5 l 2,-2" stroke-width="1" shape-rendering="auto" stroke-linecap="square"/></pattern><pattern id="fl-pattern-dots-x" width="5" height="5" patternUnits="userSpaceOnUse"><circle cx="2.5" cy="2.5" r="1" stroke-width="1" shape-rendering="auto"/></pattern><pattern id="fl-pattern-grid-x" width="4" height="4" patternUnits="userSpaceOnUse"><path d="M 2, 0 l 0, 4" stroke-width="1" shape-rendering="auto" stroke-linecap="square"/><path d="M 0,2 l 4,0" stroke-width="1" shape-rendering="auto" stroke-linecap="square"/></pattern><pattern id="fl-pattern-diagonal-y" width="4" height="4" patternUnits="userSpaceOnUse"><path d="M 0,4 l 4,-4 M -1,1 l 2,-2 M 3,5 l 2,-2" stroke-width="1" shape-rendering="auto" stroke-linecap="square"/></pattern><pattern id="fl-pattern-grid-y" width="4" height="4" patternUnits="userSpaceOnUse"><path d="M 2, 0 l 0, 4" stroke-width="1" shape-rendering="auto" stroke-linecap="square"/><path d="M 0,2 l 4,0" stroke-width="1" shape-rendering="auto" stroke-linecap="square"/></pattern><pattern id="fl-pattern-dots-y" width="5" height="5" patternUnits="userSpaceOnUse"><circle cx="2.5" cy="2.5" r="1" stroke-width="1" shape-rendering="auto"/></pattern></defs></g></g><g id="data-point-labels"><g class="series" transform="translate(39.03385925292969,0)" clip-path="url(#facet-clip-0)"/><g class="series" transform="translate(39.03385925292969,0)" clip-path="url(#facet-clip-0)"/></g><g id="stack-labels"/><g class="annotations above"/></svg><svg xmlns="http://www.w3.org/2000/svg" class="flourish-panel-close" viewBox="0 0 40 40" style="width: 1.25rem; height: 1.25rem; position: absolute; right: 1rem; top: 1rem; cursor: pointer; opacity: 0;" x="-31.5" y="14"><path stroke="#333333" stroke-width="0.5rem" stroke-linecap="round" d="M 10,10 L 30,30 M 30,10 L 10,30" style="stroke: rgb(51, 51, 51);"/></svg></svg>