<svg xmlns='http://www.w3.org/2000/svg' version='1.1' width='786px' height='565px'><svg xmlns="http://www.w3.org/2000/svg" id="graphic" fill="currentColor" font-family="Source Sans Pro" width="775" height="554" x="10.5" y="10.5"><g class="facets"><g class="fl-facets"><g class="fl-facet" transform="translate(39.03385925292969, 0)" opacity="1"><rect class="fl-facet-rect" width="735.9661407470703" height="519" fill="none"/><rect class="fl-facet-primary-rect" width="735.9661407470703" height="519" y="0" fill="none"/><g class="fl-facet-title"><rect class="fl-facet-title-bg" height="0" width="0" fill="rgb(238, 238, 238)" x="0" opacity="0"/><text class="fl-facet-title-text" font-size="14" font-weight="600" dx="0" dy="14.700000000000001" x="0" opacity="0"/></g><g class="fl-facet-primary" transform="translate(0, 0)"><g class="fl-chart"><rect class="fl-chart-debug-rectangle" x="0" y="0" width="735.9661407470703" height="519" style="stroke-width: 1px; fill: none; display: none; stroke: red;"/><clipPath class="fl-data-clip-path" id="fl-chart-layout-1-clip-path"><rect x="0" y="9.450000000000001" width="720.9766830444336" height="509.55"/></clipPath><clipPath class="fl-grid-clip-path" id="fl-chart-layout-1-grid-clip-path"><rect x="-1.5" y="7.950000000000001" width="723.9766830444336" height="512.55"/></clipPath><g class="fl-chart-background"><rect class="fl-chart-fill" x="0" y="9.450000000000001" width="720.9766830444336" height="509.55" fill="none"/><image class="fl-chart-image" x="0" y="9.450000000000001" width="720.9766830444336" height="509.55" preserveAspectRatio="none"/><rect class="fl-chart-interaction" x="0" y="9.450000000000001" width="720.9766830444336" height="509.55" style="opacity: 0;"/></g><g class="fl-data-background" clip-path="url(#fl-chart-layout-1-clip-path)"/><g class="fl-gridlines" clip-path="url(#fl-chart-layout-1-grid-clip-path)" style="pointer-events: none;"><g class="fl-gridlines-vertical"/><g class="fl-gridlines-horizontal"><line x1="0" x2="720.9766830444336" y1="519" y2="519" style="shape-rendering: crispedges; opacity: 1; stroke: rgb(232, 240, 236); stroke-width: 1.5;"/><line x1="0" x2="720.9766830444336" y1="446.2071428571429" y2="446.2071428571429" style="shape-rendering: crispedges; opacity: 1; stroke: rgb(232, 240, 236); stroke-width: 1.5;"/><line x1="0" x2="720.9766830444336" y1="373.4142857142857" y2="373.4142857142857" style="shape-rendering: crispedges; opacity: 1; stroke: rgb(232, 240, 236); stroke-width: 1.5;"/><line x1="0" x2="720.9766830444336" y1="300.62142857142857" y2="300.62142857142857" style="shape-rendering: crispedges; opacity: 1; stroke: rgb(232, 240, 236); stroke-width: 1.5;"/><line x1="0" x2="720.9766830444336" y1="227.82857142857145" y2="227.82857142857145" style="shape-rendering: crispedges; opacity: 1; stroke: rgb(232, 240, 236); stroke-width: 1.5;"/><line x1="0" x2="720.9766830444336" y1="155.03571428571428" y2="155.03571428571428" style="shape-rendering: crispedges; opacity: 1; stroke: rgb(232, 240, 236); stroke-width: 1.5;"/><line x1="0" x2="720.9766830444336" y1="82.24285714285716" y2="82.24285714285716" style="shape-rendering: crispedges; opacity: 1; stroke: rgb(232, 240, 236); stroke-width: 1.5;"/><line x1="0" x2="720.9766830444336" y1="9.450000000000001" y2="9.450000000000001" style="shape-rendering: crispedges; opacity: 1; stroke: rgb(232, 240, 236); stroke-width: 1.5;"/></g></g><g class="fl-axes"><g class="fl-x-axes"><g class="fl-axis fl-x-axis fl-bottom-axis"><g class="fl-axis-line"><line x1="0" y1="519" y2="519" style="shape-rendering: crispedges; stroke-linecap: square; stroke-width: 1.5; opacity: 1; stroke: rgb(238, 238, 238);" x2="720.9766830444336"/></g><g class="fl-axis-ticks"><g transform="translate(30.040695190429688, 519)" style="opacity: 1;"><line y2="7" style="stroke: rgb(238, 238, 238); stroke-width: 1.5;"/><text text-anchor="end" transform="translate(12.852737426757812, 25.08799934387207)" style="user-select: none; cursor: default; fill: rgb(0, 0, 0); font-size: 16.8px; font-weight: normal;"><tspan x="0" dy="0">Jan</tspan></text></g><g transform="translate(90.12208557128906, 519)" style="opacity: 1;"><line y2="7" style="stroke: rgb(238, 238, 238); stroke-width: 1.5;"/><text text-anchor="end" transform="translate(12.835945129394531, 25.08799934387207)" style="user-select: none; cursor: default; fill: rgb(0, 0, 0); font-size: 16.8px; font-weight: normal;"><tspan x="0" dy="0">Feb</tspan></text></g><g transform="translate(150.20347595214844, 519)" style="opacity: 1;"><line y2="7" style="stroke: rgb(238, 238, 238); stroke-width: 1.5;"/><text text-anchor="end" transform="translate(13.247306823730469, 25.08799934387207)" style="user-select: none; cursor: default; fill: rgb(0, 0, 0); font-size: 16.8px; font-weight: normal;"><tspan x="0" dy="0">Mar</tspan></text></g><g transform="translate(210.2848663330078, 519)" style="opacity: 1;"><line y2="7" style="stroke: rgb(238, 238, 238); stroke-width: 1.5;"/><text text-anchor="end" transform="translate(12.139167785644531, 25.08799934387207)" style="user-select: none; cursor: default; fill: rgb(0, 0, 0); font-size: 16.8px; font-weight: normal;"><tspan x="0" dy="0">Apr</tspan></text></g><g transform="translate(270.3662414550781, 519)" style="opacity: 1;"><line y2="7" style="stroke: rgb(238, 238, 238); stroke-width: 1.5;"/><text text-anchor="end" transform="translate(14.254707336425781, 25.08799934387207)" style="user-select: none; cursor: default; fill: rgb(0, 0, 0); font-size: 16.8px; font-weight: normal;"><tspan x="0" dy="0">May</tspan></text></g><g transform="translate(330.4476318359375, 519)" style="opacity: 1;"><line y2="7" style="stroke: rgb(238, 238, 238); stroke-width: 1.5;"/><text text-anchor="end" transform="translate(13.18853759765625, 25.08799934387207)" style="user-select: none; cursor: default; fill: rgb(0, 0, 0); font-size: 16.8px; font-weight: normal;"><tspan x="0" dy="0">Jun</tspan></text></g><g transform="translate(390.5290222167969, 519)" style="opacity: 1;"><line y2="7" style="stroke: rgb(238, 238, 238); stroke-width: 1.5;"/><text text-anchor="end" transform="translate(10.737197875976562, 25.08799934387207)" style="user-select: none; cursor: default; fill: rgb(0, 0, 0); font-size: 16.8px; font-weight: normal;"><tspan x="0" dy="0">Jul</tspan></text></g><g transform="translate(450.61041259765625, 519)" style="opacity: 1;"><line y2="7" style="stroke: rgb(238, 238, 238); stroke-width: 1.5;"/><text text-anchor="end" transform="translate(13.314468383789062, 25.08799934387207)" style="user-select: none; cursor: default; fill: rgb(0, 0, 0); font-size: 16.8px; font-weight: normal;"><tspan x="0" dy="0">Aug</tspan></text></g><g transform="translate(510.6918029785156, 519)" style="opacity: 1;"><line y2="7" style="stroke: rgb(238, 238, 238); stroke-width: 1.5;"/><text text-anchor="end" transform="translate(16.00086212158203, 25.08799934387207)" style="user-select: none; cursor: default; fill: rgb(0, 0, 0); font-size: 16.8px; font-weight: normal;"><tspan x="0" dy="0">Sept</tspan></text></g><g transform="translate(570.773193359375, 519)" style="opacity: 1;"><line y2="7" style="stroke: rgb(238, 238, 238); stroke-width: 1.5;"/><text text-anchor="end" transform="translate(12.155960083007812, 25.08799934387207)" style="user-select: none; cursor: default; fill: rgb(0, 0, 0); font-size: 16.8px; font-weight: normal;"><tspan x="0" dy="0">Oct</tspan></text></g><g transform="translate(630.8546142578125, 519)" style="opacity: 1;"><line y2="7" style="stroke: rgb(238, 238, 238); stroke-width: 1.5;"/><text text-anchor="end" transform="translate(13.868537902832031, 25.08799934387207)" style="user-select: none; cursor: default; fill: rgb(0, 0, 0); font-size: 16.8px; font-weight: normal;"><tspan x="0" dy="0">Nov</tspan></text></g><g transform="translate(690.9359741210938, 519)" style="opacity: 1;"><line y2="7" style="stroke: rgb(238, 238, 238); stroke-width: 1.5;"/><text text-anchor="end" transform="translate(13.154953002929688, 25.08799934387207)" style="user-select: none; cursor: default; fill: rgb(0, 0, 0); font-size: 16.8px; font-weight: normal;"><tspan x="0" dy="0">Dec</tspan></text></g></g><g class="fl-axis-title"/></g><g class="fl-axis fl-x-axis fl-top-axis"><g class="fl-axis-line"/><g class="fl-axis-ticks"/><g class="fl-axis-title"/></g></g><g class="fl-y-axes"><g class="fl-axis fl-y-axis fl-left-axis"><g class="fl-axis-line"><line x1="0" x2="0" y1="519" y2="9.450000000000001" style="shape-rendering: crispedges; stroke-linecap: square; stroke-width: 1.5; opacity: 1; stroke: rgb(232, 240, 236);"/></g><g class="fl-axis-ticks"><g transform="translate(0,519)" style="opacity: 1;"><line x2="-7" style="stroke: rgb(232, 240, 236); stroke-width: 1.5;"/><text text-anchor="end" transform="translate(-14,5.5440000000000005)" style="user-select: none; cursor: default; fill: rgb(0, 0, 0); font-size: 16.8px; font-weight: normal;"><tspan x="0" dy="0">0</tspan></text></g><g transform="translate(0, 82.24285888671875)" style="opacity: 1;"><line x2="-7" style="stroke: rgb(232, 240, 236); stroke-width: 1.5;"/><text text-anchor="end" transform="translate(-14,5.5440000000000005)" style="user-select: none; cursor: default; fill: rgb(0, 0, 0); font-size: 16.8px; font-weight: normal;"><tspan x="0" dy="0">300</tspan></text></g><g transform="translate(0, 227.8285675048828)" style="opacity: 1;"><line x2="-7" style="stroke: rgb(232, 240, 236); stroke-width: 1.5;"/><text text-anchor="end" transform="translate(-14,5.5440000000000005)" style="user-select: none; cursor: default; fill: rgb(0, 0, 0); font-size: 16.8px; font-weight: normal;"><tspan x="0" dy="0">200</tspan></text></g><g transform="translate(0, 373.4142761230469)" style="opacity: 1;"><line x2="-7" style="stroke: rgb(232, 240, 236); stroke-width: 1.5;"/><text text-anchor="end" transform="translate(-14,5.5440000000000005)" style="user-select: none; cursor: default; fill: rgb(0, 0, 0); font-size: 16.8px; font-weight: normal;"><tspan x="0" dy="0">100</tspan></text></g><g transform="translate(0, 446.2071533203125)" style="opacity: 1;"><line x2="-7" style="stroke: rgb(232, 240, 236); stroke-width: 1.5;"/><text text-anchor="end" transform="translate(-14,5.5440000000000005)" style="user-select: none; cursor: default; fill: rgb(0, 0, 0); font-size: 16.8px; font-weight: normal;"><tspan x="0" dy="0">50</tspan></text></g><g transform="translate(0, 9.449999809265137)" style="opacity: 1;"><line x2="-7" style="stroke: rgb(232, 240, 236); stroke-width: 1.5;"/><text text-anchor="end" transform="translate(-14,5.5440000000000005)" style="user-select: none; cursor: default; fill: rgb(0, 0, 0); font-size: 16.8px; font-weight: normal;"><tspan x="0" dy="0">350</tspan></text></g><g transform="translate(0, 155.0357208251953)" style="opacity: 1;"><line x2="-7" style="stroke: rgb(232, 240, 236); stroke-width: 1.5;"/><text text-anchor="end" transform="translate(-14,5.5440000000000005)" style="user-select: none; cursor: default; fill: rgb(0, 0, 0); font-size: 16.8px; font-weight: normal;"><tspan x="0" dy="0">250</tspan></text></g><g transform="translate(0, 300.6214294433594)" style="opacity: 1;"><line x2="-7" style="stroke: rgb(232, 240, 236); stroke-width: 1.5;"/><text text-anchor="end" transform="translate(-14,5.5440000000000005)" style="user-select: none; cursor: default; fill: rgb(0, 0, 0); font-size: 16.8px; font-weight: normal;"><tspan x="0" dy="0">150</tspan></text></g></g><g class="fl-axis-title"/></g><g class="fl-axis fl-y-axis fl-right-axis"><g class="fl-axis-line"/><g class="fl-axis-ticks"/><g class="fl-axis-title"/></g></g></g><g class="fl-data-foreground" clip-path="url(#fl-chart-layout-1-clip-path)"/></g></g></g></g></g><g class="annotations below"/><g id="areas"/><g id="lines"><g class="series"><clipPath id="clip-0-0"><rect width="720.9766830444336" x="0" y="6.65" height="515.15"/></clipPath><path class="line" opacity="1" pointer-events="none" fill="none" stroke="#69a0c2" stroke-width="2.8000000000000003" transform="translate(39.03385925292969, 0)" clip-path="url(#clip-0-0)" clip-path-id="0-0" d="M30.040695126851404,290.43042857142854L90.12208538055421,261.3132857142857L150.20347563425702,304.98900000000003L210.2848658879598,42.93471428571429L270.3662561416626,307.9007142857143L330.4476463953654,315.17999999999995L390.5290366490682,294.79800000000006L450.610426902771,332.65028571428576L510.6918171564738,315.17999999999995L570.7732074101766,341.3854285714286L630.8545976638793,310.81242857142854L690.9359879175822,300.62142857142857"/></g><g class="series"><clipPath id="clip-0-1"><rect width="720.9766830444336" x="0" y="6.65" height="515.15"/></clipPath><path class="line" opacity="1" pointer-events="none" fill="none" stroke="#fc9366" stroke-width="2.8000000000000003" transform="translate(39.03385925292969, 0)" clip-path="url(#clip-0-1)" clip-path-id="0-1" d="M30.040695126851404,440.38371428571435L90.12208538055421,431.6485714285714L150.20347563425702,411.2665714285714L210.2848658879598,427.28100000000006L270.3662561416626,347.2088571428571L330.4476463953654,326.82685714285714L390.5290366490682,342.84128571428573L450.610426902771,189.97628571428572L510.6918171564738,291.8862857142857L570.7732074101766,307.9007142857143L630.8545976638793,328.28271428571423L690.9359879175822,220.5492857142857"/></g></g><g id="data-points"><g class="series" transform="translate(39.03385925292969, 0)" clip-path="url(#facet-clip-0)"><path class="data-point" visibility="visible" fill="#69a0c2" data-type="point" transform="translate(0, 0)" d="M25.840695126851404,290.43042857142854A4.2,4.2,0,1,1,34.240695126851406,290.43042857142854A4.2,4.2,0,1,1,25.840695126851404,290.43042857142854Z" opacity="1" id="point-0-1"/><path class="data-point" visibility="visible" fill="#69a0c2" data-type="point" transform="translate(0, 0)" d="M85.92208538055421,261.3132857142857A4.2,4.2,0,1,1,94.32208538055421,261.3132857142857A4.2,4.2,0,1,1,85.92208538055421,261.3132857142857Z" opacity="1" id="point-0-2"/><path class="data-point" visibility="visible" fill="#69a0c2" data-type="point" transform="translate(0, 0)" d="M146.00347563425703,304.98900000000003A4.2,4.2,0,1,1,154.403475634257,304.98900000000003A4.2,4.2,0,1,1,146.00347563425703,304.98900000000003Z" opacity="1" id="point-0-3"/><path class="data-point" visibility="visible" fill="#69a0c2" data-type="point" transform="translate(0, 0)" d="M206.0848658879598,42.93471428571429A4.2,4.2,0,1,1,214.48486588795978,42.93471428571429A4.2,4.2,0,1,1,206.0848658879598,42.93471428571429Z" opacity="1" id="point-0-4"/><path class="data-point" visibility="visible" fill="#69a0c2" data-type="point" transform="translate(0, 0)" d="M266.1662561416626,307.9007142857143A4.2,4.2,0,1,1,274.56625614166256,307.9007142857143A4.2,4.2,0,1,1,266.1662561416626,307.9007142857143Z" opacity="1" id="point-0-5"/><path class="data-point" visibility="visible" fill="#69a0c2" data-type="point" transform="translate(0, 0)" d="M326.2476463953654,315.17999999999995A4.2,4.2,0,1,1,334.64764639536537,315.17999999999995A4.2,4.2,0,1,1,326.2476463953654,315.17999999999995Z" opacity="1" id="point-0-6"/><path class="data-point" visibility="visible" fill="#69a0c2" data-type="point" transform="translate(0, 0)" d="M386.3290366490682,294.79800000000006A4.2,4.2,0,1,1,394.7290366490682,294.79800000000006A4.2,4.2,0,1,1,386.3290366490682,294.79800000000006Z" opacity="1" id="point-0-7"/><path class="data-point" visibility="visible" fill="#69a0c2" data-type="point" transform="translate(0, 0)" d="M446.410426902771,332.65028571428576A4.2,4.2,0,1,1,454.810426902771,332.65028571428576A4.2,4.2,0,1,1,446.410426902771,332.65028571428576Z" opacity="1" id="point-0-8"/><path class="data-point" visibility="visible" fill="#69a0c2" data-type="point" transform="translate(0, 0)" d="M506.4918171564738,315.17999999999995A4.2,4.2,0,1,1,514.8918171564738,315.17999999999995A4.2,4.2,0,1,1,506.4918171564738,315.17999999999995Z" opacity="1" id="point-0-9"/><path class="data-point" visibility="visible" fill="#69a0c2" data-type="point" transform="translate(0, 0)" d="M566.5732074101766,341.3854285714286A4.2,4.2,0,1,1,574.9732074101767,341.3854285714286A4.2,4.2,0,1,1,566.5732074101766,341.3854285714286Z" opacity="1" id="point-0-10"/><path class="data-point" visibility="visible" fill="#69a0c2" data-type="point" transform="translate(0, 0)" d="M626.6545976638793,310.81242857142854A4.2,4.2,0,1,1,635.0545976638793,310.81242857142854A4.2,4.2,0,1,1,626.6545976638793,310.81242857142854Z" opacity="1" id="point-0-11"/><path class="data-point" visibility="visible" fill="#69a0c2" data-type="point" transform="translate(0, 0)" d="M686.7359879175822,300.62142857142857A4.2,4.2,0,1,1,695.1359879175823,300.62142857142857A4.2,4.2,0,1,1,686.7359879175822,300.62142857142857Z" opacity="1" id="point-0-12"/></g><g class="series" transform="translate(39.03385925292969, 0)" clip-path="url(#facet-clip-0)"><path class="data-point" visibility="visible" fill="#fc9366" data-type="point" transform="translate(0, 0)" d="M25.840695126851404,440.38371428571435A4.2,4.2,0,1,1,34.240695126851406,440.38371428571435A4.2,4.2,0,1,1,25.840695126851404,440.38371428571435Z" opacity="1" id="point-1-1"/><path class="data-point" visibility="visible" fill="#fc9366" data-type="point" transform="translate(0, 0)" d="M85.92208538055421,431.6485714285714A4.2,4.2,0,1,1,94.32208538055421,431.6485714285714A4.2,4.2,0,1,1,85.92208538055421,431.6485714285714Z" opacity="1" id="point-1-2"/><path class="data-point" visibility="visible" fill="#fc9366" data-type="point" transform="translate(0, 0)" d="M146.00347563425703,411.2665714285714A4.2,4.2,0,1,1,154.403475634257,411.2665714285714A4.2,4.2,0,1,1,146.00347563425703,411.2665714285714Z" opacity="1" id="point-1-3"/><path class="data-point" visibility="visible" fill="#fc9366" data-type="point" transform="translate(0, 0)" d="M206.0848658879598,427.28100000000006A4.2,4.2,0,1,1,214.48486588795978,427.28100000000006A4.2,4.2,0,1,1,206.0848658879598,427.28100000000006Z" opacity="1" id="point-1-4"/><path class="data-point" visibility="visible" fill="#fc9366" data-type="point" transform="translate(0, 0)" d="M266.1662561416626,347.2088571428571A4.2,4.2,0,1,1,274.56625614166256,347.2088571428571A4.2,4.2,0,1,1,266.1662561416626,347.2088571428571Z" opacity="1" id="point-1-5"/><path class="data-point" visibility="visible" fill="#fc9366" data-type="point" transform="translate(0, 0)" d="M326.2476463953654,326.82685714285714A4.2,4.2,0,1,1,334.64764639536537,326.82685714285714A4.2,4.2,0,1,1,326.2476463953654,326.82685714285714Z" opacity="1" id="point-1-6"/><path class="data-point" visibility="visible" fill="#fc9366" data-type="point" transform="translate(0, 0)" d="M386.3290366490682,342.84128571428573A4.2,4.2,0,1,1,394.7290366490682,342.84128571428573A4.2,4.2,0,1,1,386.3290366490682,342.84128571428573Z" opacity="1" id="point-1-7"/><path class="data-point" visibility="visible" fill="#fc9366" data-type="point" transform="translate(0, 0)" d="M446.410426902771,189.97628571428572A4.2,4.2,0,1,1,454.810426902771,189.97628571428572A4.2,4.2,0,1,1,446.410426902771,189.97628571428572Z" opacity="1" id="point-1-8"/><path class="data-point" visibility="visible" fill="#fc9366" data-type="point" transform="translate(0, 0)" d="M506.4918171564738,291.8862857142857A4.2,4.2,0,1,1,514.8918171564738,291.8862857142857A4.2,4.2,0,1,1,506.4918171564738,291.8862857142857Z" opacity="1" id="point-1-9"/><path class="data-point" visibility="visible" fill="#fc9366" data-type="point" transform="translate(0, 0)" d="M566.5732074101766,307.9007142857143A4.2,4.2,0,1,1,574.9732074101767,307.9007142857143A4.2,4.2,0,1,1,566.5732074101766,307.9007142857143Z" opacity="1" id="point-1-10"/><path class="data-point" visibility="visible" fill="#fc9366" data-type="point" transform="translate(0, 0)" d="M626.6545976638793,328.28271428571423A4.2,4.2,0,1,1,635.0545976638793,328.28271428571423A4.2,4.2,0,1,1,626.6545976638793,328.28271428571423Z" opacity="1" id="point-1-11"/><path class="data-point" visibility="visible" fill="#fc9366" data-type="point" transform="translate(0, 0)" d="M686.7359879175822,220.5492857142857A4.2,4.2,0,1,1,695.1359879175823,220.5492857142857A4.2,4.2,0,1,1,686.7359879175822,220.5492857142857Z" opacity="1" id="point-1-12"/></g></g><g id="lines-secondary"/><g id="data-points-secondary"/><g id="axes-highlights"><g class="axis-highlights-facet"><g class="axis-highlights" style="opacity: 1;" transform="translate(39.03385925292969, 0)"/><defs><pattern id="fl-pattern-diagonal-x" width="4" height="4" patternUnits="userSpaceOnUse"><path d="M 0,4 l 4,-4 M -1,1 l 2,-2 M 3,5 l 2,-2" stroke-width="1" shape-rendering="auto" stroke-linecap="square"/></pattern><pattern id="fl-pattern-dots-x" width="5" height="5" patternUnits="userSpaceOnUse"><circle cx="2.5" cy="2.5" r="1" stroke-width="1" shape-rendering="auto"/></pattern><pattern id="fl-pattern-grid-x" width="4" height="4" patternUnits="userSpaceOnUse"><path d="M 2, 0 l 0, 4" stroke-width="1" shape-rendering="auto" stroke-linecap="square"/><path d="M 0,2 l 4,0" stroke-width="1" shape-rendering="auto" stroke-linecap="square"/></pattern><pattern id="fl-pattern-diagonal-y" width="4" height="4" patternUnits="userSpaceOnUse"><path d="M 0,4 l 4,-4 M -1,1 l 2,-2 M 3,5 l 2,-2" stroke-width="1" shape-rendering="auto" stroke-linecap="square"/></pattern><pattern id="fl-pattern-grid-y" width="4" height="4" patternUnits="userSpaceOnUse"><path d="M 2, 0 l 0, 4" stroke-width="1" shape-rendering="auto" stroke-linecap="square"/><path d="M 0,2 l 4,0" stroke-width="1" shape-rendering="auto" stroke-linecap="square"/></pattern><pattern id="fl-pattern-dots-y" width="5" height="5" patternUnits="userSpaceOnUse"><circle cx="2.5" cy="2.5" r="1" stroke-width="1" shape-rendering="auto"/></pattern></defs></g></g><g id="data-point-labels"><g class="series" transform="translate(39.03385925292969, 0)" clip-path="url(#facet-clip-0)"/><g class="series" transform="translate(39.03385925292969, 0)" clip-path="url(#facet-clip-0)"/></g><g id="stack-labels"/><g class="annotations above"/></svg><svg xmlns="http://www.w3.org/2000/svg" class="flourish-panel-close" viewBox="0 0 40 40" style="width: 1.25rem; height: 1.25rem; position: absolute; right: 1rem; top: 1rem; cursor: pointer; opacity: 0;" x="-31.5" y="14"><path stroke="#333333" stroke-width="0.5rem" stroke-linecap="round" d="M 10,10 L 30,30 M 30,10 L 10,30" style="stroke: rgb(51, 51, 51);"/></svg></svg>