<svg id="graphic" xmlns="http://www.w3.org/2000/svg" viewBox="0 0 378.35 378.32"><defs><style>.cls-1{fill:none;}.cls-2{fill-opacity:0;}.cls-3{fill:#69a0c2;}.cls-4{fill:#c8aaca;}.cls-5{fill:#f4a582;}.cls-6{fill:#b1a59a;}.cls-7{fill:#bcc3ca;}.cls-10,.cls-8,.cls-9{isolation:isolate;}.cls-9{font-size:20px;font-family:Poppins-Light, Poppins;font-weight:300;}.cls-10{font-size:24px;font-family:Poppins-Regular, Poppins;}</style></defs><g id="Group_179" data-name="Group 179"><g id="donut"><g id="Group_53" data-name="Group 53"><g id="Group_52" data-name="Group 52"><g id="Group_51" data-name="Group 51"><rect id="Rectangle_22" data-name="Rectangle 22" class="cls-1" x="-95.26" y="-0.01" width="568.89" height="378.33"/><rect id="Rectangle_23" data-name="Rectangle 23" class="cls-1" x="-95.26" y="-0.01" width="568.89" height="378.33"/><g id="Group_50" data-name="Group 50"><g id="Group_49" data-name="Group 49"><g id="Group_48" data-name="Group 48"><rect id="Rectangle_25" data-name="Rectangle 25" class="cls-1" x="-95.26" y="-0.01" width="568.89" height="378.33"/><rect id="Rectangle_26" data-name="Rectangle 26" class="cls-1" x="-95.26" y="-0.01" width="568.89" height="378.33"/><rect id="Rectangle_27" data-name="Rectangle 27" class="cls-2" x="-95.26" y="-0.01" width="568.89" height="378.33"/></g></g></g></g></g></g><g id="data-points"><g id="Group_54" data-name="Group 54"><path id="point-0-0" class="cls-3" d="M191.11,0a189.15,189.15,0,0,1,153.1,80.76l-62.45,42.73a113.53,113.53,0,0,0-90.65-47.82Z"/><path id="point-0-1" class="cls-4" d="M346.39,83.93A189.16,189.16,0,0,1,375.7,220.72l-74.48-13.39a113.5,113.5,0,0,0-17.29-80.67Z"/><path id="point-0-2" class="cls-5" d="M375,224.51A189.16,189.16,0,0,1,90.88,350.77l40-64.25a113.49,113.49,0,0,0,169.68-75.4Z"/><path id="point-0-3" class="cls-6" d="M87.61,348.73a189.16,189.16,0,0,1-73.42-231.4L83.9,146.78a113.49,113.49,0,0,0,43.69,137.71Z"/><path id="point-0-4" class="cls-7" d="M15.68,113.79A189.17,189.17,0,0,1,187.26,0V75.67A113.51,113.51,0,0,0,85.39,143.23Z"/></g></g></g><g id="_2021" data-name=" 2021" class="cls-8"><text class="cls-9" transform="translate(168.22 194.16)">2021</text></g><g id="_140" data-name=" 140" class="cls-8"><text class="cls-10" transform="translate(91.73 71.02)">140</text></g><g id="_93" data-name=" 93" class="cls-8"><text class="cls-10" transform="translate(324.2 171.66)">93</text></g><g id="_233" data-name=" 233" class="cls-8"><text class="cls-10" transform="translate(229.24 333.66)">233</text></g><g id="_169" data-name=" 169" class="cls-8"><text class="cls-10" transform="translate(33.81 260.34)">169</text></g><g id="_116" data-name=" 116" class="cls-8"><text class="cls-10" transform="translate(241.97 66.34)">116</text></g></g></svg>