<svg xmlns='http://www.w3.org/2000/svg' version='1.1' width='754px' height='565px'><svg xmlns="http://www.w3.org/2000/svg" id="graphic" fill="currentColor" font-family="Source Sans Pro" width="743" height="554" x="10.5" y="10.5"><g class="facets"><g class="fl-facets"><g class="fl-facet" transform="translate(39.03385925292969, 0)" opacity="1"><rect class="fl-facet-rect" width="703.9661407470703" height="519" fill="none"/><rect class="fl-facet-primary-rect" width="703.9661407470703" height="519" y="0" fill="none"/><g class="fl-facet-title"><rect class="fl-facet-title-bg" height="0" width="0" fill="rgb(238, 238, 238)" x="0" opacity="0"/><text class="fl-facet-title-text" font-size="14" font-weight="600" dx="0" dy="14.700000000000001" x="0" opacity="0"/></g><g class="fl-facet-primary" transform="translate(0, 0)"><g class="fl-chart"><rect class="fl-chart-debug-rectangle" x="0" y="0" width="703.9661407470703" height="519" style="stroke-width: 1px; fill: none; display: none; stroke: red;"/><clipPath class="fl-data-clip-path" id="fl-chart-layout-1-clip-path"><rect x="0" y="9.450000000000001" width="688.9766830444336" height="509.55"/></clipPath><clipPath class="fl-grid-clip-path" id="fl-chart-layout-1-grid-clip-path"><rect x="-1.5" y="7.950000000000001" width="691.9766830444336" height="512.55"/></clipPath><g class="fl-chart-background"><rect class="fl-chart-fill" x="0" y="9.450000000000001" width="688.9766830444336" height="509.55" fill="none"/><image class="fl-chart-image" x="0" y="9.450000000000001" width="688.9766830444336" height="509.55" preserveAspectRatio="none"/><rect class="fl-chart-interaction" x="0" y="9.450000000000001" width="688.9766830444336" height="509.55" style="opacity: 0;"/></g><g class="fl-data-background" clip-path="url(#fl-chart-layout-1-clip-path)"/><g class="fl-gridlines" clip-path="url(#fl-chart-layout-1-grid-clip-path)" style="pointer-events: none;"><g class="fl-gridlines-vertical"/><g class="fl-gridlines-horizontal"><line x1="0" x2="688.9766830444336" y1="519" y2="519" style="shape-rendering: crispedges; opacity: 1; stroke: rgb(232, 240, 236); stroke-width: 1.5;"/><line x1="0" x2="688.9766830444336" y1="446.2071428571429" y2="446.2071428571429" style="shape-rendering: crispedges; opacity: 1; stroke: rgb(232, 240, 236); stroke-width: 1.5;"/><line x1="0" x2="688.9766830444336" y1="373.4142857142857" y2="373.4142857142857" style="shape-rendering: crispedges; opacity: 1; stroke: rgb(232, 240, 236); stroke-width: 1.5;"/><line x1="0" x2="688.9766830444336" y1="300.62142857142857" y2="300.62142857142857" style="shape-rendering: crispedges; opacity: 1; stroke: rgb(232, 240, 236); stroke-width: 1.5;"/><line x1="0" x2="688.9766830444336" y1="227.82857142857145" y2="227.82857142857145" style="shape-rendering: crispedges; opacity: 1; stroke: rgb(232, 240, 236); stroke-width: 1.5;"/><line x1="0" x2="688.9766830444336" y1="155.03571428571428" y2="155.03571428571428" style="shape-rendering: crispedges; opacity: 1; stroke: rgb(232, 240, 236); stroke-width: 1.5;"/><line x1="0" x2="688.9766830444336" y1="82.24285714285716" y2="82.24285714285716" style="shape-rendering: crispedges; opacity: 1; stroke: rgb(232, 240, 236); stroke-width: 1.5;"/><line x1="0" x2="688.9766830444336" y1="9.450000000000001" y2="9.450000000000001" style="shape-rendering: crispedges; opacity: 1; stroke: rgb(232, 240, 236); stroke-width: 1.5;"/></g></g><g class="fl-axes"><g class="fl-x-axes"><g class="fl-axis fl-x-axis fl-bottom-axis"><g class="fl-axis-line"><line x1="0" y1="519" y2="519" style="shape-rendering: crispedges; stroke-linecap: square; stroke-width: 1.5; opacity: 1; stroke: rgb(238, 238, 238);" x2="688.9766830444336"/></g><g class="fl-axis-ticks"><g transform="translate(28.707361221313477, 519)" style="opacity: 1;"><line y2="7" style="stroke: rgb(238, 238, 238); stroke-width: 1.5;"/><text text-anchor="end" transform="translate(12.852737426757812,25.088)" style="user-select: none; cursor: default; fill: rgb(0, 0, 0); font-size: 16.8px; font-weight: normal;"><tspan x="0" dy="0">Jan</tspan></text></g><g transform="translate(86.12208557128906, 519)" style="opacity: 1;"><line y2="7" style="stroke: rgb(238, 238, 238); stroke-width: 1.5;"/><text text-anchor="end" transform="translate(12.835945129394531,25.088)" style="user-select: none; cursor: default; fill: rgb(0, 0, 0); font-size: 16.8px; font-weight: normal;"><tspan x="0" dy="0">Feb</tspan></text></g><g transform="translate(143.53680419921875, 519)" style="opacity: 1;"><line y2="7" style="stroke: rgb(238, 238, 238); stroke-width: 1.5;"/><text text-anchor="end" transform="translate(13.247306823730469,25.088)" style="user-select: none; cursor: default; fill: rgb(0, 0, 0); font-size: 16.8px; font-weight: normal;"><tspan x="0" dy="0">Mar</tspan></text></g><g transform="translate(200.9515380859375, 519)" style="opacity: 1;"><line y2="7" style="stroke: rgb(238, 238, 238); stroke-width: 1.5;"/><text text-anchor="end" transform="translate(12.139167785644531,25.088)" style="user-select: none; cursor: default; fill: rgb(0, 0, 0); font-size: 16.8px; font-weight: normal;"><tspan x="0" dy="0">Apr</tspan></text></g><g transform="translate(258.3662414550781, 519)" style="opacity: 1;"><line y2="7" style="stroke: rgb(238, 238, 238); stroke-width: 1.5;"/><text text-anchor="end" transform="translate(14.254707336425781,25.088)" style="user-select: none; cursor: default; fill: rgb(0, 0, 0); font-size: 16.8px; font-weight: normal;"><tspan x="0" dy="0">May</tspan></text></g><g transform="translate(315.7809753417969, 519)" style="opacity: 1;"><line y2="7" style="stroke: rgb(238, 238, 238); stroke-width: 1.5;"/><text text-anchor="end" transform="translate(13.18853759765625,25.088)" style="user-select: none; cursor: default; fill: rgb(0, 0, 0); font-size: 16.8px; font-weight: normal;"><tspan x="0" dy="0">Jun</tspan></text></g><g transform="translate(373.1957092285156, 519)" style="opacity: 1;"><line y2="7" style="stroke: rgb(238, 238, 238); stroke-width: 1.5;"/><text text-anchor="end" transform="translate(10.737197875976562,25.088)" style="user-select: none; cursor: default; fill: rgb(0, 0, 0); font-size: 16.8px; font-weight: normal;"><tspan x="0" dy="0">Jul</tspan></text></g><g transform="translate(430.61041259765625, 519)" style="opacity: 1;"><line y2="7" style="stroke: rgb(238, 238, 238); stroke-width: 1.5;"/><text text-anchor="end" transform="translate(13.314468383789062,25.088)" style="user-select: none; cursor: default; fill: rgb(0, 0, 0); font-size: 16.8px; font-weight: normal;"><tspan x="0" dy="0">Aug</tspan></text></g><g transform="translate(488.025146484375, 519)" style="opacity: 1;"><line y2="7" style="stroke: rgb(238, 238, 238); stroke-width: 1.5;"/><text text-anchor="end" transform="translate(16.00086212158203,25.088)" style="user-select: none; cursor: default; fill: rgb(0, 0, 0); font-size: 16.8px; font-weight: normal;"><tspan x="0" dy="0">Sept</tspan></text></g><g transform="translate(545.4398803710938, 519)" style="opacity: 1;"><line y2="7" style="stroke: rgb(238, 238, 238); stroke-width: 1.5;"/><text text-anchor="end" transform="translate(12.155960083007812,25.088)" style="user-select: none; cursor: default; fill: rgb(0, 0, 0); font-size: 16.8px; font-weight: normal;"><tspan x="0" dy="0">Oct</tspan></text></g><g transform="translate(602.8546142578125, 519)" style="opacity: 1;"><line y2="7" style="stroke: rgb(238, 238, 238); stroke-width: 1.5;"/><text text-anchor="end" transform="translate(13.868537902832031,25.088)" style="user-select: none; cursor: default; fill: rgb(0, 0, 0); font-size: 16.8px; font-weight: normal;"><tspan x="0" dy="0">Nov</tspan></text></g><g transform="translate(660.2693481445312, 519)" style="opacity: 1;"><line y2="7" style="stroke: rgb(238, 238, 238); stroke-width: 1.5;"/><text text-anchor="end" transform="translate(13.154953002929688,25.088)" style="user-select: none; cursor: default; fill: rgb(0, 0, 0); font-size: 16.8px; font-weight: normal;"><tspan x="0" dy="0">Dec</tspan></text></g></g><g class="fl-axis-title"/></g><g class="fl-axis fl-x-axis fl-top-axis"><g class="fl-axis-line"/><g class="fl-axis-ticks"/><g class="fl-axis-title"/></g></g><g class="fl-y-axes"><g class="fl-axis fl-y-axis fl-left-axis"><g class="fl-axis-line"><line x1="0" x2="0" y1="519" y2="9.450000000000001" style="shape-rendering: crispedges; stroke-linecap: square; stroke-width: 1.5; opacity: 1; stroke: rgb(232, 240, 236);"/></g><g class="fl-axis-ticks"><g transform="translate(0, 519)" style="opacity: 1;"><line x2="-7" style="stroke: rgb(232, 240, 236); stroke-width: 1.5;"/><text text-anchor="end" transform="translate(-14,5.5440000000000005)" style="user-select: none; cursor: default; fill: rgb(0, 0, 0); font-size: 16.8px; font-weight: normal;"><tspan x="0" dy="0">0</tspan></text></g><g transform="translate(0, 82.24285888671875)" style="opacity: 1;"><line x2="-7" style="stroke: rgb(232, 240, 236); stroke-width: 1.5;"/><text text-anchor="end" transform="translate(-14,5.5440000000000005)" style="user-select: none; cursor: default; fill: rgb(0, 0, 0); font-size: 16.8px; font-weight: normal;"><tspan x="0" dy="0">300</tspan></text></g><g transform="translate(0, 227.8285675048828)" style="opacity: 1;"><line x2="-7" style="stroke: rgb(232, 240, 236); stroke-width: 1.5;"/><text text-anchor="end" transform="translate(-14,5.5440000000000005)" style="user-select: none; cursor: default; fill: rgb(0, 0, 0); font-size: 16.8px; font-weight: normal;"><tspan x="0" dy="0">200</tspan></text></g><g transform="translate(0, 373.4142761230469)" style="opacity: 1;"><line x2="-7" style="stroke: rgb(232, 240, 236); stroke-width: 1.5;"/><text text-anchor="end" transform="translate(-14,5.5440000000000005)" style="user-select: none; cursor: default; fill: rgb(0, 0, 0); font-size: 16.8px; font-weight: normal;"><tspan x="0" dy="0">100</tspan></text></g><g transform="translate(0, 446.2071533203125)" style="opacity: 1;"><line x2="-7" style="stroke: rgb(232, 240, 236); stroke-width: 1.5;"/><text text-anchor="end" transform="translate(-14,5.5440000000000005)" style="user-select: none; cursor: default; fill: rgb(0, 0, 0); font-size: 16.8px; font-weight: normal;"><tspan x="0" dy="0">50</tspan></text></g><g transform="translate(0,9.450000000000001)" style="opacity: 1;"><line x2="-7" style="stroke: rgb(232, 240, 236); stroke-width: 1.5;"/><text text-anchor="end" transform="translate(-14,5.5440000000000005)" style="user-select: none; cursor: default; fill: rgb(0, 0, 0); font-size: 16.8px; font-weight: normal;"><tspan x="0" dy="0">350</tspan></text></g><g transform="translate(0, 155.0357208251953)" style="opacity: 1;"><line x2="-7" style="stroke: rgb(232, 240, 236); stroke-width: 1.5;"/><text text-anchor="end" transform="translate(-14,5.5440000000000005)" style="user-select: none; cursor: default; fill: rgb(0, 0, 0); font-size: 16.8px; font-weight: normal;"><tspan x="0" dy="0">250</tspan></text></g><g transform="translate(0, 300.6214294433594)" style="opacity: 1;"><line x2="-7" style="stroke: rgb(232, 240, 236); stroke-width: 1.5;"/><text text-anchor="end" transform="translate(-14,5.5440000000000005)" style="user-select: none; cursor: default; fill: rgb(0, 0, 0); font-size: 16.8px; font-weight: normal;"><tspan x="0" dy="0">150</tspan></text></g></g><g class="fl-axis-title"/></g><g class="fl-axis fl-y-axis fl-right-axis"><g class="fl-axis-line"/><g class="fl-axis-ticks"/><g class="fl-axis-title"/></g></g></g><g class="fl-data-foreground" clip-path="url(#fl-chart-layout-1-clip-path)"/></g></g></g></g></g><g class="annotations below"/><g id="areas"/><g id="lines"><g class="series"><clipPath id="clip-0-0"><rect width="688.9766830444336" x="0" y="6.65" height="515.15"/></clipPath><path class="line" opacity="1" pointer-events="none" fill="none" stroke="#69a0c2" stroke-width="2.8000000000000003" transform="translate(39.03385925292969,0)" clip-path="url(#clip-0-0)" clip-path-id="0-0" d="M28.70736179351809,290.43042857142854L86.12208538055421,261.3132857142857L143.53680896759033,304.98900000000003L200.95153255462648,42.93471428571429L258.3662561416626,307.9007142857143L315.78097972869875,315.17999999999995L373.1957033157349,294.79800000000006L430.610426902771,332.65028571428576L488.0251504898071,315.17999999999995L545.4398740768432,341.3854285714286L602.8545976638794,310.81242857142854L660.2693212509155,300.62142857142857"/></g><g class="series"><clipPath id="clip-0-1"><rect width="688.9766830444336" x="0" y="6.65" height="515.15"/></clipPath><path class="line" opacity="1" pointer-events="none" fill="none" stroke="#fc9366" stroke-width="2.8000000000000003" transform="translate(39.03385925292969,0)" clip-path="url(#clip-0-1)" clip-path-id="0-1" d="M28.70736179351809,440.38371428571435L86.12208538055421,431.6485714285714L143.53680896759033,411.2665714285714L200.95153255462648,427.28100000000006L258.3662561416626,347.2088571428571L315.78097972869875,326.82685714285714L373.1957033157349,342.84128571428573L430.610426902771,189.97628571428572L488.0251504898071,291.8862857142857L545.4398740768432,307.9007142857143L602.8545976638794,328.28271428571423L660.2693212509155,220.5492857142857"/></g></g><g id="data-points"><g class="series" transform="translate(39.03385925292969,0)" clip-path="url(#facet-clip-0)"><path class="data-point" visibility="visible" fill="#69a0c2" data-type="point" transform="translate(0, 0)" d="M24.50736179351809,290.43042857142854A4.2,4.2,0,1,1,32.90736179351809,290.43042857142854A4.2,4.2,0,1,1,24.50736179351809,290.43042857142854Z" opacity="1" id="point-0-1"/><path class="data-point" visibility="visible" fill="#69a0c2" data-type="point" transform="translate(0, 0)" d="M81.92208538055421,261.3132857142857A4.2,4.2,0,1,1,90.32208538055421,261.3132857142857A4.2,4.2,0,1,1,81.92208538055421,261.3132857142857Z" opacity="1" id="point-0-2"/><path class="data-point" visibility="visible" fill="#69a0c2" data-type="point" transform="translate(0, 0)" d="M139.33680896759034,304.98900000000003A4.2,4.2,0,1,1,147.73680896759032,304.98900000000003A4.2,4.2,0,1,1,139.33680896759034,304.98900000000003Z" opacity="1" id="point-0-3"/><path class="data-point" visibility="visible" fill="#69a0c2" data-type="point" transform="translate(0, 0)" d="M196.7515325546265,42.93471428571429A4.2,4.2,0,1,1,205.15153255462647,42.93471428571429A4.2,4.2,0,1,1,196.7515325546265,42.93471428571429Z" opacity="1" id="point-0-4"/><path class="data-point" visibility="visible" fill="#69a0c2" data-type="point" transform="translate(0, 0)" d="M254.1662561416626,307.9007142857143A4.2,4.2,0,1,1,262.56625614166256,307.9007142857143A4.2,4.2,0,1,1,254.1662561416626,307.9007142857143Z" opacity="1" id="point-0-5"/><path class="data-point" visibility="visible" fill="#69a0c2" data-type="point" transform="translate(0, 0)" d="M311.58097972869876,315.17999999999995A4.2,4.2,0,1,1,319.98097972869874,315.17999999999995A4.2,4.2,0,1,1,311.58097972869876,315.17999999999995Z" opacity="1" id="point-0-6"/><path class="data-point" visibility="visible" fill="#69a0c2" data-type="point" transform="translate(0, 0)" d="M368.9957033157349,294.79800000000006A4.2,4.2,0,1,1,377.39570331573486,294.79800000000006A4.2,4.2,0,1,1,368.9957033157349,294.79800000000006Z" opacity="1" id="point-0-7"/><path class="data-point" visibility="visible" fill="#69a0c2" data-type="point" transform="translate(0, 0)" d="M426.410426902771,332.65028571428576A4.2,4.2,0,1,1,434.810426902771,332.65028571428576A4.2,4.2,0,1,1,426.410426902771,332.65028571428576Z" opacity="1" id="point-0-8"/><path class="data-point" visibility="visible" fill="#69a0c2" data-type="point" transform="translate(0, 0)" d="M483.82515048980713,315.17999999999995A4.2,4.2,0,1,1,492.2251504898071,315.17999999999995A4.2,4.2,0,1,1,483.82515048980713,315.17999999999995Z" opacity="1" id="point-0-9"/><path class="data-point" visibility="visible" fill="#69a0c2" data-type="point" transform="translate(0, 0)" d="M541.2398740768432,341.3854285714286A4.2,4.2,0,1,1,549.6398740768433,341.3854285714286A4.2,4.2,0,1,1,541.2398740768432,341.3854285714286Z" opacity="1" id="point-0-10"/><path class="data-point" visibility="visible" fill="#69a0c2" data-type="point" transform="translate(0, 0)" d="M598.6545976638794,310.81242857142854A4.2,4.2,0,1,1,607.0545976638795,310.81242857142854A4.2,4.2,0,1,1,598.6545976638794,310.81242857142854Z" opacity="1" id="point-0-11"/><path class="data-point" visibility="visible" fill="#69a0c2" data-type="point" transform="translate(0, 0)" d="M656.0693212509154,300.62142857142857A4.2,4.2,0,1,1,664.4693212509155,300.62142857142857A4.2,4.2,0,1,1,656.0693212509154,300.62142857142857Z" opacity="1" id="point-0-12"/></g><g class="series" transform="translate(39.03385925292969,0)" clip-path="url(#facet-clip-0)"><path class="data-point" visibility="visible" fill="#fc9366" data-type="point" transform="translate(0, 0)" d="M24.50736179351809,440.38371428571435A4.2,4.2,0,1,1,32.90736179351809,440.38371428571435A4.2,4.2,0,1,1,24.50736179351809,440.38371428571435Z" opacity="1" id="point-1-1"/><path class="data-point" visibility="visible" fill="#fc9366" data-type="point" transform="translate(0, 0)" d="M81.92208538055421,431.6485714285714A4.2,4.2,0,1,1,90.32208538055421,431.6485714285714A4.2,4.2,0,1,1,81.92208538055421,431.6485714285714Z" opacity="1" id="point-1-2"/><path class="data-point" visibility="visible" fill="#fc9366" data-type="point" transform="translate(0, 0)" d="M139.33680896759034,411.2665714285714A4.2,4.2,0,1,1,147.73680896759032,411.2665714285714A4.2,4.2,0,1,1,139.33680896759034,411.2665714285714Z" opacity="1" id="point-1-3"/><path class="data-point" visibility="visible" fill="#fc9366" data-type="point" transform="translate(0, 0)" d="M196.7515325546265,427.28100000000006A4.2,4.2,0,1,1,205.15153255462647,427.28100000000006A4.2,4.2,0,1,1,196.7515325546265,427.28100000000006Z" opacity="1" id="point-1-4"/><path class="data-point" visibility="visible" fill="#fc9366" data-type="point" transform="translate(0, 0)" d="M254.1662561416626,347.2088571428571A4.2,4.2,0,1,1,262.56625614166256,347.2088571428571A4.2,4.2,0,1,1,254.1662561416626,347.2088571428571Z" opacity="1" id="point-1-5"/><path class="data-point" visibility="visible" fill="#fc9366" data-type="point" transform="translate(0, 0)" d="M311.58097972869876,326.82685714285714A4.2,4.2,0,1,1,319.98097972869874,326.82685714285714A4.2,4.2,0,1,1,311.58097972869876,326.82685714285714Z" opacity="1" id="point-1-6"/><path class="data-point" visibility="visible" fill="#fc9366" data-type="point" transform="translate(0, 0)" d="M368.9957033157349,342.84128571428573A4.2,4.2,0,1,1,377.39570331573486,342.84128571428573A4.2,4.2,0,1,1,368.9957033157349,342.84128571428573Z" opacity="1" id="point-1-7"/><path class="data-point" visibility="visible" fill="#fc9366" data-type="point" transform="translate(0, 0)" d="M426.410426902771,189.97628571428572A4.2,4.2,0,1,1,434.810426902771,189.97628571428572A4.2,4.2,0,1,1,426.410426902771,189.97628571428572Z" opacity="1" id="point-1-8"/><path class="data-point" visibility="visible" fill="#fc9366" data-type="point" transform="translate(0, 0)" d="M483.82515048980713,291.8862857142857A4.2,4.2,0,1,1,492.2251504898071,291.8862857142857A4.2,4.2,0,1,1,483.82515048980713,291.8862857142857Z" opacity="1" id="point-1-9"/><path class="data-point" visibility="visible" fill="#fc9366" data-type="point" transform="translate(0, 0)" d="M541.2398740768432,307.9007142857143A4.2,4.2,0,1,1,549.6398740768433,307.9007142857143A4.2,4.2,0,1,1,541.2398740768432,307.9007142857143Z" opacity="1" id="point-1-10"/><path class="data-point" visibility="visible" fill="#fc9366" data-type="point" transform="translate(0, 0)" d="M598.6545976638794,328.28271428571423A4.2,4.2,0,1,1,607.0545976638795,328.28271428571423A4.2,4.2,0,1,1,598.6545976638794,328.28271428571423Z" opacity="1" id="point-1-11"/><path class="data-point" visibility="visible" fill="#fc9366" data-type="point" transform="translate(0, 0)" d="M656.0693212509154,220.5492857142857A4.2,4.2,0,1,1,664.4693212509155,220.5492857142857A4.2,4.2,0,1,1,656.0693212509154,220.5492857142857Z" opacity="1" id="point-1-12"/></g></g><g id="lines-secondary"/><g id="data-points-secondary"/><g id="axes-highlights"><g class="axis-highlights-facet"><g class="axis-highlights" style="opacity: 1;" transform="translate(39.03385925292969, 0)"/><defs><pattern id="fl-pattern-diagonal-x" width="4" height="4" patternUnits="userSpaceOnUse"><path d="M 0,4 l 4,-4 M -1,1 l 2,-2 M 3,5 l 2,-2" stroke-width="1" shape-rendering="auto" stroke-linecap="square"/></pattern><pattern id="fl-pattern-dots-x" width="5" height="5" patternUnits="userSpaceOnUse"><circle cx="2.5" cy="2.5" r="1" stroke-width="1" shape-rendering="auto"/></pattern><pattern id="fl-pattern-grid-x" width="4" height="4" patternUnits="userSpaceOnUse"><path d="M 2, 0 l 0, 4" stroke-width="1" shape-rendering="auto" stroke-linecap="square"/><path d="M 0,2 l 4,0" stroke-width="1" shape-rendering="auto" stroke-linecap="square"/></pattern><pattern id="fl-pattern-diagonal-y" width="4" height="4" patternUnits="userSpaceOnUse"><path d="M 0,4 l 4,-4 M -1,1 l 2,-2 M 3,5 l 2,-2" stroke-width="1" shape-rendering="auto" stroke-linecap="square"/></pattern><pattern id="fl-pattern-grid-y" width="4" height="4" patternUnits="userSpaceOnUse"><path d="M 2, 0 l 0, 4" stroke-width="1" shape-rendering="auto" stroke-linecap="square"/><path d="M 0,2 l 4,0" stroke-width="1" shape-rendering="auto" stroke-linecap="square"/></pattern><pattern id="fl-pattern-dots-y" width="5" height="5" patternUnits="userSpaceOnUse"><circle cx="2.5" cy="2.5" r="1" stroke-width="1" shape-rendering="auto"/></pattern></defs></g></g><g id="data-point-labels"><g class="series" transform="translate(39.03385925292969,0)" clip-path="url(#facet-clip-0)"/><g class="series" transform="translate(39.03385925292969,0)" clip-path="url(#facet-clip-0)"/></g><g id="stack-labels"/><g class="annotations above"/></svg><svg xmlns="http://www.w3.org/2000/svg" class="flourish-panel-close" viewBox="0 0 40 40" style="width: 1.25rem; height: 1.25rem; position: absolute; right: 1rem; top: 1rem; cursor: pointer; opacity: 0;" x="-31.5" y="14"><path stroke="#333333" stroke-width="0.5rem" stroke-linecap="round" d="M 10,10 L 30,30 M 30,10 L 10,30" style="stroke: rgb(51, 51, 51);"/></svg></svg>