<svg xmlns='http://www.w3.org/2000/svg' version='1.1' width='754px' height='565px'><svg xmlns="http://www.w3.org/2000/svg" id="graphic" fill="currentColor" font-family="Source Sans Pro" width="743" height="554" x="10.5" y="10.5"><g class="facets"><g class="fl-facets"><g class="fl-facet" transform="translate(30.689239501953125, 0)" opacity="1"><rect class="fl-facet-rect" width="712.3107604980469" height="519.1999988555908" fill="none"/><rect class="fl-facet-primary-rect" width="712.3107604980469" height="519.1999988555908" y="0" fill="none"/><g class="fl-facet-title"><rect class="fl-facet-title-bg" height="0" width="0" fill="rgb(238, 238, 238)" x="0" opacity="0"/><text class="fl-facet-title-text" font-size="14" font-weight="600" dx="0" dy="14.700000000000001" x="0" opacity="0"/></g><g class="fl-facet-primary" transform="translate(0, 0)"><g class="fl-chart"><rect class="fl-chart-debug-rectangle" x="0" y="0" width="712.3107604980469" height="519.1999988555908" style="stroke-width: 1px; fill: none; display: none; stroke: red;"/><clipPath class="fl-data-clip-path" id="fl-chart-layout-1-clip-path"><rect x="0" y="9.360000514984131" width="697.3213027954101" height="509.8399983406067"/></clipPath><clipPath class="fl-grid-clip-path" id="fl-chart-layout-1-grid-clip-path"><rect x="-1.6" y="7.760000514984132" width="700.5213027954102" height="513.0399983406068"/></clipPath><g class="fl-chart-background"><rect class="fl-chart-fill" x="0" y="9.360000514984131" width="697.3213027954101" height="509.8399983406067" fill="none"/><image class="fl-chart-image" x="0" y="9.360000514984131" width="697.3213027954101" height="509.8399983406067" preserveAspectRatio="none"/><rect class="fl-chart-interaction" x="0" y="9.360000514984131" width="697.3213027954101" height="509.8399983406067" style="opacity: 0;"/></g><g class="fl-data-background" clip-path="url(#fl-chart-layout-1-clip-path)"/><g class="fl-gridlines" clip-path="url(#fl-chart-layout-1-grid-clip-path)" style="pointer-events: none;"><g class="fl-gridlines-vertical"/><g class="fl-gridlines-horizontal"><line x1="0" x2="697.3213027954101" y1="519.1999988555908" y2="519.1999988555908" style="shape-rendering: crispedges; opacity: 1; stroke: rgb(232, 240, 236); stroke-width: 1.6;"/><line x1="0" x2="697.3213027954101" y1="476.7133323272069" y2="476.7133323272069" style="shape-rendering: crispedges; opacity: 1; stroke: rgb(232, 240, 236); stroke-width: 1.6;"/><line x1="0" x2="697.3213027954101" y1="434.22666579882303" y2="434.22666579882303" style="shape-rendering: crispedges; opacity: 1; stroke: rgb(232, 240, 236); stroke-width: 1.6;"/><line x1="0" x2="697.3213027954101" y1="391.73999927043917" y2="391.73999927043917" style="shape-rendering: crispedges; opacity: 1; stroke: rgb(232, 240, 236); stroke-width: 1.6;"/><line x1="0" x2="697.3213027954101" y1="349.2533327420553" y2="349.2533327420553" style="shape-rendering: crispedges; opacity: 1; stroke: rgb(232, 240, 236); stroke-width: 1.6;"/><line x1="0" x2="697.3213027954101" y1="306.76666621367133" y2="306.76666621367133" style="shape-rendering: crispedges; opacity: 1; stroke: rgb(232, 240, 236); stroke-width: 1.6;"/><line x1="0" x2="697.3213027954101" y1="264.27999968528746" y2="264.27999968528746" style="shape-rendering: crispedges; opacity: 1; stroke: rgb(232, 240, 236); stroke-width: 1.6;"/><line x1="0" x2="697.3213027954101" y1="221.79333315690357" y2="221.79333315690357" style="shape-rendering: crispedges; opacity: 1; stroke: rgb(232, 240, 236); stroke-width: 1.6;"/><line x1="0" x2="697.3213027954101" y1="179.3066666285197" y2="179.3066666285197" style="shape-rendering: crispedges; opacity: 1; stroke: rgb(232, 240, 236); stroke-width: 1.6;"/><line x1="0" x2="697.3213027954101" y1="136.82000010013581" y2="136.82000010013581" style="shape-rendering: crispedges; opacity: 1; stroke: rgb(232, 240, 236); stroke-width: 1.6;"/><line x1="0" x2="697.3213027954101" y1="94.3333335717519" y2="94.3333335717519" style="shape-rendering: crispedges; opacity: 1; stroke: rgb(232, 240, 236); stroke-width: 1.6;"/><line x1="0" x2="697.3213027954101" y1="51.84666704336804" y2="51.84666704336804" style="shape-rendering: crispedges; opacity: 1; stroke: rgb(232, 240, 236); stroke-width: 1.6;"/><line x1="0" x2="697.3213027954101" y1="9.360000514984131" y2="9.360000514984131" style="shape-rendering: crispedges; opacity: 1; stroke: rgb(232, 240, 236); stroke-width: 1.6;"/></g></g><g class="fl-axes"><g class="fl-x-axes"><g class="fl-axis fl-x-axis fl-bottom-axis"><g class="fl-axis-line"><line x1="0" y1="519.1999988555908" y2="519.1999988555908" style="shape-rendering: crispedges; stroke-linecap: square; stroke-width: 1.6; opacity: 1; stroke: rgb(238, 238, 238);" x2="697.3213027954101"/></g><g class="fl-axis-ticks"><g transform="translate(29.0550537109375, 519.2000122070312)" style="opacity: 1;"><line y2="7" style="stroke: rgb(238, 238, 238); stroke-width: 1.6;"/><text text-anchor="end" transform="translate(12.852737426757812, 25.08799934387207)" style="user-select: none; cursor: default; fill: rgb(0, 0, 0); font-size: 16.8px; font-weight: normal;"><tspan x="0" dy="0">Jan</tspan></text></g><g transform="translate(87.1651611328125, 519.2000122070312)" style="opacity: 1;"><line y2="7" style="stroke: rgb(238, 238, 238); stroke-width: 1.6;"/><text text-anchor="end" transform="translate(12.835945129394531, 25.08799934387207)" style="user-select: none; cursor: default; fill: rgb(0, 0, 0); font-size: 16.8px; font-weight: normal;"><tspan x="0" dy="0">Feb</tspan></text></g><g transform="translate(145.2752685546875, 519.2000122070312)" style="opacity: 1;"><line y2="7" style="stroke: rgb(238, 238, 238); stroke-width: 1.6;"/><text text-anchor="end" transform="translate(13.247306823730469, 25.08799934387207)" style="user-select: none; cursor: default; fill: rgb(0, 0, 0); font-size: 16.8px; font-weight: normal;"><tspan x="0" dy="0">Mar</tspan></text></g><g transform="translate(203.3853759765625, 519.2000122070312)" style="opacity: 1;"><line y2="7" style="stroke: rgb(238, 238, 238); stroke-width: 1.6;"/><text text-anchor="end" transform="translate(12.13916015625, 25.08799934387207)" style="user-select: none; cursor: default; fill: rgb(0, 0, 0); font-size: 16.8px; font-weight: normal;"><tspan x="0" dy="0">Apr</tspan></text></g><g transform="translate(261.4954833984375, 519.2000122070312)" style="opacity: 1;"><line y2="7" style="stroke: rgb(238, 238, 238); stroke-width: 1.6;"/><text text-anchor="end" transform="translate(14.254707336425781, 25.08799934387207)" style="user-select: none; cursor: default; fill: rgb(0, 0, 0); font-size: 16.8px; font-weight: normal;"><tspan x="0" dy="0">May</tspan></text></g><g transform="translate(319.6055908203125, 519.2000122070312)" style="opacity: 1;"><line y2="7" style="stroke: rgb(238, 238, 238); stroke-width: 1.6;"/><text text-anchor="end" transform="translate(13.18853759765625, 25.08799934387207)" style="user-select: none; cursor: default; fill: rgb(0, 0, 0); font-size: 16.8px; font-weight: normal;"><tspan x="0" dy="0">Jun</tspan></text></g><g transform="translate(377.7156982421875, 519.2000122070312)" style="opacity: 1;"><line y2="7" style="stroke: rgb(238, 238, 238); stroke-width: 1.6;"/><text text-anchor="end" transform="translate(10.737197875976562, 25.08799934387207)" style="user-select: none; cursor: default; fill: rgb(0, 0, 0); font-size: 16.8px; font-weight: normal;"><tspan x="0" dy="0">Jul</tspan></text></g><g transform="translate(435.8258056640625, 519.2000122070312)" style="opacity: 1;"><line y2="7" style="stroke: rgb(238, 238, 238); stroke-width: 1.6;"/><text text-anchor="end" transform="translate(13.314468383789062, 25.08799934387207)" style="user-select: none; cursor: default; fill: rgb(0, 0, 0); font-size: 16.8px; font-weight: normal;"><tspan x="0" dy="0">Aug</tspan></text></g><g transform="translate(493.9359130859375, 519.2000122070312)" style="opacity: 1;"><line y2="7" style="stroke: rgb(238, 238, 238); stroke-width: 1.6;"/><text text-anchor="end" transform="translate(16.0008544921875, 25.08799934387207)" style="user-select: none; cursor: default; fill: rgb(0, 0, 0); font-size: 16.8px; font-weight: normal;"><tspan x="0" dy="0">Sept</tspan></text></g><g transform="translate(552.0460205078125, 519.2000122070312)" style="opacity: 1;"><line y2="7" style="stroke: rgb(238, 238, 238); stroke-width: 1.6;"/><text text-anchor="end" transform="translate(12.155960083007812, 25.08799934387207)" style="user-select: none; cursor: default; fill: rgb(0, 0, 0); font-size: 16.8px; font-weight: normal;"><tspan x="0" dy="0">Oct</tspan></text></g><g transform="translate(610.1561279296875, 519.2000122070312)" style="opacity: 1;"><line y2="7" style="stroke: rgb(238, 238, 238); stroke-width: 1.6;"/><text text-anchor="end" transform="translate(13.868537902832031, 25.08799934387207)" style="user-select: none; cursor: default; fill: rgb(0, 0, 0); font-size: 16.8px; font-weight: normal;"><tspan x="0" dy="0">Nov</tspan></text></g><g transform="translate(668.2662353515625, 519.2000122070312)" style="opacity: 1;"><line y2="7" style="stroke: rgb(238, 238, 238); stroke-width: 1.6;"/><text text-anchor="end" transform="translate(13.154953002929688, 25.08799934387207)" style="user-select: none; cursor: default; fill: rgb(0, 0, 0); font-size: 16.8px; font-weight: normal;"><tspan x="0" dy="0">Dec</tspan></text></g></g><g class="fl-axis-title"/></g><g class="fl-axis fl-x-axis fl-top-axis"><g class="fl-axis-line"/><g class="fl-axis-ticks"/><g class="fl-axis-title"/></g></g><g class="fl-y-axes"><g class="fl-axis fl-y-axis fl-left-axis"><g class="fl-axis-line"><line x1="0" x2="0" y1="519.1999988555908" y2="9.360000514984131" style="shape-rendering: crispedges; stroke-linecap: square; stroke-width: 1.6; opacity: 1; stroke: rgb(232, 240, 236);"/></g><g class="fl-axis-ticks"><g transform="translate(0, 519.2000122070312)" style="opacity: 1;"><line x2="-7" style="stroke: rgb(232, 240, 236); stroke-width: 1.6;"/><text text-anchor="end" transform="translate(-14, 5.544000148773193)" style="user-select: none; cursor: default; fill: rgb(0, 0, 0); font-size: 16.8px; font-weight: normal;"><tspan x="0" dy="0">0</tspan></text></g><g transform="translate(0, 9.360000610351562)" style="opacity: 1;"><line x2="-7" style="stroke: rgb(232, 240, 236); stroke-width: 1.6;"/><text text-anchor="end" transform="translate(-14,5.5440000000000005)" style="user-select: none; cursor: default; fill: rgb(0, 0, 0); font-size: 16.8px; font-weight: normal;"><tspan x="0" dy="0">60</tspan></text></g><g transform="translate(0, 94.33333587646484)" style="opacity: 1;"><line x2="-7" style="stroke: rgb(232, 240, 236); stroke-width: 1.6;"/><text text-anchor="end" transform="translate(-14,5.5440000000000005)" style="user-select: none; cursor: default; fill: rgb(0, 0, 0); font-size: 16.8px; font-weight: normal;"><tspan x="0" dy="0">50</tspan></text></g><g transform="translate(0, 179.30667114257812)" style="opacity: 1;"><line x2="-7" style="stroke: rgb(232, 240, 236); stroke-width: 1.6;"/><text text-anchor="end" transform="translate(-14,5.5440000000000005)" style="user-select: none; cursor: default; fill: rgb(0, 0, 0); font-size: 16.8px; font-weight: normal;"><tspan x="0" dy="0">40</tspan></text></g><g transform="translate(0, 264.2799987792969)" style="opacity: 1;"><line x2="-7" style="stroke: rgb(232, 240, 236); stroke-width: 1.6;"/><text text-anchor="end" transform="translate(-14,5.5440000000000005)" style="user-select: none; cursor: default; fill: rgb(0, 0, 0); font-size: 16.8px; font-weight: normal;"><tspan x="0" dy="0">30</tspan></text></g><g transform="translate(0, 349.2533264160156)" style="opacity: 1;"><line x2="-7" style="stroke: rgb(232, 240, 236); stroke-width: 1.6;"/><text text-anchor="end" transform="translate(-14, 5.544000148773193)" style="user-select: none; cursor: default; fill: rgb(0, 0, 0); font-size: 16.8px; font-weight: normal;"><tspan x="0" dy="0">20</tspan></text></g><g transform="translate(0, 434.2266540527344)" style="opacity: 1;"><line x2="-7" style="stroke: rgb(232, 240, 236); stroke-width: 1.6;"/><text text-anchor="end" transform="translate(-14, 5.544000148773193)" style="user-select: none; cursor: default; fill: rgb(0, 0, 0); font-size: 16.8px; font-weight: normal;"><tspan x="0" dy="0">10</tspan></text></g><g transform="translate(0, 476.71331787109375)" style="opacity: 1;"><line x2="-7" style="stroke: rgb(232, 240, 236); stroke-width: 1.6;"/><text text-anchor="end" transform="translate(-14,5.5440000000000005)" style="user-select: none; cursor: default; fill: rgb(0, 0, 0); font-size: 16.8px; font-weight: normal;"><tspan x="0" dy="0">5</tspan></text></g><g transform="translate(0, 51.8466682434082)" style="opacity: 1;"><line x2="-7" style="stroke: rgb(232, 240, 236); stroke-width: 1.6;"/><text text-anchor="end" transform="translate(-14,5.5440000000000005)" style="user-select: none; cursor: default; fill: rgb(0, 0, 0); font-size: 16.8px; font-weight: normal;"><tspan x="0" dy="0">55</tspan></text></g><g transform="translate(0, 136.82000732421875)" style="opacity: 1;"><line x2="-7" style="stroke: rgb(232, 240, 236); stroke-width: 1.6;"/><text text-anchor="end" transform="translate(-14,5.5440000000000005)" style="user-select: none; cursor: default; fill: rgb(0, 0, 0); font-size: 16.8px; font-weight: normal;"><tspan x="0" dy="0">45</tspan></text></g><g transform="translate(0, 221.7933349609375)" style="opacity: 1;"><line x2="-7" style="stroke: rgb(232, 240, 236); stroke-width: 1.6;"/><text text-anchor="end" transform="translate(-14,5.5440000000000005)" style="user-select: none; cursor: default; fill: rgb(0, 0, 0); font-size: 16.8px; font-weight: normal;"><tspan x="0" dy="0">35</tspan></text></g><g transform="translate(0, 306.76666259765625)" style="opacity: 1;"><line x2="-7" style="stroke: rgb(232, 240, 236); stroke-width: 1.6;"/><text text-anchor="end" transform="translate(-14,5.5440000000000005)" style="user-select: none; cursor: default; fill: rgb(0, 0, 0); font-size: 16.8px; font-weight: normal;"><tspan x="0" dy="0">25</tspan></text></g><g transform="translate(0, 391.739990234375)" style="opacity: 1;"><line x2="-7" style="stroke: rgb(232, 240, 236); stroke-width: 1.6;"/><text text-anchor="end" transform="translate(-14,5.5440000000000005)" style="user-select: none; cursor: default; fill: rgb(0, 0, 0); font-size: 16.8px; font-weight: normal;"><tspan x="0" dy="0">15</tspan></text></g></g><g class="fl-axis-title"/></g><g class="fl-axis fl-y-axis fl-right-axis"><g class="fl-axis-line"/><g class="fl-axis-ticks"/><g class="fl-axis-title"/></g></g></g><g class="fl-data-foreground" clip-path="url(#fl-chart-layout-1-clip-path)"/></g></g></g></g></g><g class="annotations below"/><g id="areas"/><g id="lines"><g class="series"><clipPath id="clip-0-0"><rect width="697.3213027954101" x="0" y="6.5600005149841305" height="515.4399983406067"/></clipPath><path class="line" opacity="1" pointer-events="none" fill="none" stroke="#69a0c2" stroke-width="2.8000000000000003" transform="translate(30.689239501953125,0)" clip-path="url(#clip-0-0)" clip-path-id="0-0" d="M29.055054283142113,60.34400034904479L87.16516284942628,221.79333315690357L145.27527141571045,272.7773329909642L203.38537998199465,221.79333315690357L261.4954885482788,230.29066646258036L319.605597114563,230.29066646258036L377.7157056808472,204.79866654555002L435.82581424713135,213.2959998512268L493.9359228134155,179.3066666285197L552.0460313796997,417.2319991874695L610.1561399459839,442.72399910449985L668.266248512268,442.72399910449985"/></g><g class="series"><clipPath id="clip-0-1"><rect width="697.3213027954101" x="0" y="6.5600005149841305" height="515.4399983406067"/></clipPath><path class="line" opacity="1" pointer-events="none" fill="none" stroke="#fc9366" stroke-width="2.8000000000000003" transform="translate(30.689239501953125,0)" clip-path="url(#clip-0-1)" clip-path-id="0-1" d="M29.055054283142113,374.7453326590856L87.16516284942628,332.25866613070167L145.27527141571045,315.26399951934815L203.38537998199465,204.79866654555002L261.4954885482788,247.28533307393394L319.605597114563,230.29066646258036L377.7157056808472,170.80933332284292L435.82581424713135,230.29066646258036L493.9359228134155,306.76666621367133L552.0460313796997,332.25866613070167L610.1561399459839,366.2479993534088L668.266248512268,340.7559994363785"/></g></g><g id="data-points"><g class="series" transform="translate(30.689239501953125,0)" clip-path="url(#facet-clip-0)"><path class="data-point" visibility="visible" fill="#69a0c2" data-type="point" transform="translate(0, 0)" d="M24.855054283142113,60.34400034904479A4.2,4.2,0,1,1,33.255054283142115,60.34400034904479A4.2,4.2,0,1,1,24.855054283142113,60.34400034904479Z" opacity="1" id="point-0-1"/><path class="data-point" visibility="visible" fill="#69a0c2" data-type="point" transform="translate(0, 0)" d="M82.96516284942628,221.79333315690357A4.2,4.2,0,1,1,91.36516284942628,221.79333315690357A4.2,4.2,0,1,1,82.96516284942628,221.79333315690357Z" opacity="1" id="point-0-2"/><path class="data-point" visibility="visible" fill="#69a0c2" data-type="point" transform="translate(0, 0)" d="M141.07527141571046,272.7773329909642A4.2,4.2,0,1,1,149.47527141571044,272.7773329909642A4.2,4.2,0,1,1,141.07527141571046,272.7773329909642Z" opacity="1" id="point-0-3"/><path class="data-point" visibility="visible" fill="#69a0c2" data-type="point" transform="translate(0, 0)" d="M199.18537998199466,221.79333315690357A4.2,4.2,0,1,1,207.58537998199463,221.79333315690357A4.2,4.2,0,1,1,199.18537998199466,221.79333315690357Z" opacity="1" id="point-0-4"/><path class="data-point" visibility="visible" fill="#69a0c2" data-type="point" transform="translate(0, 0)" d="M257.2954885482788,230.29066646258036A4.2,4.2,0,1,1,265.6954885482788,230.29066646258036A4.2,4.2,0,1,1,257.2954885482788,230.29066646258036Z" opacity="1" id="point-0-5"/><path class="data-point" visibility="visible" fill="#69a0c2" data-type="point" transform="translate(0, 0)" d="M315.405597114563,230.29066646258036A4.2,4.2,0,1,1,323.805597114563,230.29066646258036A4.2,4.2,0,1,1,315.405597114563,230.29066646258036Z" opacity="1" id="point-0-6"/><path class="data-point" visibility="visible" fill="#69a0c2" data-type="point" transform="translate(0, 0)" d="M373.5157056808472,204.79866654555002A4.2,4.2,0,1,1,381.91570568084717,204.79866654555002A4.2,4.2,0,1,1,373.5157056808472,204.79866654555002Z" opacity="1" id="point-0-7"/><path class="data-point" visibility="visible" fill="#69a0c2" data-type="point" transform="translate(0, 0)" d="M431.62581424713136,213.2959998512268A4.2,4.2,0,1,1,440.02581424713134,213.2959998512268A4.2,4.2,0,1,1,431.62581424713136,213.2959998512268Z" opacity="1" id="point-0-8"/><path class="data-point" visibility="visible" fill="#69a0c2" data-type="point" transform="translate(0, 0)" d="M489.7359228134155,179.3066666285197A4.2,4.2,0,1,1,498.1359228134155,179.3066666285197A4.2,4.2,0,1,1,489.7359228134155,179.3066666285197Z" opacity="1" id="point-0-9"/><path class="data-point" visibility="visible" fill="#69a0c2" data-type="point" transform="translate(0, 0)" d="M547.8460313796996,417.2319991874695A4.2,4.2,0,1,1,556.2460313796997,417.2319991874695A4.2,4.2,0,1,1,547.8460313796996,417.2319991874695Z" opacity="1" id="point-0-10"/><path class="data-point" visibility="visible" fill="#69a0c2" data-type="point" transform="translate(0, 0)" d="M605.9561399459839,442.72399910449985A4.2,4.2,0,1,1,614.356139945984,442.72399910449985A4.2,4.2,0,1,1,605.9561399459839,442.72399910449985Z" opacity="1" id="point-0-11"/><path class="data-point" visibility="visible" fill="#69a0c2" data-type="point" transform="translate(0, 0)" d="M664.066248512268,442.72399910449985A4.2,4.2,0,1,1,672.4662485122681,442.72399910449985A4.2,4.2,0,1,1,664.066248512268,442.72399910449985Z" opacity="1" id="point-0-12"/></g><g class="series" transform="translate(30.689239501953125,0)" clip-path="url(#facet-clip-0)"><path class="data-point" visibility="visible" fill="#fc9366" data-type="point" transform="translate(0, 0)" d="M24.855054283142113,374.7453326590856A4.2,4.2,0,1,1,33.255054283142115,374.7453326590856A4.2,4.2,0,1,1,24.855054283142113,374.7453326590856Z" opacity="1" id="point-1-1"/><path class="data-point" visibility="visible" fill="#fc9366" data-type="point" transform="translate(0, 0)" d="M82.96516284942628,332.25866613070167A4.2,4.2,0,1,1,91.36516284942628,332.25866613070167A4.2,4.2,0,1,1,82.96516284942628,332.25866613070167Z" opacity="1" id="point-1-2"/><path class="data-point" visibility="visible" fill="#fc9366" data-type="point" transform="translate(0, 0)" d="M141.07527141571046,315.26399951934815A4.2,4.2,0,1,1,149.47527141571044,315.26399951934815A4.2,4.2,0,1,1,141.07527141571046,315.26399951934815Z" opacity="1" id="point-1-3"/><path class="data-point" visibility="visible" fill="#fc9366" data-type="point" transform="translate(0, 0)" d="M199.18537998199466,204.79866654555002A4.2,4.2,0,1,1,207.58537998199463,204.79866654555002A4.2,4.2,0,1,1,199.18537998199466,204.79866654555002Z" opacity="1" id="point-1-4"/><path class="data-point" visibility="visible" fill="#fc9366" data-type="point" transform="translate(0, 0)" d="M257.2954885482788,247.28533307393394A4.2,4.2,0,1,1,265.6954885482788,247.28533307393394A4.2,4.2,0,1,1,257.2954885482788,247.28533307393394Z" opacity="1" id="point-1-5"/><path class="data-point" visibility="visible" fill="#fc9366" data-type="point" transform="translate(0, 0)" d="M315.405597114563,230.29066646258036A4.2,4.2,0,1,1,323.805597114563,230.29066646258036A4.2,4.2,0,1,1,315.405597114563,230.29066646258036Z" opacity="1" id="point-1-6"/><path class="data-point" visibility="visible" fill="#fc9366" data-type="point" transform="translate(0, 0)" d="M373.5157056808472,170.80933332284292A4.2,4.2,0,1,1,381.91570568084717,170.80933332284292A4.2,4.2,0,1,1,373.5157056808472,170.80933332284292Z" opacity="1" id="point-1-7"/><path class="data-point" visibility="visible" fill="#fc9366" data-type="point" transform="translate(0, 0)" d="M431.62581424713136,230.29066646258036A4.2,4.2,0,1,1,440.02581424713134,230.29066646258036A4.2,4.2,0,1,1,431.62581424713136,230.29066646258036Z" opacity="1" id="point-1-8"/><path class="data-point" visibility="visible" fill="#fc9366" data-type="point" transform="translate(0, 0)" d="M489.7359228134155,306.76666621367133A4.2,4.2,0,1,1,498.1359228134155,306.76666621367133A4.2,4.2,0,1,1,489.7359228134155,306.76666621367133Z" opacity="1" id="point-1-9"/><path class="data-point" visibility="visible" fill="#fc9366" data-type="point" transform="translate(0, 0)" d="M547.8460313796996,332.25866613070167A4.2,4.2,0,1,1,556.2460313796997,332.25866613070167A4.2,4.2,0,1,1,547.8460313796996,332.25866613070167Z" opacity="1" id="point-1-10"/><path class="data-point" visibility="visible" fill="#fc9366" data-type="point" transform="translate(0, 0)" d="M605.9561399459839,366.2479993534088A4.2,4.2,0,1,1,614.356139945984,366.2479993534088A4.2,4.2,0,1,1,605.9561399459839,366.2479993534088Z" opacity="1" id="point-1-11"/><path class="data-point" visibility="visible" fill="#fc9366" data-type="point" transform="translate(0, 0)" d="M664.066248512268,340.7559994363785A4.2,4.2,0,1,1,672.4662485122681,340.7559994363785A4.2,4.2,0,1,1,664.066248512268,340.7559994363785Z" opacity="1" id="point-1-12"/></g></g><g id="lines-secondary"/><g id="data-points-secondary"/><g id="axes-highlights"><g class="axis-highlights-facet"><g class="axis-highlights" style="opacity: 1;" transform="translate(30.689239501953125, 0)"/><defs><pattern id="fl-pattern-diagonal-x" width="4" height="4" patternUnits="userSpaceOnUse"><path d="M 0,4 l 4,-4 M -1,1 l 2,-2 M 3,5 l 2,-2" stroke-width="1" shape-rendering="auto" stroke-linecap="square"/></pattern><pattern id="fl-pattern-dots-x" width="5" height="5" patternUnits="userSpaceOnUse"><circle cx="2.5" cy="2.5" r="1" stroke-width="1" shape-rendering="auto"/></pattern><pattern id="fl-pattern-grid-x" width="4" height="4" patternUnits="userSpaceOnUse"><path d="M 2, 0 l 0, 4" stroke-width="1" shape-rendering="auto" stroke-linecap="square"/><path d="M 0,2 l 4,0" stroke-width="1" shape-rendering="auto" stroke-linecap="square"/></pattern><pattern id="fl-pattern-diagonal-y" width="4" height="4" patternUnits="userSpaceOnUse"><path d="M 0,4 l 4,-4 M -1,1 l 2,-2 M 3,5 l 2,-2" stroke-width="1" shape-rendering="auto" stroke-linecap="square"/></pattern><pattern id="fl-pattern-grid-y" width="4" height="4" patternUnits="userSpaceOnUse"><path d="M 2, 0 l 0, 4" stroke-width="1" shape-rendering="auto" stroke-linecap="square"/><path d="M 0,2 l 4,0" stroke-width="1" shape-rendering="auto" stroke-linecap="square"/></pattern><pattern id="fl-pattern-dots-y" width="5" height="5" patternUnits="userSpaceOnUse"><circle cx="2.5" cy="2.5" r="1" stroke-width="1" shape-rendering="auto"/></pattern></defs></g></g><g id="data-point-labels"><g class="series" transform="translate(30.689239501953125,0)" clip-path="url(#facet-clip-0)"/><g class="series" transform="translate(30.689239501953125,0)" clip-path="url(#facet-clip-0)"/></g><g id="stack-labels"/><g class="annotations above"/></svg><svg xmlns="http://www.w3.org/2000/svg" class="flourish-panel-close" viewBox="0 0 40 40" style="width: 1.25rem; height: 1.25rem; position: absolute; right: 1rem; top: 1rem; cursor: pointer; opacity: 0;" x="-31.5" y="14"><path stroke="#333333" stroke-width="0.5rem" stroke-linecap="round" d="M 10,10 L 30,30 M 30,10 L 10,30" style="stroke: rgb(51, 51, 51);"/></svg></svg>