<svg id="Layer_1" data-name="Layer 1" xmlns="http://www.w3.org/2000/svg" xmlns:xlink="http://www.w3.org/1999/xlink" viewBox="0 0 21.65 25.86"><defs><style>.cls-1{fill:none;}.cls-2{clip-path:url(#clip-path);}</style><clipPath id="clip-path" transform="translate(-489.26 -487.25)"><rect class="cls-1" x="485.72" y="487.25" width="29" height="26"/></clipPath></defs><g class="cls-2"><g id="Mask_Group_1" data-name="Mask Group 1"><g id="marker"><path id="Path_82" data-name="Path 82" d="M500.09,487.25a10.84,10.84,0,0,0-10.83,10.83c0,5.72,9.09,13.57,10.13,14.44l.7.59.7-.59c1-.87,10.12-8.72,10.12-14.44A10.84,10.84,0,0,0,500.09,487.25Zm0,16.24a5.42,5.42,0,1,1,5.41-5.41h0A5.41,5.41,0,0,1,500.09,503.49Z" transform="translate(-489.26 -487.25)"/><circle id="Ellipse_9" data-name="Ellipse 9" cx="10.83" cy="10.83" r="3.25"/></g></g></g></svg>