<?xml version="1.0" encoding="utf-8"?>
<!-- Generator: Adobe Illustrator 25.4.8, SVG Export Plug-In . SVG Version: 6.00 Build 0)  -->
<svg version="1.1" id="Ebene_1" xmlns="http://www.w3.org/2000/svg" xmlns:xlink="http://www.w3.org/1999/xlink" x="0px" y="0px"
	 viewBox="0 0 357.8 482.6" style="enable-background:new 0 0 357.8 482.6;" xml:space="preserve">
<style type="text/css">
	.st0{fill:#E8F0EC;stroke:#FFFFFF;stroke-width:0.4;}
	.st1{fill:#E8F0EC;stroke:#000000;stroke-width:0.4;stroke-linecap:round;stroke-linejoin:round;}
	.st2{fill:#FF0000;}
	.st3{enable-background:new    ;}
	.st4{opacity:0.5;enable-background:new    ;}
</style>
<path class="st0" d="M266.3,212.6l1.2-1l0.6-1.4l0,0l0.5,0.4l0.9-0.2l0.6-1.7l2.4-0.4l1.4-1.7l1.1,0.2l1.1,1.4l0.9,0.8l0,0l-0.1,0.3
	l-2.6,0.7l-1.2,1.8l-0.7,0.2l-0.6,0.8l-1.1,0.3v0.4l0.8,0.4l0.1,0.3l-0.2,5.6l-2,0.1h-0.5l-0.5,0.3l-0.6-1.4l0.2-0.6l0.6-0.3v-0.6
	l-1.1-2.8l-1-1.4l0.8,0.4l0.4-0.6l-0.2-0.1l-0.1,0.5l-0.2-0.3L266.3,212.6L266.3,212.6z M278,221.1l1.8,0.3l0.4-0.3l5.7-0.1l0.8,0.3
	l5.6,0.4l17.6-0.4l0.8,0.4h0.3l1.2,0.1l0.5,0.2v1.2l0.3,0.1l-0.2,0.2l1.2,1v1.5l-0.3,0.2l0.1,1l0.4,0.6l-0.2,0.5l0.4,1.4l0.7,1.2
	l0.8,0.4l0.1,1l0.5,0.5l-0.1,0.5l-0.3-0.1l0.2,1.4l0.5,0.9l1,0.5l0.1,0.6l0.7,0.1l-0.3,0.4l0.7,1.1l0.7,0.4l0.3,1.3l1.4,1.3
	l-0.2,0.3l1,1v0.6l0.6,0.2l1.1-0.3l0.8,0.1l0.8-0.4l1.1,0.6h1.2l0.2-0.9l0.7-0.2h3.2l0.1-0.6h2.2l0.4,0.7h5.9l-0.2-1l0.5-1.9
	l-0.3-1.3h0.9l0.7-0.9l-0.4-1.6l0.1-1.6l0.6-1l-0.2-0.5h7.8l0.3-0.8h3l-0.9,2.2v1.4l12.8-0.1l0.6,0.9l0.2,1l-0.1,1.1l-0.9,2.2
	l-0.2,1.9l1,1.6l0.9,2.9l-0.9,3.8l-0.1,3.8l-0.6,1.7l0.9,2.5l0.8,1l0.3-0.1l0.7,1.2l1,0.5l0.4,1.9l1.1,2.3l-0.4,1.1l0.3,0.7l0.1,2
	l-1.5,0.9l0.8,2.2l-0.1,1.7l2-1l0.6-1l2.2,0.5l1.3-0.4l1.6,0.5l1.8-0.3l2.6-1.1l3.8,0.6l1-0.8l0.1-0.4l0.2-0.2h0.1l0.3,1v2.8
	l0.5,1.3l-0.5,0.5l-0.6,1.7l0.3,1.8l-0.4,3.2l0.7,2.2l-1,1.7l-0.7,2.2l1.3,2l-20,0.2l-0.5,29.9l0.6,1h-0.3l0.4,1l0.5,0.1l-0.3,0.7
	l0.6,1.1l1,0.9l0.9,0.1l1.6,2.1l1.9,1.4l0.5,1.1l2.2,1.1l0.9,1.3l0.8,0.4l0.1,0.5l1.3,0.1l0.6,0.5v0.3l0,0l-19.3,3.8l-1.5-0.7H358
	l-3.5,1l-0.7-0.4l-1.7-0.1l-2.2-1.2l-2.9,0.4l-0.8-0.3h-1.5l-0.2,0.3l-1-0.4l-2.4,0.2l-1.7-0.5L337,337l-1.3-0.2l-1.2-0.5l-1.2-1
	l-1.8-2.3l-41.2-0.3l-0.1,0.2l-2.1,0.1l-4.5-2.9l-0.4-1l-1.1-0.4l-0.9,0.2l-1-0.3l-2.7,0.7l-0.6,0.7l-2.4,1.2l-1.5-0.4l-1.7,0.2
	l-0.7-0.7l-0.8-0.1l-1.4,0.4l-1.1,0.8l-0.6-0.2l-0.1-4.4l0.4,0.5l0.1-3.2l-0.5-3.6l0.2-0.8l-0.8-1.5l0.1-0.5l0.5-0.3l0.4,0.2
	l0.5-0.6v-0.5l0.8-0.5l0.4-1.5l0.1-2.2l0.5-0.6h0.4l-0.3-0.7l0.8-2.5l0.6-0.8l0.5-3l0.1-1.2l-0.3-1.1l0.4-0.4l-0.3-0.5l0.8-2
	l0.9-0.2l0.2-2.8l-0.2-1.3l1.1-0.8l0.2-0.8l1-0.6l1.8-2l-0.1-1.6l2.3-2l2.1-0.3l0.7-0.7l0.3-1.2l1.3-1.2l1.4-4.4l-0.2-3l0.6-3.6
	l-0.1-1.6l-1.1-1.8l0.4-0.8l-2.4-2.7l-0.2-1.3l-2-3l0.1-0.9l-1.4-1.9l0.3-0.6l-0.6-2.4l-1.8-2.9v-0.6l0.9-1.4l0.5-0.2l-0.9,0.9
	l-0.3,1.2l0.7-1.2l0.5-0.2l0.5-1.3l0.3-0.3l0.4-0.2l-0.6,0.7l0.9-0.6h0.9l0.3-1l-0.8-1.8l0.4-0.1v-1l-1.2-1.8l-3.7-8.3l-0.6-0.7
	l-0.2-3.5h-0.5l-2.3-2.8L269,224l0.1-0.5l0.4-0.2l-0.1,0.4h0.2l3-0.9h1.7l1.1-0.5l0.6-0.8l1.8-0.4H278z M266.1,325.2l0.1,0.8
	l-0.7-1.4l0.3-0.5L266.1,325.2L266.1,325.2z"/>
<path class="st0" d="M185.1,41.5l-1,1.4l-0.4,1.4l1.7,2.9l0.6,0.3l0.2,2.1l-0.3,1l0.5,0.9l0.4,0.2l0.1,1l-0.7,1.9l-1.2-0.3l-0.8,1.5
	l0.8,1.4l-0.6,0.9l-0.2,1.1l-0.8,1l-0.6-0.1l-1.2,0.5v1.5l-0.9,0.2v0.5l-1.2,1.3l0.1,1.7l-0.8,1.9l-0.9,0.3h-2.1l-0.3,2.6l-0.3,0.2
	l0.1,2.9l-0.5,1.8l0.3,1.3l-0.7,3l0.5,1.1l-0.1,2.1l0.7,1.1l-0.1,0.6l-0.4,0.1l0.1,2.5l-0.3,0.7l0.4,0.6l-0.6,0.6V91l0.5,0.5V92
	l-0.5,0.6l-0.4,2.8l-8,0.7l-2.6,0.5l0.1-0.3l1.5-0.2l-0.3-1.5l-1.6-2.6l0.4-0.7l-0.1-1.2l-0.4-1.3h0.9l0.5-13l-0.2-1l0.5-1.2
	l-0.3-0.7l0.1-5.1l-0.1-0.3l-1.7-2.4l-0.1-1.4l-0.5-0.6l0.4-1.3v-3.6l-5.2-4v-0.1l0.3-3.2l0.8-1l0.4-1.8l0.6,0.1l-0.1-0.7l0.3-0.4
	l1.2,0.5h0.1l-0.5-1.1l0.6-0.4l0.4,0.2l-0.1-0.9l0.2-0.3l1,0.4l0.1-0.7l0.5,0.3l0.1-0.8L164,44l-0.1-0.3l0.5-0.4l1.2,0.2l0.3,0.7
	l2.3-0.5l1.5,0.2h0.1l2.3-1.9l0.3-0.3l0.1-0.1l1.1-2.3l-0.1-0.5l0.7-0.4l0.1-0.1l-0.5-0.5l-0.2-1.8l1.2-0.6h1.6l0.4-0.5l1.4-0.5
	l0.9,1.1l0.6,0.2l2.2,2.6l0.5,1.2l1.8,0.7L185.1,41.5L185.1,41.5z"/>
<path class="st0" d="M345.9,399.3l0.2-24.3h9.4l0.1-0.3l0.4-33.2l4.8-0.2l14.6-2.7l3-0.2l1,1.8l1,0.4l0.5,1l0.2,1l0.3,0.1l1-0.5
	l2-1.7v-0.3l3-1.8l0.8,0.1l0.5-0.7h0.7l0.8,1l0.6-0.1l1.6-1.5l2.2-1l1,0.4l1-0.4l1,0.1l-0.4,0.8l0.3,1.1l1.2,1.3l1.1,2.4l2.3,2.1
	l0.4,1.7l1.2,1l0.2,0.7l-0.2,0.9l1.8,4l1.4,0.4l0.3,0.3l-0.2,0.4l2.2,1.2l0.4,0.6l1.1,0.6l2.9,0.7l0.6,0.5l1,0.2l0.5,1.3l-0.1,2.4
	l3-0.3l1,0.3l-0.2,1.2l0.2,1.1l-0.6,2.9l1.9,2.1l0.8,2.2l3.1,0.4l1.3,0.5l1.4-0.1l2.2,0.9l1.6,0.3l0.1,0.3l-0.5,1l0.2,0.7l0.6,0.4
	h1.3l0.9,0.9H433l-2,0.4l-0.8,0.8v0.6l-0.5,0.6l-0.7,0.1l-0.3,0.4l-2.3,0.7l-0.9,0.1l-1.6,0.2l-1,0.6l-0.5,0.9l-1,0.6l-0.1,0.7
	l-1,0.5l-0.1,0.8l-1.5,0.6l0.1,0.3l-0.4,0.5l-0.5-0.2l-0.5,0.3l-0.4-0.1l-0.6,1.3l-1.2,0.5l-0.1-0.2l-0.5,0.3l-0.1-0.3l-1.5,1v0.3
	h-0.7l0.1,0.4l-0.7,0.3v0.5l-0.5-0.1l-0.5,0.7l-1.5,4.8l-1.4,0.6l-1.6,1.2l-1.3,1.6H404l-3.8,1.1v1.3l-0.5,1.1l-2.6,5.2l-1.2,0.8
	l-2.6,0.5l-1.5-0.2l-1.7,0.7h-1.5l-1.9-0.7l-1.1,0.1l-1.4-1.1l-1.6,0.3l-0.1-0.3l-0.6,0.1l-4.1-3l-2.2-0.1l-1.4,0.5l-0.4-0.2
	l-1.8,1.7l-0.4,1.7l-0.7,0.9l0.2,0.4l-0.5,0.6v0.9l-0.5,0.3l-1.2,1.6H368l-1,0.9l-0.9,0.3l-1.8,2.3l-2.5,0.5l-0.2,1.1l-0.9,0.5
	l-2.1-0.3l-2.8,0.4l-1.9-0.5l-2,0.8l-0.7-1.2l0.2-1.4l-0.2-0.9l0.2-0.6l2-2.5l-0.3-0.5l-0.1-1.5l-0.3-0.6l-0.3,0.1l-0.1-0.8l-0.7-1
	l0.4-0.2l-0.5-0.8l0.3-0.3h-0.5v-0.3l-0.6-0.4l-0.2-0.9l-0.7-0.7l0.1-0.3l-0.7-1.2l-2.4-1.4l-1.2-1.1L345.9,399.3z"/>
<path class="st0" d="M124.1,61.6L124.1,61.6l-0.8,1l-0.4-0.2l-1.5-3.1l-1-0.3l-0.3-1l-0.6-0.2l-0.1-0.7l-0.9,0.7l-0.1-0.6l-2.7-0.3
	l-0.5-0.3l-0.9,0.1l-1.5,0.5l-1.4,0.9l-0.9-0.2l-1.3,0.8l-0.3,1.1l-0.4-0.1l-0.1,0.4l-0.3-0.7l-0.8-0.1v-0.9H107l-0.2,0.5l-0.5-0.3
	l-0.7,0.4l-0.5-0.8h-0.5l-0.1-0.3h0.4l-0.2-0.6l-1.5-0.7l0.1-1.4l-0.9-0.8l0.3-0.2l-0.4-0.5l0.1-0.5l-0.3,0.2l-0.1-0.9v-0.1
	l-1.5-0.3l-1,0.2l-0.8-1l-0.1-0.2L98.5,51l0,0l0.5-1l0.3-1.1l-0.1-0.2l0.5-1.8l-0.3-1.3h-0.2l0.1-1l1.6-0.4l0.7-1.3l0.1-1.4l0.4-0.3
	v-1.7l-0.6-0.5l0.3-1.4l-1.1-0.8h1.3l1.8-1.3l3-0.1l2-1.4l-0.2-0.5l0.9-0.7l0.1-0.5l0.7,0.2l-0.3-1.3l0.7-1L110,29v-0.7l1.1-0.2
	l1,0.2l0.5-1V26l-0.9-1.7l0.2-0.5h0.8l-0.1-0.5l0.8-0.5l0.8-1.2l1.1-0.6v-0.4l0,0l0.5,0.5l-0.6,0.6l1.6,0.5L119,24l0.9,0.1l0.1-1
	l1.9-0.2l-0.1-2.5l0.3-1.2l-0.2-0.4l0.2-0.2l0.6,0.5h0.7l0.5,0.7l1.6-0.4l-0.2-1.5l0.7-2l2.7-2.1l1.3-0.5l2.6,1.4l1.1-0.2l0.6-2.9
	l2.8-0.1l3.4-2.1l2.6-0.7l3.6-2.7h2.3l0.3,0.8l1.8-0.6l4.1,1.7l-0.4,0.9l0.3,0.9l-0.8,1.8l0.1,0.3l0.1,0.4l0.1,0.3l1.7,2l-0.6,1.2
	l0.2,0.9l0.8,1l-0.1,0.5l1.3,1.4l-0.1,0.8l1.6,0.1l0.1,0.5l1.1,0.2l0.8,0.8l0.2,0.8L164,24l-0.8-0.2l-0.3,0.5l-1.6-0.6l-0.2,3.4
	l1.2,0.4l4,3.8l2.6,0.4l0.7-0.9l0.6-0.3l1.3,0.2l0.8,1.1l0.3,1.7L171,34l-0.2,0.4l3,4.6l-1.1,2.3l-0.1,0.1l-0.3,0.3l-2.3,2h-0.1
	l-1.5-0.2l-2.3,0.5l-0.3-0.7l-1.2-0.2l-0.5,0.4l0.1,0.3l-0.6,0.3l-0.1,0.8l-0.5-0.3l-0.1,0.7l-1-0.4l-0.2,0.3l0.1,0.9l-0.4-0.2
	l-0.6,0.4l0.5,1.1H161l-1.2-0.5l-0.3,0.4l0.1,0.7l-0.6-0.1l-2.1-0.2l-1.8,0.5v-0.7L149,46l-1.3-0.3l-0.2,0.6l-0.5,0.3l-0.5-0.4
	l-0.3,0.7l-1.3,0.4l-0.5,0.7l-0.4-0.5l0.1-0.3l-1.4-0.4l-0.7,0.4l-0.3-0.4l-4-0.1l-1.9-0.4l-0.4,0.3l-11.6-0.5l0.1,0.9l-0.4,0.4
	l-0.8,2.3l0.5,1.7l0.8,0.4l-0.7,0.8V53l0.7,0.5l-0.5,0.9l0.4,3.5l-0.6,1l0.5,0.7l-0.3,0.7L124.1,61.6L124.1,61.6z"/>
<path class="st0" d="M389,74h0.5v0.6l0.4,0.5l-1.1,1.4l-0.1,0.7l0.3,0.6l1.8,0.7l1-0.3l0.8,0.6l2.9,0.2l1.2,0.9l0.4,0.9l0.8,0.8h0.1
	l1.2,0.4l0.7,0.2l0.1,0.3l0.5,1.7l-1.1,0.8l0.3,0.8l1.3,0.8l0.5,0.8l4.3,1.9l0.1,0.4l2.3,1.1l0.7,1.7l2.9,1.8l-1,1.9L411,97l1.6,1.1
	v0.5l0.5,0.2l-0.8,1.4l0.6-0.3l0.6,0.7l2.3,0.5l0.4,0.9h0.8l0.2,0.4l0.6-0.1l0.6,0.8l0.9,0.2l1,1.2v0.6l0.4,0.1l-0.4,1.6l0.2,1
	l0.2,0.3l0.3,0.5l0.2,0.4l1.4,1.3l-1.4-0.6l-2.3-0.7l-1.1,0.6l-0.9,1.2H416l-0.7-0.6l-2.4,0.5l-1.1-1l-1.6-0.2l-0.3-0.6l-0.7-0.2
	l-0.4,0.2l0.1,0.3l-0.7,0.2l-0.6-0.4l-0.6,0.6l-0.4-0.5l-0.5,0.2l-0.4-0.7l-0.5,0.1l-2-1.2l-1.8,0.7l-0.5,1.3l0.4,0.4l-0.4,1.1
	l-1.8,0.2l-0.5,0.7l-1.2-0.4l-2.3,0.8l-0.8-0.1l0.2-0.3l-1.6-1.3l-0.5-0.2l-0.3,0.4l-0.4-0.6l-0.4,0.6l0.4,0.3l-1,0.3l-0.4,0.8
	l-0.5-0.3l-0.6,0.6l-0.6-0.2l-1.1,0.7l-0.3-0.1v0.5h-1.3l-2.3,0.9l-1.4,0.8l-0.3,0.7l-1.5-0.4l-1-1l-0.7,0.3l-0.8-0.4l-0.4-0.8
	l-0.8,0.1l-0.5,1.2l-0.7-0.1l-0.6,1l-0.3,1.4l-1,0.2l0.2,1l-1,1.9l-0.9,0.6l-1.2,0.1l-3.1-1.2h-1.4l-1.3-0.5h-1l-1,0.5l-1.7-0.3
	l-0.9-0.6l-0.8,0.4l-1-0.5l-0.4-0.6l-2.1-0.6l-3,0.4l-1.3-1.2v-0.9l-1.2-1.5l-1-0.3l-0.7-0.7l-1.7-1L346,112l-0.7-1l-2.6-0.6
	l-1.6,0.3l-2.1,1.8l-1.1,0.4l-0.7,1.5l-1.9,2.1l-0.8,1.6l-1,0.4l-0.8-0.2l-0.4,0.5l1.1,2.9l-0.5,3.4l0.3,2.4l-0.6-0.1l-1-1.4
	l-0.9,0.6h-1.3l-0.7,1l-1-0.9l-2.4,0.2l-0.5-0.8l-2.1-0.2l-1.3-0.8l-1.3,0.9l-0.8-0.1l-0.6,0.4l-1.9,0.4h-0.1l-0.3,0.1l-1.1-0.2
	l-0.3,0.3l-1.8-0.1l-0.4,0.2l-0.3,0.2l-0.5,1.4l-0.3,1.3l-0.5,0.7l0.3,0.9l-0.5,1.1l0.3,1.2l-3,5.8l-0.1,0.2l-0.9-2.7l0.2-1.9
	l-0.5-0.1l0,0V135v-0.4l0.3-1l-0.2-0.5l-0.4-0.8h-0.5l-0.6-1.2l-1.3-0.1l-6.2-6.6l-0.9-1.3l-0.6-1.4l0.9,0.1l0.8-0.4l-1-0.6L297,119
	l-0.7-1.2l-2.2-1.4l-0.6-0.8L293,110l-0.3-0.6l-1-0.7l1-2.1l-0.3-1.2l0.4-1.3l-0.1-1.3l-0.3-0.6h-1.2l-0.8-1.2l1.5-1.5l1.9-0.7
	l0.5-0.6l1.6-4l1-0.7l1.1-2.8l0.5-0.4l0.4-1.6l2.1-1.4l-0.1-0.5l0.6-0.9l1.9,0.1l0.9,0.6l1.7-0.3l1.2-1l3.3-0.9l0.2-1.1l0.6-0.1
	l1-0.8v0.8l0.6,0.5v0.7l1.3,0.9l0.6,0.4h0.1l0.5-0.2l0.3-0.7l1.6-0.3l0.2-0.3l0.4,0.2l1.5-1.5l1.7-0.8l0.5,0.1l1.8-1l2.2,0.2
	l2.1-0.6l5.2-0.3l0.5-1.3l1.8-1l3.1-4.1l-2.6-1.7l0.2-0.5l1.3-0.9l2.3-0.4l1.2,0.3l5.2-0.5l2.2-1.1l0.5,0.3l0.6-0.3l0.5,0.3l1.8-0.2
	l0.7-0.8l-0.1-0.6l0.5-0.5l1.3,0.2l-0.1-0.4l1.7-0.8l0.1-0.7l1.4-1.2l0.4-1.5l0.9-0.3l0.3-0.8l1.3-1.2h1.2l1.4-2.3l1.4-0.3l0.6-0.6
	l0.3-1.2l-0.5-1.2l0.2-1.1l1.4-0.3l1.4-0.8l0.4-1l1.3,0.2l0.8-1l1.9-0.9l2.4,0.2l1.8,0.5l0.1,0.1v0.2l1.5,2.1l2.9,2.5l3.6,5.8
	l0.3,1.8l-0.7,1.6l0.4,1.1l-0.1,1.5l-0.8,1l-0.8,0.1l-0.4,1.6l0.4,0.6l0.6-0.4l0.3,0.2l-0.1,0.9l-0.7,1l0.2,0.7l0.9-0.2l1.3,0.3
	l0.8-0.2l3.7,0.3L389,74z"/>
<path class="st0" d="M299.2-69.1l9.5-4.5l38,18.9l38,19.8l1.1,37.7l-0.4,0.3L382,2.5l-2.6,0.7L377.1,3l-1.8,1.7v0.6l0.7,1.1
	l-0.1,1.7l-2.9,3.5l0.2,1.7l-2.1,0.6l-1,0.9l0.6,0.7l0.3,1.3l-0.3,0.4l0.1,0.4l1,0.4l0.2,0.8l-3.2,1.9l-1.4,1.8L368,24l0.6,0.6
	l0.7,2.5l-1.2,1.4l-1.7,1l-1.5,3.1l1.3,1.6l1.7-0.1l1-1l2.4,1.3l-0.7,1.5l1.1,3l-0.2,1.4l1.5-0.4l-0.6,4.5l0.5,0.9l1.5,0.8l0.3,0.6
	l1.4,0.1l0.4,1.6l-0.5,2.4l-0.3,0.8l-1.8-0.5l-2.4-0.2l-1.9,0.9l-0.8,1l-1.3-0.2l-0.4,1l-1.4,0.8l-1.4,0.3l-0.2,1.1l0.5,1.2
	l-0.3,1.2l-0.6,0.6l-1.4,0.3l-1.4,2.2h-1.2l-1.2,1.3l-0.3,0.8l-0.9,0.3l-0.4,1.5l-1.4,1.2l-0.1,0.7l-1.7,0.8l0.1,0.4l-1.3-0.2
	l-0.5,0.5l0.1,0.6l-0.7,0.8l-1.8,0.2l-0.5-0.3l-0.6,0.3l-0.5-0.3l-2.3,1l-5.2,0.5l-1.2-0.3l-2.3,0.4l-1.2,0.9l-0.2,0.5l2.6,1.8
	l-3.2,4.1l-1.8,1l-0.5,1.3l-5.2,0.3l-2.1,0.6l-2.2-0.2l-1.8,1l-0.5-0.1l-1.7,0.8l-1.5,1.5l-0.4-0.2l-0.2,0.3l-1.6,0.3l-0.3,0.7
	l-0.5,0.2h-0.1l-0.6-0.4l-1.3-0.9v-0.7l-0.6-0.5V83l-1,0.8l-0.6,0.1l-0.2,1.1l-3.3,0.9l-1.2,1l-1.7,0.3l-0.9-0.6l-1.9-0.1l0.7-1.1
	l0.1-1.7l-1.2-0.5l-0.9-3l-1.6-3.5l-1.3-1.8l-1-0.3l-0.5-1l-1.1-0.4l-4.4-3.7l-0.3-0.8l-3.7-4l0.1-0.1l1.7-2.1l0.6-1.3l2.6-0.2
	l3.3,0.8l1.3-0.4l1.4,0.2l1.2-0.4l2.8,0.6l2.4-0.6l-2-1.5l-1.7-1.9L299,56l-0.8-0.5h-0.1l0.2-0.8l-0.8-1.7l0.1-1.1l-0.4-1l-0.1-1.9
	l0.4-1.3v-1.1l0.8-1.2l-0.6-1.4v-0.1l0.5-1l-0.6-1V41l0.3-0.1l-0.3-1.2l-0.4-0.2l-0.5,0.2l-0.6-0.6l0.1-1.8L296,36l-0.3-0.1
	l-0.1-1.4l-0.1-0.3l-0.5-0.1l-0.3-0.5l-0.2,0.3v-0.7l-1.5-0.5v-0.5l-0.6-0.6l0.2-1l-0.8-1.1h-3.5l-4.5-6.4l-1.4-7.4l0.3-0.4l1.7-0.6
	l-0.1-1l1.2-0.7l-0.1-1.3l0.8-1.7l5.4-7.3l10.9-11.6l3.1-29.8l2.4-4.2l-3.7-4.1l-0.3-1.4l0.6-0.6l-2.8-4.5l-1.1-0.9v-4.8L299.2-69.1
	L299.2-69.1z"/>
<path class="st0" d="M422.3,110.3v0.6l0.9,0.9l1.2,0.3l0.5,0.9l0.6,0.1v0.1l0.3,1.9l0.8,0.4h1.6v0.7l0.4,0.6l0.5-0.2l0.8,1l1.3-0.1
	l0.7,0.7h0.2l0.5-0.3l1.1-0.7l1-0.6l0.5-1l0.6-0.2l0.4,0.7l2-0.1l1.9,1.5l0.5,0.1l0.2-0.5h0.6l0.9-1.1l0.6-1.8l1,0.2l0.6,0.1
	l1.8,0.8l-0.1,1.9l1.4,0.6v0.6l0.6,0.3l0.5,0.8l0.8,0.3l0.7,1.5l3.4,0.8l0.4,1.8l-0.1,0.6v0.3l1.4-0.2l0.5-0.4l0.3,0.7l0.6,0.4v0.7
	l0.6-0.3l0.1,1.3l-1,1.5l-0.6,1.9l1,1.2l0.1,0.8l-1.1,2.7l-0.2,1.5l0.9,0.1l0.7,1l0.6-0.8h0.4l0.9,1.1l1.2-0.2l0.1,0.8l0.9,0.7
	l-0.1,0.5l-2.4,3.4l-3.4,2.9l-2,2.7l-2.4,1.1l-0.2,1.2l-0.7,1.1l-2.1,0.9l-0.3,2.1l0.2,1.2l-1,1.4l-0.4,2l-0.4-0.1l-0.6,1l0.1,0.8
	l-0.9,4.4l0.2,1.2l-0.3,0.4l-0.1,2.7l-0.6,0.7l0.2,4.6l-0.1,0.1l-1.4,1.2l-1,0.1l-2.1,3.3l0.2,2.7l-0.2,0.9l-1,0.8l-1.1,0.8
	l-0.6,0.6v0.3l0.1,1l0.2,0.3l-0.1,0.8l1.4,0.9l-0.5,0.3v0.1l0.5,0.3l0.8,1.3l1,0.9l-0.2,1.2l0.3,1l-0.4,0.7v5.7l1.2,1.9l0.6,3.6v0.1
	l0.1,0.4l-0.1,0.4l-0.2,1.1l-0.6,2.6l2.7,7.8l-0.1,0.8l-1.3,2.2l0.5,2.8l1.7,3.3l3.8,2.6l2,2.5l0.7,1.6l0.6,2.8l2,3.2l0.9,2.6
	l-18.4,3.3l0.4,1l-0.5,1.7l-3,3.3l-2.5,1.8l0.1,0.4l1.4,0.7l0.5,1.6h0.4l-0.3,0.2l0.4,1.5l0.6,0.7l-0.8,1.4v1.7l-0.6,1.1l0.5,0.5
	v2.4l0.6,1.2l-1.5,1.9l-0.8,2.4l-0.1,1.3v0.2l-0.4,1.2l-0.9,1v0.8l1.3,3.3l0.8,0.2l0.9,0.8l0.6,0.1l0.1,0.4l1.8,1.6l0.8,1.6l2.2-0.2
	l2.4,0.8l0.3-0.6l-0.7-0.5l0.3-0.9l1-0.5l0.5,0.3l1.7-0.6l-0.7,12.4v0.1h0.2l-1.5-0.3l-0.1-0.5l0.7-0.9l-0.9-0.5l-3.9,2.1l-0.6-0.5
	l-1.2,0.1l-0.5-0.8l-0.2-1.4l-0.5-0.2l-0.2-0.8l-1.1-1.5l-0.8-0.5l-0.4,0.5h-0.4l-0.6-1.4l0.4-0.7l-0.8-1.4l-1-0.8l-1.3-0.4
	l-0.5,0.3l-0.4-0.5l-1.3-0.1l-0.2-0.6l-0.7-0.4l-1,0.4l-1.2-0.1l-1.1-1.1l-0.9-2.5l-1.8-1.1l-0.5-2.3l-1.5,0.3v1l-0.4,0.5l-0.3,1.6
	l-0.7,0.5l-1.1,0.1l-0.4,0.4l-2.2-0.5l-0.7-0.5l-1.2,0.3l-1.3-0.4h-1.8l-1.3-1l-1.2,0.1l-1-0.7l-1.3,0.5l-0.1-0.6l-1.3-0.7l-0.6-2.4
	l0.3-0.6l-0.2-0.2l0.4-0.2l-0.1-0.9l-1.3,0.5l-4.7,0.8l-1.5,1.2l-0.7,0.2h-0.1l-1.1-0.3l-0.7-0.2l0.1-0.1l0.2-0.2l0.7-0.9l-0.2-1.7
	l-0.8-0.5h-1.7l-0.1-1.2l-1.3-0.4h-0.2l-0.2,0.2l-0.1,0.4l-1,0.8l-3.8-0.6l-2.6,1.1l-1.8,0.3l-1.6-0.5l-1.3,0.4l-2.2-0.5l-0.6,1
	l-2,1l0.1-1.7l-0.8-2.2l1.5-0.9l-0.1-2l-0.3-0.7l0.4-1.1l-1.1-2.4l-0.4-1.9l-1-0.5l-0.7-1.2l-0.3,0.1l-0.8-1l-0.9-2.5l0.6-1.7
	l0.1-3.8l0.9-3.8l-0.9-2.9l-1-1.6l0.2-1.9l0.9-2.2l0.1-1.1l-0.2-1l-0.6-0.9l-12.8,0.1V234l0.9-2.2h-3l-0.3,0.8h-7.8l0.2,0.5l-0.6,1
	l-0.1,1.6l0.4,1.6l-0.7,1h-0.9l0.3,1.3l-0.5,1.9l0.2,1H335l-0.4-0.7h-2.2l-0.1,0.6H329l-0.7,0.2l-0.2,0.9h-1.2l-1.1-0.6l-0.8,0.4
	l-0.8-0.1l-1.1,0.3l-0.6-0.2v-0.6l-1-1l0.2-0.3l-1.4-1.3l-0.3-1.3l-0.7-0.4l-0.7-1.1l0.3-0.4l-0.7-0.1l-0.1-0.6l-1-0.5l-0.5-0.9
	l-0.2-1.4l0.3,0.1l0.1-0.5l-0.5-0.5l-0.1-1l-0.8-0.4l-0.7-1.2l-0.4-1.4l0.2-0.5l-0.4-0.6l-0.1-1l0.3-0.2v-1.5l-1.2-1l0.2-0.2
	l-0.3-0.1v-1.2l-0.5-0.2l-1.2-0.1H311l-0.8-0.4l-17.6,0.4l-5.6-0.4l-0.8-0.3l-5.7,0.1l-0.4,0.3l-1.8-0.3l-2.7-0.5l-1.3,0.5l-0.5,0.6
	l0.1,0.5l-2.7,0.7l0.1-0.7l-0.6,0.2l-1.5-1.8l-0.4-0.7l0.5-0.3h0.5l2-0.1l0.2-5.6l-0.1-0.3l-0.8-0.4V213l1.1-0.3l0.6-0.8l0.7-0.2
	l1.2-1.8l2.6-0.7l0.1-0.3l0,0l0.1-0.4v-0.1l0.1,0.1l0.9,1l1.8,1.1l0.4,0.9l1-0.8l-0.1-0.2l0.4-0.2l0.7,0.3l1.2-0.9v-2.3l1-0.2
	l0.6,0.6l0.8,0.1l0.8-0.8l1.6-0.4l2-1l0.1,0.8l0.8,0.8l-1.2,1.3l0.6,1.4l-0.1,1.9l1.2-0.4l1.5,0.6l1.6-0.8l1-1.7l1.7-1.5l1.1-1.6
	l2.6-1.2l0.8-1.6l3.1-0.9l0.7-0.5l3.2-6l-0.3-0.8l-0.2-3.6l0.5-2.5l-0.5-3.3l0.2-1.2l3.2-2.9l3.2-6.2l1.9-1.7l2.9-0.8l4.5-5
	l-0.3-3.3l1.4-4.4l0.9-1.4V158l-0.6-1.2l0.1-1.4l-0.4-2.8l0.9-1.6l1.2-3.9v-6.2l1.6-3.5l1.6-2.1l1.4-3.6l0.9-0.6l0.3-2l-0.2-1.6
	l-0.3-2.4l0.5-3.4l-1.1-2.9l0.4-0.5l0.8,0.2l1-0.4l0.8-1.6l1.9-2.1l0.7-1.5l1.1-0.4l2.2-1.8l1.6-0.3l2.6,0.6l0.7,1l1.1,0.3l1.7,1
	l0.7,0.7l1,0.3l1.2,1.5v0.9l1.3,1.2l3-0.4l2.1,0.6l0.4,0.6l1,0.5l0.8-0.4l0.9,0.6l1.7,0.3l1-0.5h1.1l1.3,0.5h1.4l3.1,1.2l1.2-0.1
	l0.9-0.6l1-1.9l-0.2-1l1-0.2l0.3-1.4l0.6-1l0.7,0.1l0.4-1.2l0.8-0.1l0.4,0.8l0.8,0.4l0.7-0.3l1,1l1.5,0.4l0.3-0.7l1.4-0.8l2.3-0.9
	h1.3v-0.5l0.3,0.1l1.1-0.7l0.6,0.2l0.6-0.6l0.5,0.3l0.4-0.8l1-0.3l-0.4-0.3l0.4-0.6l0.4,0.6l0.3-0.4l0.5,0.2l1.6,1.3l-0.2,0.3
	l0.8,0.1l2.3-0.8l1.2,0.4l0.5-0.7l1.8-0.2l0.4-1.1l-0.4-0.4l0.5-1.3l1.8-0.7l2,1.2l0.5-0.1l0.4,0.7l0.5-0.2l0.4,0.5l0.6-0.6l0.6,0.4
	l0.7-0.2l-0.1-0.3l0.4-0.2l0.7,0.2l0.3,0.6l1.7,0.3l1.1,1l2.4-0.5l0.7,0.6h0.6l0.9-1.2l1.1-0.6l2.3,0.7l1.4,0.6L422.3,110.3z
	 M275.4,221.2h0.9l-1.9,0.8l-0.6-0.1l0.8-0.7H275.4L275.4,221.2z"/>
<path class="st0" d="M243.9,138.6v0.3l0.1,0.1l1.7,1l13.4,0.2l0.1,11.8l-13.2-0.3l-0.5,0.1l-0.4,0.7l-1.1-0.7l-0.1,0.1l-0.2-0.1
	l-0.1-0.6l0.5-0.1l-1.4-0.3l0.1-0.3l-1.3,0.9l-0.6-0.9l-1.3,0.2l-0.5-0.7l1-1.4l0.2-1l1.5-1.7l0.4,0.2h0.3l0.6-0.3l-0.8,0.2
	l-0.6-0.7l2-2.9l-0.4-1.6l0.2-1.5l-0.2-0.6l0.3-0.3L243.9,138.6L243.9,138.6z M202,175.6l-0.1-0.2l0.1-0.2V175.6L202,175.6z"/>
<path class="st0" d="M279.1,140.4l-0.1,1.2l-0.8,0.5l-0.5,1l0.3,0.7l-0.4,0.7l-0.2,1.7l1.1,1.7l0.1,0.9l-1,0.8l0.4,0.4h0.7l1.3-0.7
	l1.7,0.1l1-0.7l1.1-0.2l0.4-0.6l2.1,0.2l0.5,0.4l1-0.1l1.1,0.6l0.3,2l0.6,0.4l0.5,1.2l0.7,0.6l-0.3,0.4l0.1,0.6l-1.1,1.2l-0.1,0.7
	l-1,0.8H287l-0.3,0.4l0.1,0.6l-1.2,0.9l-0.8,1.6l0.2,1.6l0.4,0.2l-0.1,0.8l-0.9,1.5l0.5,0.6l0.4-0.3l1.8,0.4l0.4,0.6l0.2,1.2
	l1.6-0.1l1.4,1l0.4,0.6l-0.5,1.8l0.1,0.8l-0.6,1.6v0.1l0.8,2l-0.4,1.1l0.6,0.8l-0.5,0.9l0.2,0.5l-1,0.6l0.9,0.8l-0.4,0.5l-0.1,1.6
	l-1,0.6l-0.5,0.2l0,0l-0.1,1.7l-0.9,0.9l0.9,1.3l-0.9,0.4l-0.6,1.1l-2.5-0.4l0.6-1.1l-1.7-2.6l-1.4,2.2l-1.5,1.2l-4.4-1.1l-0.6,0.3
	l0.4-1l-0.6-1l-0.4,0.1l-1-2.8l-1.8-1l-1.1,0.4l-0.4,0.6l-0.6-0.4l0.1,1.6l0.6,0.5l-0.4,2.4l-4,0.8l-1.3-0.9l-1.8,0.8l-1-0.7
	l-0.9-0.2l0.1,1.7l0.5,1.3l-0.9,2.3l1.1-0.3l1.4,1.8l-0.7,0.4l-0.2,1.2l2.6,1.4l0.1,0.3l-0.7,0.8l-0.6,1.6l0.8,0.7l-0.7,0.7
	l-1.5-0.1l-1.2-1.6l-0.9-0.4l-0.7,0.8l-2,1.1l-1,2.4l-0.9-0.8l-0.6-1.7l-3.2-2.4l-0.1-1.4l-2.9-2.8l-4.5-3.5l-2-2.6l0.9,0.6l0.4-0.4
	l0.1,0.7l0.7,0.2l0.2,0.4l0.3-0.1l0.1,0.5l1.8-0.5l-0.2-0.5l-0.6-0.4l0.1,0.7l-0.7-0.6l-0.2,0.6l-0.3-0.5l0.4-0.2l-0.8-0.2l-0.4-0.6
	l-1.2,0.6l-0.3-0.9h-0.3l0.1,0.6l-1.1-0.9l-0.3-1.6l-3-3.2l0.9,0.4l0.2-0.3v0.4l0.9-0.1l-0.1,0.6l0.5,0.2l0.4,0.7l0.2-0.4l-0.7-0.8
	l0.2-0.3l-0.5-0.8l-0.3-0.1v0.4l-0.6-0.7l-0.3,0.7l-0.5-0.6l-0.4,0.1l-0.4-2.6l-2-2.7l-0.3-0.9l0.4,0.8l0.6,0.4l0.8,1.3l1.1,0.7
	l0.2,1.4l0.2-0.4l0.1,0.2l0.9-0.4l0.1,0.6V178h1.4l-0.6-0.3l-0.2-1l-0.3-0.1l-0.8,0.9h-0.9l-0.4-0.8l0.5-0.2l-0.1-0.4l0.5-0.2v-1
	l-0.1,0.9l-0.4-0.1l-0.9,0.5l-0.4-0.8l-0.4,0.1l-0.8-0.5v-1.1l-0.4-0.4v0.7l-0.3-1.2l-1-1.3l0.4,0.3l0.3-0.4l-0.6,0.1l-0.4-0.5
	l-1.4-3.4l0.1-0.2l0.6,0.7l0.7,1.7l0.2-0.8h0.5l-0.3-0.4l0.4,0.1l0.8,1.2l0.1,0.7l0.4-1.6l0.4-0.5l0.3,0.2l-0.1-0.8l2.1-2.7l0.5-3.5
	l-0.6-2.7l0.5-0.7l0.3,0.5l-0.2,1.3l0.6-0.3l0.6,1.1l0.2-0.9l0.6,0.2l0.2,0.6l0.4-0.4l0.8,0.2l1,1.1l-0.5-1l0.6,0.1l0.9-0.7h1.2
	l-0.9-0.3l-1.4,0.3l-1.2-0.5l-1-0.9l-0.7,0.3l-1-2l-0.9-0.6l0.1-0.8l2.2-0.5l0.2,0.6h-0.8l-0.1,0.2h0.5l0.3,0.4l0.3-0.3v0.9l0.4,0.4
	l0.4-1.3l-0.2-2.1l-0.6-1.6l0.3-0.5l0.8-0.4h0.8l0.5,0.9l0.3-0.2l0.1-0.1l1.1,0.7l0.4-0.7l0.5-0.1l13.2,0.3l-0.1-11.8l0.3-1.4
	l3.1-0.2l1.1,0.4l4.4,0.1l1.2-0.3l4.3,0.8l0.6-0.3l2.4,0.2l1.2-0.4l1.2,0.4l0.1,0.8L279.1,140.4z M235.6,168l0.4,0.4v0.8l-0.3,0.2
	l-0.4-0.3l-0.2-0.8l0.6-0.7L235.6,168L235.6,168z"/>
<path class="st0" d="M121.3,105.6l-0.2-1.9l0.4,0.1l0.1-0.3l-0.4-2.3l0,0l-0.8-0.4l-0.7,0.3l-0.3-0.4l0.1-0.6h-0.6l0.1-1.5l-1-3.8
	l-0.4-0.5l-0.6-3.6l0.5-1l-0.2-0.8l0.1-0.4l1.2-2.1l0.6-0.3l0,0l0.7-1.4l-0.1-0.6l0.6-3.1l1.1-2.4l0.4-0.3l0.2-0.9l0.2,0.1l0.8-0.8
	l0.8-0.3l0.1-1.3l1-0.4l-0.7-7.3l-0.3-0.9l-1-0.4l0.2-0.9l1-1.1l-0.1-0.1l-0.4-0.5l0.4-0.6l-0.1-1.2l0,0l-0.7-0.9l0.3-0.7l-0.5-0.7
	l0.6-1l-0.4-3.5l0.5-0.9l-0.7-0.5v-0.4l0.7-0.8l-0.9-0.5l-0.6-1.7l0.8-2.3l0.4-0.4l-0.1-0.9L135,47l0.4-0.3l1.9,0.4l4,0.1l0.3,0.4
	l0.7-0.4l1.4,0.3l-0.1,0.3l0.4,0.5l0.5-0.7l1.3-0.4l0.3-0.7l0.5,0.4l0.5-0.3l0.2-0.6l1.3,0.3l0.4,0.5h0.9l0.4,0.4l-0.6,2.5l-0.5,0.6
	l-0.2,1.2l1.1,0.6l1.3,2l0.9-0.1l0.3,1.1l0.8,0.2l-0.4,0.6l-0.1,1.1l0.4,0.7l-0.5,0.2l0.1,0.9l-0.6,1.8l0.2,1l-0.3,0.1l-0.4-0.4
	l-0.1,0.3l0.1,0.5l0.9,0.2l-1.4,0.1l-0.1,0.4l0.7,0.3l-0.7,0.3v0.4l0.4,0.1l0.6-0.6l0.8-0.1l0.7,0.2v0.4l0.4,0.3l-0.1,1.1l-0.3,0.4
	l0.1,0.7l-0.8,1.6l0.6,1.7l-0.3,0.7h-0.6l-0.1,0.3l-0.4-0.2l0.7,1.7l1.6,1.2l0.8,2l-1.4,0.9l0.1,5.2l-0.3-0.1L154,82l-0.5,0.3
	l-0.2,0.8l0.2,1l0.5,0.3l0.6-0.2l0.2,0.8l-0.5,1.6v1.3l-0.2,0.3l-0.8,0.2l0.5,0.6l-0.3,0.8l1,1.2v1.1l0.9,0.6l-0.2,0.6l0.3,0.8
	l1.3,1.1l0.9,0.1l0.4,1.1l0.6,0.7l0.8,0.1l0.1,0.5l-1.4,1l-1,2L155,101l-3.4-0.4l-1.2,0.2l-3,1.7l-2.9,0.8l-1,1l-1.6,0.4l-1.6,1.2
	l-1.9-0.1l-2.3,1.1l-3.7,0.6l-0.2,0.5l-1.1,0.9l-1.6,0.5l-0.7,0.7l-1.1,0.1l-1.4-1.5l-1-0.4l-7.2-2l1-0.2l0.5,0.3l0.6-0.5
	L121.3,105.6L121.3,105.6z"/>
<path class="st0" d="M54.4,68.1L54.4,68.1h-0.8l-1.7,1.7L51,69.5l-0.5,0.6l-0.2-0.2l1.1-2.4l1.4-1.3l-0.9-1.5l0.2-2.4l-1.3-0.4
	l0.1-0.8l0.5-0.6l0.2-0.8l-0.7-0.8l-0.6-0.1l0.2-0.2L50,56.8l-1.2-2.3l-0.9-0.9l-0.2-1.1l-0.2-0.1l-6-0.5l-0.2,0.7l-2,0.4l-1.1-0.6
	l-1.7,0.4L36.1,53L36,54.2l-0.6,0.5l-0.3,0.8L34.6,56l-0.3,1.2l-0.6,0.7L33,58.6h-1l-0.1,1l-1.6,1.2l-0.8-0.4l-0.8,0.3l-0.1-0.4
	l0.8-0.8l0.7-0.1l-0.9-0.2l0.3-0.7l-0.5,1l-0.3-0.2V58l0.2-0.5l-0.5,0.2l-0.2,0.7L28,58.2l-0.1-0.9l0.4-0.7l-0.6,0.2l-0.4-0.3
	l0.3-1.2L27,55.9l-0.3-0.7l-1.2,0.5l1-1.3l0.1-0.8l0.6-0.6h-0.4l-0.3-0.7l-0.2,0.9l-0.6,0.1l-0.1-0.6l0.7-1.5L25.7,52h-0.8l-0.8-1
	l-0.9-0.7l0.2-0.5l0.4,0.1l-0.6-0.5l0.7-0.8L23,49.2L22.9,50h-0.5l-0.2-0.6l0.5-0.5l-0.1-0.2l-0.8,0.7l-0.1-0.8l-0.2,0.2L20.7,48
	L20,48.1V47l-0.6-1l0.2-0.8l-1.1,0.2l0.1-0.9l0.5-0.3L18.9,44l0.2-0.7l0.4-0.4l0.7-1.6l-1.9,2.3l0.2-0.5L18.3,43l0.7-1.1l-1,1
	l-0.2-0.7l0.4-0.3l0.2-0.7l-0.6,0.5l0.2-0.8l-0.2-0.2l1.4-1.2L19,39.3L18.5,40H18v-0.3l-0.3,0.5L17,39.5v0.7L16.6,40l0.3,0.6
	L16.3,41v1.1l-0.6-0.3l-0.3-0.7l1.2-1.7l1.4-2.9l1.2-1.6h1.6l1.7-0.9l0.5-0.6l2.3,0.5l1.1-0.3l0.2-0.7l0.4,0.6l0.8-0.2l0.4-3l-2-1.5
	l0.3-0.7l0.9-0.5l0.8,0.3l0.4-0.3l0.5-1.6l-0.5-1.3l0.2-0.9l5.3,0.8h0.1v0.1L34,25.6l0.2,0.5l0.6,0.1l0.3-0.7h0.3l1.1,1.1l1,0.2
	l0.4,0.7l1.1-0.2l0.8,0.9l1.5-0.3l0.8-0.5l1,0.4l0.7-0.3l1.4,0.5l2.3-0.3h0.1l0.1,0.1l0.6,0.4L47.8,28l-0.1,0.9l-0.7,1l1.3,1.8
	l0.5,0.3l0.7-0.1l1.5-1.8l0.9-0.1l1.1,1.3V32l0.7,1.4l0.5-0.1l0.9-0.9l0.5-0.6l0.1-0.7h0.6l0.6-0.6l0.2,0.1l0.8-0.5l3.3,1.9l1.3,0.3
	l1-1.4l2.7-0.9l0.3-0.9l-0.8-1V28l1.1-0.3L68,28l1.4,1.1L69,30.8v0.1l0,0l0.1,0.4l0.5,0.2l-0.2,1.2l0.9,0.4l0.1,0.9l-0.7,2.6
	l1.1,0.2l0.5,1.6l0.7,0.3l0.2-0.2l0.1,0.7l1.3,0.6L73.1,40l0.5,0.2l-0.1,0.3l-1,0.1l-0.1,0.5l-1.2,1l0,0l-0.1,0.3l-0.6,1.2v0.1h1.2
	l0.6-0.8l1.2,0.1l0.3,0.3l0.1,1.5l-0.4,1.1l0.2,0.3v2l0.1,0.2l0.4,1H75l0.1,0.7l0.9,0.3l0.2,0.3l0.1,0.5v0.4L76.1,52L76,52.1
	l-0.1,0.1l-0.3,0.4l-1,0.6l-0.3,0.5l0.1,0.3l-0.3,0.2l0.4,1l-0.7,3.3l0.8,1.5l1.7-0.1l-0.7,2.3l0.7,0.2l0.8,1l-1.7,0.7L75.2,66
	l0.1,0.3l1.4,0.4l0.9,1.3l0.1,2.6l-1-0.2l-0.4-1L75.9,70h-0.1L75,69.2l-2.1-0.1l-0.5,0.4l0,0v0.1l-0.2,2l1.6,0.9l0.8-0.2l-0.2,0.8
	l0.5,0.9l-1-0.2l-0.6,1.5l0.2,0.9L72,78.8L70.3,78l-0.7,0.5L69,77.8v-0.7L68,77l-0.4,0.7l-0.1,1.2l-1.3,1.5v0.8l-0.5,0.2h-0.1
	L65.3,81l-1.6,0.9l0.1-0.5l-0.7-0.7l-0.2-0.9h-0.6l-0.4-0.5l-0.5,0.4l-0.2-0.5l-0.4,0.4h-0.1l1.4-2.4l-0.2-0.6l0.2-0.6l-0.7-1.3
	l0.2-1.6l-0.2-0.3L61.2,73v-1.4l-0.4-0.2l0.2-0.8l-0.2-0.5l0.4-0.3l-0.8-0.7l-0.7,0.2l0.3-0.7l-0.5-0.3l-0.2,0.5l-0.4-1.3l-0.3,0.6
	l-1.2,0.1l-1.1,0.6L56,68l-0.3-0.1l-0.2-0.1l-0.7,0.4L54.4,68.1L54.4,68.1z"/>
<path class="st0" d="M28.8,23.7l-0.2,0.9l0.5,1.3l-0.5,1.7l-0.4,0.3l-0.8-0.3l-0.9,0.5l-0.3,0.7l1.9,1.7l-0.4,3l-0.8,0.2l-0.4-0.6
	l-0.2,0.7L25.1,34l-2.3-0.5l-0.5,0.6L20.8,35h-1.6L18,36.6l-1.4,2.9l-1.2,1l0.4-0.7L15.2,40l0.2-0.8l0.6-0.8h0.4l-0.1-0.3l0.2-0.5
	l-1.1,0.8l-1,1.3L14,39.3l0.5-0.4l0.2-1.5l-0.3,0.2l-0.1,0.9l-1-0.3L13,37.7v-1l0.4-0.8H14l0.6-0.6l-0.7,0.5l-0.1-0.2l0.3-0.6h-0.2
	L13,36.1l-0.4,0.1L12.5,36l0.6-1L13,34.6h0.6l-0.1-0.4l0.5,0.1V34l0.5,0.2l-0.3-0.4l0.4-0.3l0.1,0.3H15l-0.3-0.5l0.4,0.1l0.1,0.5
	l0.2-0.7l0.4,0.2v0.3l0.3-0.2l0.2,0.3h-0.5l0.1,0.4l1-0.6l-0.6,0.1l0.2-0.5l-0.3,0.3L16,33.3l0.2-0.5L16,33.1L15.6,33l0.4-0.5
	L15.1,33l0.2-0.7l0.2,0.1L15.2,32l-0.4,0.8V32l-0.5,0.4l0.3,0.4l-0.4,0.3L14,32.6v0.8l-0.3-0.6l0.1,0.7l-0.4-0.2l-0.2,0.5L13,33.3
	l0.4-0.9l-0.5,0.4v-0.5l-0.4,0.3V32l1-1.4l2,0.3l0.9-0.6l0.2,0.2L16.5,31l0.1,0.7l1,0.6l-1-1.2l0.8-0.9L17.2,30l-0.7-0.1l-1.1,0.7
	L13.7,30l-0.6,0.2L12.2,31l-2.1,0.8l0.5-1.1l0.5,0.1l-0.5-0.3l-0.6,1H9.7L9.8,31l-0.3,0.6L9,31.8l0.4-1.4l0.7-0.9l0.7-0.3l0.5,0.4
	l0.1-0.5L11,29.3l-0.1-0.2l-0.7-0.2l-0.7,0.4l-0.2,0.6L8,30.2l-1-0.5l-0.2-0.6l-0.4-0.2l-0.2-1l0.4-0.8h0.5l0.1-0.5L9,25.5l-1.5,0.6
	l-0.7,0.6V26l-0.4,0.8L6,26.7l-0.5,0.4L4.7,26L4,25.2l2.1-0.1l1.7-0.8l4.4,0.5l4.3-2.1L28.8,23.7L28.8,23.7z M8.6,37.2L9,38.5
	l-0.9,0.2l0.5-0.4l-0.3-0.1L8.6,37.2L8.6,37.2z M8.3,37.6V38l-0.4,0.5v-0.7l-0.3-0.3l0.7-0.4V37.6z M7.7,38l-0.1,0.7l-0.7,0.2v-0.3
	l-0.2,0.3l-0.3-0.1L6,38l0.6-0.2L7.3,37l0.3,0.3l-0.1,0.4L7.7,38L7.7,38z M9.5,36.3l0.2,0.1l-0.2,0.8l-0.3,0.1l-0.1-0.5L9.5,36.3z
	 M11.1,36.4L11,37.1l-0.3-0.2l-0.4,0.9L10,37.6l0.3-1L11.1,36.4L11.1,36.4z M6.8,36.9H6.1L6,36.6L6.7,36l0.4,0.2L6.8,36.9L6.8,36.9z
	 M11.3,34.5L11.1,35l-0.4-0.1l0.4-0.5L11.3,34.5L11.3,34.5z M6.4,34.5L6,34.4l0.6-0.5h0.6l-0.5,0.7L6.4,34.5z M6.3,34H5.1v-0.4
	l1.5-0.4L6.3,34z M8.4,34l0.2-0.6l0.6-0.3l0.2,0.3l-0.1,1.3L8.1,35l-0.3-0.5L8.4,34L8.4,34z M13,33.2l-0.1,0.7L12.1,34v0.4l-0.5-0.2
	l1-0.9L13,33.2L13,33.2z M7.6,30.3l1.1-0.2l0.4,0.1l-0.6,1.3l-0.9-0.6L7.6,30.3L7.6,30.3z"/>
<path class="st0" d="M69.7,78.5l0.7-0.5l1.6,0.8l1.3-2.4l-0.2-0.9l0.6-1.5l1,0.2l-0.5-0.9l0.2-0.8l-0.8,0.2l-1.6-1l0.3-1.9v-0.1l0,0
	l0.5-0.4l2.1,0.1l0.8,0.8h0.1l0.4-0.5l0.4,1l1,0.2l-0.2-2.6L76.5,67l-1.4-0.4L75,66.3l0.5-1.8l1.7-0.7l-0.8-1l-0.7-0.2l0.7-2.2
	l-1.7,0.1L74,58.7l0.6-3.2l-0.4-1l0.3-0.2L74.4,54l0.3-0.5l1-0.6l0.3-0.4l0.1-0.1l1.5-0.4l0.6-1.2l1.1-1l1,0.3l0.5-0.4l0.4,1.3
	l0.7-0.1v0.9l2.3,0.6l0.8,0.7l0.5-0.4L85.2,52l0.4-0.9h2.7l0.2-0.7L88,49.8l0.4-1.7l1.1,0.9l0.8,0.2l0.5-0.4l-0.3-0.4l0.1-0.6
	l1.6-0.3v0.7l0.4,0.3L92,49.7l0.6,0.3v0.7L92,52.4l1.2,0.7H94l0.6-0.9l0.5,0.1l0.3-1l2.6-0.7l0.6,0.3l0,0l0.1,0.1l0.1,0.2l0.8,1
	l1-0.2l1.5,0.3v0.1l0.1,0.9l0.3-0.2l-0.1,0.5l0.4,0.5l-0.3,0.2l0.9,0.8l-0.1,1.4l1.5,0.7l0.2,0.6h-0.3l0.1,0.3h0.5l0.5,0.8l0.7-0.4
	l0.5,0.3l0.2-0.5h0.3V59l0.8,0.1l0.3,0.7l0.1-0.4l0.4,0.1l0.4-1.2l1.3-0.8l0.9,0.2L113,57l1.5-0.4l0.9-0.1l0.5,0.3l2.7,0.3l0.1,0.6
	l0.9-0.7l0.1,0.7l0.6,0.2l0.3,1l1,0.3l1.5,3.1l0.4,0.2l0.7-1l0,0l0.1,1.2l-0.4,0.6l0.4,0.5l0.1,0.1l-1,1.1l-0.2,0.9l1,0.4l0.3,0.9
	l0.7,7.3l-1,0.4v1.3l-0.8,0.3l-0.8,0.8l-0.2-0.1l-0.2,0.9l-0.4,0.3l-1.1,2.4L120,84l0.1,0.6l-0.7,1.4l0,0l-0.6,0.3l-1.2,2.1
	l-0.1,0.4l0.2,0.8l-0.5,1l0.6,3.6l0.4,0.5l1,3.8l-0.1,1.5h0.6l-0.1,0.6l0.3,0.4l0.7-0.3l0.8,0.4l0,0l0.4,2.3l-0.1,0.3l-0.4-0.1
	l0.2,1.9l-1.7-0.2v0.4l-0.3,0.2l-0.8-0.5l-0.7,0.1l-0.6-0.8l0.8-1l-0.2-0.4l-1.1,0.2l0.1,0.4l-0.4,0.4l0.4,0.2l-0.8,0.3l0.4,0.5
	l-0.3,0.3l-3.7-0.8l-0.1-0.5l-0.3,0.5l-0.7-0.1l-1.6-0.8l0.4,0.1l0.3-0.2l0.3,0.3v-0.3l1.2,0.5l-0.1-0.2h0.5l0.1-0.2l-0.4-0.9
	l-0.4-0.1l0.5,1.1l-1.4-0.5l-0.1-0.4l-0.2,0.3h-0.8l0.6,0.2l-0.5,0.2l-1.3-0.4l-1.1,0.2l-0.3-0.3h-0.4l-0.3,0.4l-1-0.3l-0.2,0.2
	l0.3,0.2l-0.8-0.1l-0.2-0.3v0.3l-1.2,0.3l-0.2-0.2h0.4v-0.6l-0.7,0.4l0.2,0.2l-0.8,0.7l0.6,0.1l0.4-0.4l1.3,0.2l0.2-0.1l-0.3-0.2
	l0.4-0.1l1.1,0.1l0.2-0.3l1.9-0.2h1.2l0.6,0.6l-5.8,0.2l-2.6,0.4l-0.8-0.1l-0.2-0.8l-1,0.3l-0.4-0.3l-1.5-0.3l-0.2,0.3l0.4,0.1h-0.4
	l-0.2,0.6l-0.4-0.5v0.4l0.4,0.2l0.4,0.1l0.4-0.1l-0.6-0.2l0.5-0.3l0.9,0.2l-0.4-0.4l1,0.4l0.8-0.1l0.3,0.6l-4.6,0.1l-0.5-0.2
	l-0.3,0.2l0.3,0.1l-0.8,0.2l-2,0.2l-7.2,2.7l-2.6,0.5l-1.5,1.2l-1.6,0.4l-2.1,1.4l-1-0.3h-0.1v-0.1l0.1-3.5l-0.3-1V106l0.5-0.1
	l-0.2-1.6l0.6-0.2l0.3-0.5l0.2-1.2l0.3-0.2l0.2,0.3l0.3-0.6l-0.5-1.1l0.3-1h0.2l-0.2-0.4l0.3-0.1L78,97.6l0.1-1.2l-0.3-0.2l-0.2,0.5
	l-0.3-0.6L77,96.3l-1-1.1l-0.3,0.4L75.1,95v-1.2l-0.5-0.1l0.2-1.2l-0.6-0.8l-1.1-0.4L72,91.7l-1.6-1l-0.5,0.2v-1.1l-0.4-0.4L69.2,90
	l-0.5-0.6L68,89.2l2.6-2.7l0.1-0.2l0.3-1.7l0.3-0.5v-0.4l-0.4-1.8L70.6,81l-0.3-2L69.7,78.5L69.7,78.5z M118,106.2l-1.5-0.3l0.4-0.4
	l1.1,0.6V106.2L118,106.2z"/>
<path class="st0" d="M42.8,83.4l0.4-0.2l0.5-1.3l0.3-0.1l-0.1-0.6l0.5-0.7l0.9-0.3l0.9-1.1l2.3-1.5l1.4-1.7l1.1-0.6l0.2-2.7l0.8-0.9
	l1.3-0.1l0.6-0.4v-0.9l0.6-2.1l0.4,0.1l0.7-0.4l0.2,0.1l0.3,0.1l0.2,0.9l1.1-0.6l1.2-0.1l0.3-0.6l0.4,1.3l0.2-0.5l0.5,0.3l-0.3,0.7
	l0.7-0.2l0.8,0.7l-0.4,0.3l0.2,0.5l-0.2,0.8l0.4,0.2v1.4l0.2-0.2l0.2,0.3l-0.2,1.6l0.7,1.3l-0.2,0.6l0.2,0.6l-1.4,2.4h0.1l0.4-0.4
	l0.2,0.5l0.5-0.4l0.4,0.5H63l0.2,0.8l0.7,0.7L63.8,82l1.6-0.9l0.3,0.4h0.1l0.5-0.2v-0.8l1.3-1.5l0.1-1.2l0.4-0.8l1.1,0.1v0.7
	l0.7,0.7l0.5,0.6l0.2,2l0.3,0.9l0.4,1.8v0.4L71,84.8l-0.2,1.7l-0.1,0.2L68,89.3l0.6,0.1l0.5,0.6l0.3-0.6l0.4,0.4V91l0.5-0.2l1.6,1
	l1.3-0.2l1.1,0.4l0.6,0.8L74.7,94l0.5,0.1l0.2,1.2l0.6,0.6l0.3-0.4l1,1.1l0.3-0.2l0.3,0.6l0.2-0.5l0.3,0.2l-0.1,1.1l0.5,1.7
	l-0.3,0.1l0.2,0.4h-0.2l-0.3,1l0.5,1.1l-0.3,0.6l-0.2-0.3l-0.3,0.2l-0.2,1.2l-0.3,0.5l-0.6,0.2l0.2,1.6l-0.5,0.1v0.8l0.3,1l-0.1,3.5
	v0.1h0.1l0.2,0.2l-1.6-0.2l-2-1.6l-2.8-0.9l-0.4-0.5l-7-4.5l-2.2-2l-1-1.2l-0.3-0.8l-0.8-0.4v-0.6l-3.3-3.3L55,95.1l-0.1-0.5
	l-2.5-2.1V92h0.2l-1-0.8h-0.2l0.6,0.5V92l-3.5-1.9l-0.2-0.2l0.3,0.1l-0.2-0.5l0.3-0.4l-0.4,0.1L47.5,88l-3.9-2.3l-0.2-1.4L42.8,83.4
	L42.8,83.4z"/>
<path class="st0" d="M76,52.3L76,52.3l0.3-0.5v-0.4l-0.1-0.5L76,50.6l-0.9-0.3L75,49.6h-0.8l-0.4-1l-0.1-0.2v-2l-0.2-0.3l0.4-1.1
	l-0.1-1.5l-0.4-0.4h-1.2l-0.6,0.8h-1.2v-0.1l0.6-1.2l0.1-0.3l0,0l1.2-1l0.1-0.5l1-0.1l0.1-0.3L73,40.3l0.5-0.2l-1.3-0.6l-0.1-0.7
	L71.9,39l-0.7-0.3L70.7,37l-1.1-0.2l0.7-2.6l-0.1-0.9l-0.9-0.4l0.2-1.2L69,31.4V31l0,0v-0.1l0.3-1.3l-1.4-1.1l-1.2-0.3l-1.1,0.3v0.1
	l0.8,1l-0.3,0.9l-2.7,0.9l-1,1.4l-1.3-0.3l-3.3-1.9L57,30.9l-0.2-0.1l-0.6,0.6h-0.6L55.5,32L55,32.6l-0.9,0.9l-0.5,0.1l-0.7-1.4
	l0.1-0.7l-1.1-1.3H51L49.6,32l-0.7,0.1l-0.5-0.3l-1.2-1.9l0.7-1L48,28l0.5-0.1l0.2-1L48,26.2l0.3-0.3L48,25l0.6-0.6l-0.1-1.1
	l0.1-0.8l0.3-0.1V22l0,0l-0.4,0.2l0.2-0.5L48.6,21L48,20.5l-0.2-1.1L48,19l-0.4-1l-1-0.5l-0.9,1l-0.5-0.7l0.2-0.9l-0.9-1.1L44,14.3
	l0.8-0.4l0.5-0.8l0.1-0.8L45,11.5l0.5-1.8l-0.3-1l-0.6-0.5l0.1-0.4l-0.8-0.4V6l0.8-1.2L44,3.4h1L45.3,4l2.3-1.5l0.2-1.3L47.5,1
	l0.3-1.3l1.5-3.6l1,0.1l0.9-0.6v-0.3l0.9,0.5l0.7,1.6l1.9,2l1,1.6l1-1.8l0.8-0.5l0.3-0.9L61.2-2l2.1,0.9l2,0.1l1.5-0.5H69V-3l1-1
	l0.2,0.4L69.8-2l33.8,1.9l2.4-8.2l-2.2-2.3l1.6-42.2l2.9-41.4l14.9,0.8l0.4,0.4l46.3,39.7l0.2,1.1l-0.5,2.5l1.3,0.1l0.5,0.8l1.7,0.7
	l0.7,0.8v1.2l1,1l0.7,0.1l0.3,0.6l0.6-0.2l1,0.5l1.2-0.6l1,1l0.6,1.2l4.9,1.2l2.2,1.3l-0.2,2.6l0.4,1.7l-0.7,0.6l-1,1.9l1.6,1.5
	l0.2,0.1h0.4l8.2-1.4l-1.6,21.4l-0.4,0.3L194-9.9l-0.3,4l-1.2,1.1l-1,2.1v1l-0.8,0.8l-0.4,1.7V1h-0.1l-1.7,0.7L186.9,3l-0.3,1.4
	l-4.4-0.9l-0.4,0.9H166l-2.9,2.2l-0.7,0.6h-0.1l-2.8,0.4L158.1,7l-1.5,0.2L155.4,7l-0.1,0.8l-4.1-1.7l-1.8,0.6l-0.3-0.8l-2.3-0.1
	l-3.6,2.7l-2.6,0.7l-3.4,2.1l-2.8,0.1l-0.6,2.9l-1.1,0.2L130,13l-1.3,0.5l-2.7,2.1l-0.7,2l0.2,1.5l-1.6,0.4l-0.5-0.7h-0.7l-0.6-0.5
	l-0.2,0.2l0.2,0.4l-0.3,1.2l0.1,2.5l-1.9,0.2l-0.1,1l-0.9-0.1l-2.2-1.8l-1.6-0.5l0.6-0.6l-0.5-0.5l0,0v0.4l-1.1,0.6l-0.8,1.2
	l-0.8,0.5l0.1,0.5h-0.8l-0.2,0.5l0.9,1.7V27l-0.5,1l-1-0.2L110,28v0.7l0.8,1.2l-0.7,1l0.3,1.3l-0.7-0.2l-0.1,0.5l-0.9,0.7l0.2,0.5
	l-2,1.4l-3,0.1l-1.8,1.3h-1.3l1.1,0.8l-0.3,1.4l0.6,0.5v1.6l-0.4,0.3l-0.1,1.4l-0.7,1.3l-1.6,0.4l-0.1,1h0.2l0.3,1.3l-0.5,1.8
	l0.1,0.2L99,49.7l-0.5,1.1L98,50.5l-2.7,0.6l-0.3,1L94.5,52l-0.6,0.9h-0.8l-1.2-0.7l0.7-1.7v-0.7L92,49.6l0.6-1.1l-0.4-0.3v-0.7
	l-1.6,0.3l-0.1,0.6l0.3,0.4l-0.5,0.4L89.5,49l-1.1-0.9L88,49.6l0.4,0.6L88.2,51h-2.7l-0.4,0.9l0.3,0.7L84.8,53L84,52.3l-2.3-0.6
	v-0.9L81,50.9l-0.4-1.3L80.1,50l-1-0.3l-1.1,1l-0.6,1.2L76,52.3L76,52.3z"/>
<path class="st0" d="M123-93.6l-14.8-0.8L105.3-53l-1.6,42.2l2.2,2.3l-2.3,8.1L69.7-2.2L70-3.8l-0.2-0.4l-1,1v1.5h-2.1l-1.5,0.5
	l-2-0.1l-2.1-0.9l-3.5-0.2l-0.3,0.9L56.5-1l-1,1.8l-0.9-1.7l-1.9-2L52-4.5L51.1-5v0.3l-0.9,0.6l-1-0.1l-1.5,3.6l-0.3,1.3l0.4,0.2
	l-0.2,1.3L45.2,4l-0.5-0.5h-1l-0.1-0.1l-0.8-0.7L42.3,2l-0.2-1.1l-1-0.9l-0.8-0.1l-0.5-0.5v-0.7L39-1.7L39.6-2L39-2.9l-0.2-1.5
	l-1,0.1l-0.1-1l-1-0.3L37-6.5l-0.4-0.6v-1.6l-0.8-1.8h-0.5l0.2-0.6l-1.6,0.4L33.5-11v-0.5l-1,0.6l-0.3-0.8l-0.6-0.4v-1.1l-3-3.5
	l-0.8,0.2l-3.4-0.3l-0.3-0.6l-0.6,0.5L23-17.2v0.7l-0.3,0.1l-2.4,0.2L20-16.6l-0.6,0.5h-0.7l-0.6,0.4l-1.8-0.5L15-16.1l-0.5-0.6
	l-1.3,0.3l-0.5,0.6L12-13.7l-0.7,0.5l-0.2,0.7l-1.1,3l1-5.2l0.8-1.6l0.3-1.5l1.4-2.9l1.9-3.1l1.2-2.8l1.2-4.1l0.2-1.8l0.4-3.4
	l-0.3-1.5l0.1-3.6l-0.3-1.5l-0.5-1l-0.7-0.4L16.4-45l1.5-0.2l0.8-1.1l-0.1-0.2l-0.8,0.7l0.4-0.7l-1,1.2l0.6-1.3l2-2.3l0.1-1.1
	l-0.5,0.1l0.9-1v-1.3l0.5-0.4l0.2-0.6L20-55l-0.2-2.3l-0.3-0.1l0.5-0.2h-0.6l-0.2-0.7l-0.5,1.7L18-57.7l0.1-0.6l-1-4.3l-1,1.2
	l-0.1,1l-0.4,0.2l0.1,0.5l-0.4,0.8l0.1-1.4l0.7-1.5l1.2-2.7l31,2.5L50-73.4v-1.9l0.3-1.3l1.5-1.8l1.7-1l1.1-0.6l1-0.6l1.5-0.3
	l0.7-0.1l2.3-0.9l0.7-0.3l5.5-24.4l26.6,1.7l2.8-12.2L122.4-94L123-93.6L123-93.6z M19.5-56.7l-0.2-0.2l0.2-0.2l0.1,0.1L19.5-56.7
	L19.5-56.7z M19-49.5l-0.5,1.3l-0.8,1.1l-0.1-0.8l0.5-1L19-49.5L19-49.5z M17.5-47.9l-0.1-0.2l0.2-0.2v0.1L17.5-47.9L17.5-47.9z
	 M18-47l0.4-0.7l0.5-0.5v0.1L18-47L18-47z"/>
<path class="st0" d="M314.2,431.8l-0.4,0.3l-0.9-0.5l-2.8-2.5l-2.7-2l-0.6-0.7l-0.1-0.6l-1.3-1.2l-0.1-0.8l-2.1-2.6l-0.7-3.2
	l-0.6-0.4l-0.8-1.7l0.2-0.5h0.2l0.1,0.4l0.2-0.7l-0.6-1.5l-1.3-0.7l-0.3-1.6l0.3-0.8l-0.7-1.2l0.1-0.6l-0.7-0.8l0.3-1.8l-0.8-2.4
	l0.4-1.7l-0.7-2.3l-1.7-2.1l0.1-1l-1.5-3l-0.1-1l0.6-0.9l-0.3-2.8l-0.6-1.5l0.4-0.6l0.1,0.2v-0.5l-0.9-3l0.2-0.8l0.1,0.6h0.3
	l-0.1,0.4l0.6-0.8l-0.3-3.1l-2.2-3.7l-3.3-3.2l0.1-0.6l-0.8-1.1L288,370l-4.3-5.5l-2.3-6l-1.4-1.2l-0.4-1.1l-3-4.8l-1.5-2.8l-1-1
	l-0.2-0.9l-1.6-1.9l-2.5-1.8l-0.4-1.3l-0.6-1.2l-0.9-0.8l-0.6-1.7l-0.9-3.8l0.3-2.6h0.6l1.1-0.8l1.4-0.4l0.8,0.1l0.7,0.7l1.7-0.2
	l1.5,0.3l2.4-1.2l0.6-0.7l2.7-0.7l1,0.3l0.9-0.2l1.1,0.4l0.4,1l4.5,2.9l2.1-0.1l0.1-0.2l41.2,0.2l1.8,2.3l1.2,1l1.2,0.5l1.3,0.2
	l2.2-0.2l1.7,0.5l2.4-0.2l1,0.4l0.2-0.3h1.4l0.8,0.3l2.9-0.4l2.2,1.2l1.7,0.1l0.7,0.4l3.5-1h0.7l1.5,0.7l19.4-3.6l0,0l8.2-1.5
	l1.6-0.1l1.7,0.6l1.1-0.4l3.4,0.8l0.7,1l0.7,0.5l0.7,0.5l-1-0.1l-1,0.4l-1-0.4l-2.2,1l-1.6,1.5l-0.6,0.1l-0.8-1h-0.7l-0.5,0.7
	l-0.8-0.1l-3,1.8v0.3l-1.9,1.7l-1,0.5l-0.3-0.1l-0.1-1.1l-0.5-1l-1-0.4l-1-1.8l-3,0.2l-14.6,2.7l-4.8,0.2l-0.4,33.2l-0.1,0.3h-9.4
	l-0.2,24.3l-0.4,31.5l-3.7,0.9l-1,1.5l-1.7,0.3l-0.2,0.4l0.4,0.8l-1.5,0.6l-1-0.3l-0.5-0.5l-1.9-0.2l-3.1,0.5l-0.8-0.2l-1.3,0.2
	l-2.3-1l-1.5-0.3l-1,0.1l-0.4-0.7l-1.6,0.2l0.1-0.9l-0.9-1l0.7-0.6L322,429h-1.2l-0.3-1.1l-1-0.6l-1.6,0.5v0.7h-0.4l0.2,0.3
	l-0.4,0.1l0.1,0.4h-0.5l0.3,0.9l-0.5,1l-0.3,0.1l-0.3-0.3L314.2,431.8L314.2,431.8z"/>
<path class="st0" d="M271.3-74.7l13.9,3.5l1.1,0.6l5.6,5l7.3-3.4l1.5,9.6v4.9l1.1,0.9l2.8,4.5l-0.6,0.6l0.2,1.4L308-43l-2.3,4.3
	L302.5-9l-11,11.6l-5.4,7.3l-0.8,1.7l0.1,1.3l-1.2,0.7l0.1,1l-1.7,0.6l-0.3,0.4l1.4,7.4l-2.7-0.1l-1,1.6l-0.8,0.2v-0.4l-0.2,0.3
	l-0.7-0.3l-1.1,0.5h-1l0.3,0.3l-0.8,0.6l0.1,0.2l-0.3-0.1l-1,1l-0.4-0.3l-0.7,0.7l-0.1,0.8l-0.5,0.3l-0.3,0.7l-2-0.2l-0.7-0.4
	l-1.4,0.1l-2-1.3l-4-1.3l-7.5-0.2l-5.5,1.2l-1.9,1l-0.4,0.7l-3,2.7l-6.4-0.5l-2.6-0.8l-1.4-1.5l-1.2-0.1l-2.8-2.4l-2.7-0.5l-4.3,2.3
	l-1.9-0.1l-1.3,1.2h-1.3l-1.1-1.1l-0.3-0.3l-0.9-2l-2-2.3l-1.1-1l-1-0.4l-0.9,0.4l-5.9-2.6l-1.4,0.2l-0.7,0.8l-0.8,0.3h-2.9
	l-0.9-0.4l-1.2,0.3l-2.1,0.5l-2.5,1.9l-1.2,0.2l-0.6,4.8l-1.6,2.4l-3,2.2v2.5l-0.4,1.8l0.2,1.1l-0.5,0.8l0.5,1.5l-0.7,0.6l-0.9-1.5
	l-1.8-0.7l-0.4-1.2l-2.2-2.6l-0.6-0.2l-0.9-1.1l-1.4,0.5l-0.4,0.5H175l-1.2,0.6l0.2,1.8l0.5,0.5l-0.1,0.1l-0.7,0.4l0.1,0.5l-3-4.6
	L171,34l1.7-0.4l-0.3-1.8l-0.8-1.1l-1.4-0.1l-0.6,0.3l-0.7,0.9l-2.6-0.4l-4-3.8l-1.2-0.4l0.2-3.4l1.6,0.6l0.3-0.5l0.8,0.2l-2.3-1.3
	l-0.2-0.8l-0.8-0.8l-1.1-0.2l-0.1-0.5l-1.6-0.1l0.1-0.8l-1.3-1.4v-0.5l-0.8-1l-0.2-0.9l0.6-1.2l-1.7-2l-0.1-0.3l-0.1-0.4l-0.1-0.3
	l0.7-1.8l-0.3-0.9l0.4-0.9l0.1-0.8l1.2,0.4l1.6-0.3l1.4,0.6l2.8-0.4h0.1l0.7-0.6l3-2.2h15.7l0.4-0.9l4.4,0.9l0.3-1.4l1.7-1.3
	l1.7-0.8h0.1V1l0.5-1.7l0.8-0.8v-1l1-2.1l1.2-1.2l0.3-4l0.3-1.6l0.4-0.3l1.6-21.4l14.9-2.7l16.8-13.8L271.3-74.7L271.3-74.7z"/>
<path class="st0" d="M185.1,41.5l0.7-0.6l-0.5-1.5l0.5-0.8l-0.2-1.1l0.4-1.8v-2.5l2.9-2.3l1.7-2.4l0.6-4.8l1.2-0.2l2.5-1.9l2.1-0.5
	l1.2-0.2l0.9,0.4h3l0.8-0.3l0.7-0.8L205,20l5.9,2.6l0.9-0.4l1,0.4l1.1,1l2,2.3l0.9,2l0.3,0.3l1.1,1.1h1.3l1.3-1.2l1.9,0.1l4.3-2.3
	l2.7,0.5l2.8,2.4l1.2,0.1l1.4,1.5l2.6,0.8l6.3,0.6l3-2.7l0.4-0.7l1.9-1l5.5-1.1l7.5,0.2l4,1.3l2,1.3l1.4-0.1l0.7,0.4l2,0.2l0.3-0.7
	l0.5-0.3l0.1-0.8L274,27l0.4,0.3l1-1l0.3,0.1l-0.1-0.2l0.8-0.6l-0.3-0.3h1l1.1-0.5l0.7,0.3l0.2-0.3v0.3l0.8-0.2l1-1.6l2.7,0.1
	l4.4,6.4l1.1,7.2l3,0.4l1.2,1.6l0.4-0.1l0.1,0.2v0.1l-0.6,1.3l0.2,0.8l-0.2,1.7l-0.5,0.7l0.8,0.8l-0.2,1.1v0.1l0,0l-4.4,2.8
	l-1.8-0.4l-2.3,2.6l-0.1,0.9l-2.1,3.1l-1.1,4.7l-0.8,0.5l-1.1,0.2l-0.2,0.3l0.1,0.7l-0.4,1l0.5,0.7l-0.7,2.6l-2.1,0.7l-1.3,1
	l0.4,1.2l-0.8,1.7l-0.2,2.7l-0.1,0.2l-0.1,0.3l-0.1,0.2l-0.6,0.1l-0.5,0.9l-1,0.5l-1.9-0.1l0.3,1.2l-0.7,0.7h-0.6l-0.5,0.4l0.1,1.9
	l-0.6,1l0.1,1.3l-1.8,2.4v1.4l-2.9,3.2l1.3,1.4v0.5l-0.6,0.1l-2.5,2l-0.2,0.5l0.3,0.9l-0.4,1l-1.2,0.7l-0.5,1.2l-2,0.1h-0.6v-0.1
	l-0.7-3l-1.3-0.5l-0.8-1.7l-2.1-1l-0.4-0.9l-0.9,2.6l-2.9-0.1l-0.7-1.3l-2.8,2.2l-0.9-0.1l-1,2.7l-0.9,0.2l-0.6,0.7l-1,0.4l-0.3,0.6
	l-0.8,0.2l-0.7,1.1l-2.8,2.6l-0.1,0.5l-0.6-0.1l-0.7,0.6v0.9l-0.4,0.5l0.8,1.1l-0.6,1l-0.4,3.4l-0.5,0.3l-1.5,2.4l0.1,0.5l-0.2,0.1
	l-0.4,0.2l-0.2,1h-0.6l0.1-0.4h-0.7l0.1-1l-0.6,0.5l-1.7-2l0.9,1.3l-0.1,0.3l0.9,1.9l-0.7,1l-2.6-0.2l-2.9,0.3l-0.2,0.1l0.3,0.1
	l-0.5,0.1l-1.4-0.3l-0.3-1.2l0.2-0.7l-0.4,1.4l-0.7,0.2l-1.5-0.5l-0.1,0.4l0.6,0.3l-0.5,0.2l-0.9-1.1l-0.1-0.6h-0.5l-0.6-1l-0.1,0.4
	l1.1,1.2l-0.2,0.5l0.4,0.4l-0.7,0.7l-0.3-0.6v0.6l-0.4,0.1l-0.4-1.5l0.2-0.7l0.2,0.1l-0.4-0.8l-0.2,0.2l-0.1-0.4l0.2,1.3l-0.4-0.1
	l-0.5-0.7l0.3,1.1h0.5l-0.1,0.9l0.5,0.9l-0.5,0.2l-1-0.3l-0.5-1.5l0.3-0.9l-0.4-0.2l-0.3-1l0.2-0.7l-0.7-0.2l0.5,1.8l0.5,0.6
	l-0.3,0.4l0.7,2h-1.5l0.2-2.6l-0.4,1.9l-0.2-1.1l-0.2,0.2l0.4,1.8h-0.8l-0.1-1.5l-0.4-0.2l0.4,0.6l-0.2,1.1l-1.3-0.2l-1.6,0.5
	l-0.2-0.3l0.9-1.2l-0.7,0.4l-0.2-1l0.1,0.9l-0.5-0.3l0.3,0.6l-0.4,0.9h0.3l-1.1,0.3l-0.3-0.3l0.1-1.1H207l0.2,1.1l-0.6-0.3l-0.1-1
	l-0.1,0.3l-0.2-0.1l0.1,0.6l-0.7-0.4l-0.2-0.7l-0.3,0.2l-0.6-0.4l-1.8-1.8l-0.2-1l-0.9-1.2l0.3,0.2l-1.2-3.1l0.5-0.1l0.4,0.4
	l-0.2-0.6l0.4,0.1l-0.4-0.5l-0.1,0.3H200l-0.2-1.8l1.1-0.2l0.1,0.3l0.6-0.4l0.5,0.1l-0.4-1l0.8-0.3l0.3-0.3l-1.2,0.4l-0.3,0.9
	l-0.6-0.3l0.1,0.4l-1.7-0.5l-0.6-0.7l-0.1-0.5l0.3-0.3l1.7,0.3l0.5-0.7l0.7,0.4l-0.6-0.7l-0.7,0.6l-0.5-0.1l0.1-1.2l-0.6,1.1l-1,0.3
	l-0.5-0.5l-0.4-0.8l0.2-0.9l0.5,0.2v-0.4l1.4-0.9l-2.4,1.4l-1.5-2.5l-1.3-1.4l-3.3-2.3l-5.2-0.9l-4.2,0.1l-0.6-0.4l0.4-0.1l0.1,0.4
	l0.4-0.3h0.6l0.3-0.6L184,94l1.4-0.8l-0.7-0.1l-2.6,0.9l-0.4-0.2v-0.6l-0.8,0.5l-0.4,1l0.1,0.5l-6.6,0.1l0.4-2.8l0.5-0.6v-0.6
	l-0.5-0.5V89l0.6-0.6l-0.4-0.6l0.3-0.7l-0.1-2.5l0.4-0.1l0.1-0.6l-0.7-1.1l0.1-2.1l-0.5-1.1l0.7-3l-0.3-1.3l0.5-1.8l-0.1-2.9
	l0.3-0.2l0.3-2.6h2.1l0.9-0.3l0.8-1.9l-0.1-1.7l1.1-1.3v-0.5l0.8-0.2v-1.4l1.3-0.5l0.6,0.1l0.8-1l0.2-1.1l0.6-0.9l-0.9-1.4l0.8-1.5
	l1.1,0.3l0.7-1.9l-0.1-1l-0.4-0.2l-0.5-0.9l0.3-1l-0.3-2.1l-0.6-0.3l-1.7-2.9l0.4-1.4L185.1,41.5L185.1,41.5z M221.4,115.8h0.4
	l-1.5,0.5l-0.9-0.3l0.7-0.4l0.6,0.3L221.4,115.8L221.4,115.8z M218.8,115.7h0.6l-0.4,0.8l-1.6,0.1l0.9-1.4L218.8,115.7L218.8,115.7z
	"/>
<path class="st0" d="M333.2,127.3l0.2,1.6l-0.3,2l-0.9,0.6l-1.4,3.6l-1.6,2.1l-1.6,3.5v6.2l-1.2,3.9l-0.9,1.6l0.5,2.8l-0.1,1.4
	l0.6,1.2v1.2l-0.9,1.4l-1.4,4.4l0.3,3.3l-4.5,5l-2.9,0.8l-2,1.8l-3.2,6.1l-3.2,3l-0.2,1.2l0.5,3.3l-0.5,2.4l0.2,3.6l0.3,0.8l-3.2,6
	l-0.7,0.5l-3.1,0.9l-0.8,1.6l-2.6,1.2l-1.1,1.6l-1.7,1.5l-1,1.7l-1.6,0.8l-1.5-0.6l-1.2,0.4l0.1-1.9l-0.6-1.4l1.2-1.3l-0.8-0.8
	l-0.1-0.8l-2,1l-1.6,0.4l-0.8,0.8l-0.8-0.1l-0.6-0.6l-1,0.2v2.3l-1.2,0.9l-0.7-0.3l-0.4,0.2l0.1,0.2l-1,0.8l-0.4-0.9l-1.8-1.1
	l-0.9-1l-0.1-0.1v0.1l-0.1,0.4l0,0l-0.9-0.8l-1.2-1.4l-1.1-0.2l-1.4,1.7l-2.4,0.4l-0.6,1.7l-0.9,0.2l-0.5-0.4l0,0l-0.6,1.4l-1.2,1
	l-1.9-2.4h0.3v-0.3L264,209l0.4-0.3l-0.1-0.6l-4.2-3.5l-0.5-1.1l-2.5-1.8l1-2.4l2-1.1l0.7-0.8l0.9,0.4l1.2,1.6l1.5,0.1l0.7-0.7
	l-0.8-0.7l0.6-1.6l0.7-0.8l-0.1-0.3l-2.6-1.4l0.2-1.2l0.7-0.4l-1.4-1.8l-1.1,0.3l0.9-2.3l-0.5-1.3l-0.1-1.7l0.9,0.2l1,0.7l1.8-0.8
	l1.3,0.9l4-0.8l0.4-2.4l-0.6-0.5l-0.1-1.6l0.6,0.4l0.4-0.6l1.1-0.4l1.8,1l1,2.8l0.4-0.1l0.6,0.9l-0.4,1l0.6-0.3l4.4,1.1l1.5-1.2
	l1.4-2.2l1.7,2.7l-0.6,1.1l2.5,0.3l0.5-1.1l0.9-0.4l-0.9-1.3l0.9-0.9l0.1-1.6l0,0l0.5-0.2l1-0.6l0.1-1.6l0.4-0.5l-0.9-0.8l1-0.6
	l-0.2-0.5l0.5-0.9l-0.6-0.8l0.4-1.1l-0.8-2v-0.1l0.6-1.6l-0.1-0.8l0.5-1.8l-0.4-0.6l-1.4-1l-1.6,0.1l-0.2-1.2l-0.4-0.6l-1.8-0.4
	l-0.4,0.2l-0.5-0.6l0.9-1.5l0.1-0.8l-0.4-0.2l-0.2-1.6l0.8-1.6l1.2-0.9l-0.1-0.6l0.3-0.4h1.6l1-0.8l0.1-0.7l1.1-1.2l-0.1-0.6
	l0.3-0.4l-0.7-0.6l-0.5-1.2L289,151l-0.3-2l-1.1-0.6l-1,0.1l-0.5-0.4l-2.1-0.2l-0.4,0.6l-1.1,0.2l-1,0.7l-1.7-0.1l-1.3,0.7h-0.7
	l-0.4-0.4l1-0.8l-0.1-0.9l-1.1-1.7l0.2-1.7l0.4-0.7l-0.3-0.7l0.5-0.9l0.8-0.5l0.1-1.2h10.4l1.1,0.4l1.2-0.3l0.1-0.4l0.8,0.7l1.1,0.3
	l-0.2,0.1h0.4v0.4l0.8-0.1l0.2-0.4l0.5,0.6l-0.1,0.5l0.9-0.3l1,0.6l0.8-0.6h0.6l1.3,1.2l1.5-0.5l2.3,0.5l1.9,1.4l1.3,0.2l0.6,1.2
	l0.7-0.6h0.1v-0.1l-0.4-1.1l-0.5-1.6l0.1-0.7l0.2-1l0.1-0.2l0.5,0.1l0.5-0.4l-0.2-0.4l3-5.8l-0.3-1.2l0.5-1.1l-0.3-0.9l0.5-0.7
	l0.3-1.3l0.5-1.3l0.3-0.2l0.4-0.2l1.8,0.1l0.3-0.3l1.1,0.2l0.3-0.1h0.1l1.9-0.4l0.6-0.4l0.8,0.1l1.3-0.9l1.3,0.8l2.1,0.2l0.5,0.8
	l2.4-0.2l1,0.9l0.7-1h1.3l0.9-0.6l1,1.4L333.2,127.3L333.2,127.3z"/>
<path class="st0" d="M48.3,28l-0.6-0.4l-0.1-0.1h-0.1l-2.3,0.3l-1.4-0.5l-0.7,0.3l-0.9-0.3l-0.8,0.5l-1.5,0.3l-0.8-0.9L38,27.5
	l-0.4-0.7l-1-0.2l-1.2-1.1h-0.3l-0.3,0.7l-0.6-0.1L34,25.7l0.2-1.1v-0.1h-0.1l-5.3-0.8l-12.2-1l-4.3,2.1l-4.4-0.5l-1.7,0.8L4,25.3
	H3.6l-0.4-1l0.1-0.6l2-1.2l0.3,0.7l0.3-0.3l1,0.6l0.6-0.4h0.8l0.1,0.3l1.4-0.5l1.5,0.9l1-0.3l0.6,0.6L14,23v-1.5l0.8-0.4l0.3,0.3
	l0.2-0.4l-0.1,0.1L14.8,21L14,21.3l-0.1,1.5L13,23.6l-0.2-0.1l0.1-0.3l-1-0.2l-0.6,0.3l-0.6-0.2L10,21.7l-0.6,0.9l-2,0.1L7,23.1
	l-1-0.7L6.3,22L6,21.6l-0.2,0.8l-0.4-0.7l-0.6,0.2L5.4,21v-0.4l-0.6,0.9l-0.1,0.7l-1,0.5v-1l0.7-0.5l-0.3-0.1l-0.5,0.3L4,20.6
	l-0.2-0.2l0.5-0.9l0.2-1.6v-0.2L5,17l7.1,0.6l0.4-1.8l2.5-0.4l1.1,0.3l0.9-0.1l0.5-0.4l0.3-1.1l0.6-0.5l1.3,1.4l1.3,0.6l0.4,0.6
	l1.1,0.1l1.7,1.3l1.4,0.2l0.8-0.5l1.8-0.2l0.4-0.2l0.4-1l-0.5-1.2l-0.7-0.4l-3.3,1l-0.8-0.7l-0.6-1.2l-0.7-0.3l-1,0.4L21,13.2
	l-0.5-1.3L19,11.4L17.3,12l-0.2-0.4l-0.8,0.1l-0.7,0.6L15,13.5l-8.5-0.7v-0.6l0.6-0.4l-0.2-0.1l0.2-0.4l-0.9,0.8l-0.3-0.3L6.4,11
	l0.7-0.8h0.3l0.2,0.5L7.4,9.9l0.4-1.2L7.2,10l-0.8,0.2l-0.6,0.7l-0.2-0.7L5.7,9l0.4-0.4L6.6,9l0.5-0.2l0.3-0.5L7.1,8.2l1.4-1
	l0.6-0.1L8.3,6.8v0.4H7.8L7.4,8L6.5,8.6L6,8.4l0.7-0.8L6,7.9l-0.7,2.2L5.5,8L4.6,5.4V4.5L3.8,3.7L2.9,1.3L1.4,0.7L1.1,1.6L0.5,0.5
	l1.4-0.3l1.7-0.9l2.9-3.2l3.6-5.3l1-3.2l0.2-0.7l0.7-0.5l0.8-2.2l0.5-0.6l1.3-0.3l0.5,0.6l1.3-0.1l1.8,0.5l0.6-0.3h0.7l0.6-0.6
	l0.3,0.4l2.4-0.2l0.3-0.1v-0.7l0.5,0.4l0.5-0.7l0.4,0.5l3.4,0.3l0.8-0.2l3,3.5v1.1l0.6,0.4l0.3,0.8l1-0.6v0.5l0.4,0.3l1.6-0.4
	l-0.2,0.6h0.5l0.8,1.8v1.6L37-6.5l-0.2,0.9l1,0.3l0.1,1l1-0.1l0.2,1.5L39.7-2l-0.5,0.3L40-1.3v0.7l0.5,0.5L41.3,0l1,0.9L42.4,2
	l0.5,0.7l0.8,0.7l0.1,0.1l0.7,1.4L43.7,6v1.3l0.8,0.4l-0.1,0.4L45,8.6l0.3,1l-0.5,1.8l0.4,0.8L45.1,13l-0.5,0.8l-0.8,0.4l0.5,1.5
	l0.9,1.1L45,17.7l0.5,0.7l0.9-1l1,0.5l0.4,1.1l-0.2,0.4l0.2,1.1l0.7,0.4l0.2,0.7l-0.2,0.5l0.4-0.2l0,0v0.5l-0.3,0.1l-0.1,0.8
	l0.1,1.1L48,24.9l0.1,1l-0.3,0.3l0.7,0.7L48.3,28L48.3,28z"/>
<path class="st0" d="M54.4,68.1l-0.6,2.1v0.9l-0.6,0.4l-1.3,0.1l-0.8,0.9l-0.2,2.7l-1.1,0.6l-1.4,1.7L46.2,79l-0.9,1.1l-0.9,0.3
	l-0.5,0.7l0.1,0.6l-0.3,0.1l-0.5,1.3l-0.4,0.2l-0.9-0.7l0.2-0.1h-0.5l-1.8-1.8l-5.6-2.8l0.6-0.2l0.6,0.3l-1-0.6l0.6-0.9l1.2,0.1
	l1-0.6l-0.6-0.1l-1.3,0.5l-0.5-0.2l-0.1-0.9l-0.3,0.2L34,75.2l1-1.2l-0.2-0.2l-1.2,1L32.1,74v-0.5l0.2-0.2l-0.6,0.2l-0.9-1l-0.2-0.3
	l0.5-0.2l0.7,0.2L31.1,71l0.4-0.7l-0.8-0.9l0.1-0.7l-1.7,0.7l0.1-1l-1-1.6l0.1-0.8l0.8,0.2l0.4,0.6l0.9,0.6l-0.7-0.8l0.1-0.2
	l0.8-0.4l0.1-0.4H32l-0.5-0.2l0.6-1l-0.6,0.8l-1.1,0.2l-0.2-0.2l0.6-0.4l-0.2-0.2l-0.3,0.5l-0.6-0.6l0.4,0.9L29.6,66l-0.5-1.6
	l0.1-1.6l0.4-0.3l1.8,0.2L30,62.6l-0.2-0.2l0.2-0.3l0.6-0.2l-1,0.1l-0.4-0.5l-0.3,0.1l-0.2-0.9l0.8-0.3l0.8,0.4l1.5-1.2l0.1-1h1
	l0.7-0.6l0.6-0.7l0.4-1.2l0.6-0.6l0.3-0.8l0.6-0.5l0.2-1.2l0.4-0.3l1.7-0.4l1.1,0.6l1.9-0.4l0.2-0.7l6,0.5l0.2,0.1l0.2,1.1l0.9,0.9
	l1.2,2.3l0.5,1.7l-0.2,0.2l0.6,0.1l0.7,0.8l-0.2,0.8L50.8,61l-0.1,0.8l1.3,0.4l-0.2,2.4l0.9,1.5l-1.4,1.3l-1.1,2.4l0.2,0.2l0.5-0.6
	l0.9,0.3l1.7-1.7l0.7,0.1L54.4,68.1L54.4,68.1z M34.4,76.1l-0.3,1.7l-0.3,0.1L33.4,77l-2.9-1.2l0.6-0.4l2.3-0.1L34.4,76.1L34.4,76.1
	z"/>
<path class="st0" d="M314.2,431.8l1.6-0.9l0.3,0.3l0.3-0.1l0.5-1l-0.3-0.8h0.5l-0.1-0.4l0.4-0.1l-0.2-0.3h0.4v-0.7l1.6-0.5l1,0.6
	l0.3,1.1h1.2l0.5,1.4l-0.7,0.6l0.9,1l-0.1,0.9l1.6-0.2l0.4,0.7l1-0.1l1.5,0.3l2.3,1l1.3-0.2l0.8,0.2l3.1-0.5l1.9,0.2l0.5,0.5l1,0.3
	l1.5-0.6l-0.4-0.8l0.2-0.4l1.7-0.3l1-1.5l3.7-0.9l0.4-31.3l1.2,1.1l2.4,1.3l0.7,1.2l-0.1,0.3l0.7,0.7l0.2,0.9l0.6,0.4v0.3h0.5
	l-0.3,0.3l0.5,0.8l-0.3,0.2l0.7,1l0.1,0.8l0.3-0.1l0.3,0.6l0.1,1.5l0.3,0.5l-2,2.5l-0.2,0.6l0.2,0.9l-0.2,1.4l0.7,1.2l2-0.8l1.9,0.5
	l2.8-0.4l2.1,0.3l0.9-0.5l0.2-1.1l2.5-0.5l1.8-2.3l0.9-0.3l1-0.9h0.9l1.1-1.6l0.5-0.3V409l0.5-0.6l-0.2-0.4l0.7-0.9l0.4-1.7l1.8-1.6
	l0.4,0.2l1.4-0.5l2.2,0.1l4.1,3l0.6-0.1l0.1,0.3l1.6-0.3l1.4,1.1l1.1-0.1l1.9,0.7h1.5l1.7-0.7l1.5,0.2l2.6-0.5l1.2-0.8l2.6-5.2
	l0.5-1.1v-1.2l3.8-1.1h1.1l1.3-1.5l1.5-1.2l1.4-0.6l1.5-4.8l0.5-0.7l0.5,0.1v-0.5l0.7-0.3l-0.1-0.4h0.7v-0.3l1.4-0.9l0.1,0.3
	l0.5-0.3l0.1,0.2l1.2-0.5l0.6-1.3l0.4,0.1l0.5-0.3l0.5,0.2l0.4-0.5l-0.1-0.3l1.5-0.6l0.1-0.8l1-0.5l0.1-0.7l1-0.6l0.5-0.9l1-0.6
	l1.6-0.2l0.9-0.1l2.3-0.7l0.3-0.4l0.7-0.1l0.5-0.6v-0.6l0.8-0.8l2-0.4h2l0.9-0.1l0.9-0.3h1.1l3.2,1.3h0.8l1,0.5l1.4-0.3l1.3,0.1
	l1.9-0.5l2.3,0.4l0.6-0.2l1.2,0.7v0.1l1.6,6.6l-0.4,2.6l0.9,1.1l0.8,2.4l0.8,0.6v2l0.8,2.2l-0.9,8.3L455,404l0.1,1.4l-1,1.5l0.2,1.2
	l-0.5,0.2h-0.5l-3.6-2l-0.9,0.2l-1.9,1.4l-1.6,2.6l-1.6,1.6l-0.3,1.9l-0.1,1.6l0.7-0.3l0.5,1l-0.1,0.9l1.5,1.6l3.3,0.9l3.9-0.1V418
	l0.7-2.5l1.1,0.1l0,0l0.9,0.1l6-0.1l-0.4,1.4l-2.2,4.3l-1.8,5.5l-1.2,1.7l-0.4,0.2l0.2,0.3l-0.4,0.9l-3,2.3l-0.6-0.1l-0.2,0.2
	l0.2,0.2l0.5-0.2l-0.6,0.5l-1.1,0.5h-1l0.1,0.2l-4,3.3l-1.8,1.8l-1.4,1.9l-0.1,0.6H442l-0.2,0.3l0.6-0.2l-0.1,0.2l-1.6,1.3l-5.1,6.6
	l-3.2,3.2l-1.9,1.5l-1.1,0.4l-1.2,1.1l-1.9,0.8l-2,2.2l-0.6,0.2l-2.7,2.6l-3,2.2l-1.9,1.2l-1.6,0.6L414,466l-1.8,1.2l-1.5,0.6
	l-5.8,3.4l-5.4,2H398l-2.7-0.4l-1.5,0.3l-0.9,0.4l-0.4,0.5l-0.2,0.6l0.6,0.8h-2.4l-1.8-0.5l-2,0.2l-0.4,0.2v0.5l-0.7,0.5l0.1,0.4
	l-0.2,0.2l-3-0.3l-2.6-0.7l-4.4-0.5l-2.1,0.4l-0.2,0.3l0.4,0.3l-2.9-0.2l-0.1-0.3l-0.4-0.1l0.3,0.5h-0.8l-1.1-0.4l0.1-0.3l-0.3-0.1
	H368l0.3,0.4l-1.5-0.3l-1.1,0.5l-2.4,0.2l-0.5,0.5l0.3,0.3l-1.7,0.4l-0.5,0.9l-0.9,0.4l-0.7,0.1l-1.3-0.4l-2,0.6l-2.1-0.5h-1.2
	l-0.9,0.3l0.5,0.3L352,479l-1.5-0.2L349,479l-2.2,1.5l-1.3,0.5l-0.2,0.2l0.1,0.2l-0.4,0.1l-1.3-0.5l-1.7,0.2l-2-1.3l-0.9,0.1
	l0.5-0.9l-0.6-0.7l-1.4-0.1l-0.3-0.3l0.5-0.5l-0.4,0.4l-2.3,0.3v-1.5l0.3-0.3l-0.5-0.5l-2.1-0.1l-0.6,0.3l-0.3,0.4l0.3,0.5v0.9
	l-0.5-0.4l-0.2-0.6l-0.6-0.5l0.4-0.8l-0.2,0.1l-0.1-0.3l0.5-0.8l0.9-0.2l0.1-0.4l-0.7-1.6l-0.7-0.5l-0.1-0.7l-1.4-1L329,469l-1-0.8
	l0.4-0.1l0.8,0.9h0.2l-0.7-0.8v-0.5l-0.6-0.2l-0.6,0.3l-0.4-1l0.2-0.3l-0.3-0.4l0.5-0.2l0.1-0.5l0.5-0.2l0.6,0.5h0.7l1.5-1.3
	l0.4-1.2l-0.2-0.9l0.3-0.7l-0.6-2.9l-0.7-1.6l-4-4.6l-4.1-6.3l-1.8-4.2l-0.7-2.4l-1.5-2.7l-0.2-0.9l-2-2l-0.4-1.2l-0.9-0.8
	L314.2,431.8L314.2,431.8z M425.2,433.7l-0.8-1l-0.7-0.3l-0.3-0.5H423l-0.5-1l-2.3,0.5l-0.8,0.7h-1.3l-1.4,1.4l-0.8-0.2l-0.6,0.5h-1
	l-0.4,0.7l-0.7,0.4l0.2,0.2l-0.3,0.1l-0.2,0.5l-0.9,0.7v0.4l-0.7,0.3l-1,1.6l-0.8,0.5l-2.2,0.6l-0.2,0.4l0.6,0.5l0.9,2l0.5,0.4
	l0.3,0.8l0.6,0.1l-0.4,0.6l0.1,0.8h0.8l1.1,1.5l1.2,0.9l2.9,0.4l0.1-0.6l0.6-0.7l-0.1-0.4l1.1-0.9l-0.3-0.6l0.9-0.3l0.9-0.8l1.4-0.3
	l0.8,0.1l1.4-0.4l3.2-1.5l-0.2-0.8l0.1-0.6l0.5-0.7l1.1-0.5l0.1-1.1l1.1-0.5l0.4-0.7l-0.9-1.6v-0.5l-0.9-0.1l-1.2-0.8l-0.1-0.4
	L425.2,433.7L425.2,433.7z M463.9,562.1h1l0.4,0.3l-0.8,0.5h-1.3l-0.1-0.3L463.9,562.1z M465.7,560.9l0.4-0.2l0.5,0.1l-0.4,0.2
	L465.7,560.9L465.7,560.9z"/>
<path class="st0" d="M6.6,12.7l8.5,0.7l0.6-1.2l0.7-0.6h0.8l0.2,0.4l1.6-0.7l1.6,0.5l0.4,1.3l0.5,0.4l1-0.4l0.7,0.3l0.4,1.2l0.8,0.7
	l3.3-1l0.7,0.4l0.6,1.2L28.5,17l-0.4,0.2l-1.8,0.2l-0.8,0.5l-1.4-0.2l-1.7-1.3l-1.1-0.1l-0.4-0.6L19.6,15l-1.4-1.4l-0.6,0.5
	l-0.3,1.1l-0.5,0.4L16,15.7l-1.1-0.3l-2.5,0.3L12,17.5L4.9,17l-0.4,0.7v0.2l0,0l-0.3-0.2v-2.6l1.4-1.5L6.2,14l-0.3,0.3l0.1,1
	l0.3,0.5l1,0.4l-0.1,0.5h0.3L7.2,16l0.5,0.2l1-0.5l0.2,0.1l-0.1,0.6H9l0.5-0.2l-0.4,0.1L9,15.6l0.7-0.9L11,15l1.9-0.1l0.8-0.3
	l0.4,0.2l0.7-0.5l1.6,0.8l0.3-0.1l0.1-0.4L16.3,15l-1.6-0.8l-0.5,0.4l-0.5-0.2l-0.9,0.3l-3-0.1l-1.2,0.8l-0.1-0.5l-0.2,0.5l-0.7,0.1
	l-1-0.4l0.2-0.6l-0.3-0.7L6.6,12.7L6.6,12.7z"/>
<path class="st0" d="M158.9,47.9l-0.4,1.8l-0.8,1l-0.3,3.2V54l5.2,4l0.1,3.5l-0.4,1.3l0.5,0.6l0.1,1.4l1.7,2.4l0.1,0.3l-0.1,5.1
	l0.3,0.7l-0.5,1.2l0.2,1l-0.5,13H163l0.5,1.3l0.1,1.2l-0.4,0.7l1.6,2.6l0.3,1.6l-1.5,0.3l-0.1,0.3l-4.2,1l-0.1-0.5l-0.8-0.1
	l-0.6-0.7l-0.4-1.1l-0.9-0.1l-1.3-1.2l-0.3-0.8l0.2-0.6l-0.9-0.6V91l-1-1.2l0.3-0.8l-0.5-0.6l0.8-0.2l0.2-0.3l0.1-1.3l0.5-1.7
	l-0.2-0.8l-0.6,0.2l-0.5-0.3l-0.2-1l0.2-0.8l0.5-0.3L154,81l0.3,0.1l-0.1-5.2l1.4-0.9l-0.8-2l-1.6-1.3l-0.7-1.8l0.4,0.2l0.1-0.3h0.5
	l0.3-0.8l-0.6-1.7l0.8-1.6l-0.1-0.7l0.3-0.4l0.1-1l-0.4-0.3V63l-0.7-0.2l-0.8,0.1l-0.6,0.6l-0.4-0.1V63l0.7-0.3l-0.7-0.3l0.1-0.4
	l1.4-0.1l-1-0.1l-0.1-0.5l0.1-0.3l0.4,0.4l0.3-0.1l-0.2-1l0.6-1.8l-0.1-0.9l0.5-0.2l-0.4-0.7l0.1-1.1l0.4-0.6l-0.8-0.2l-0.3-1.1
	l-0.9,0.1l-1.3-2l-1.1-0.6l0.1-1.2l0.5-0.6l0.6-2.5l-0.4-0.4H149l-0.4-0.5l6.1,1.6v0.7l1.8-0.5L158.9,47.9L158.9,47.9z"/>
<path class="st1" d="M308.5,139.6l0.2,0.4l-0.5,0.4l-0.5-0.1l-0.1,0.2l-0.2,1l-0.1,0.7l0.5,1.6l0.4,1.1v0.1H308l-0.7,0.6l-0.6-1.2
	l-1.3-0.2l-1.9-1.4l-2.3-0.5l-1.5,0.5l-1.3-1.2h-0.6l-0.8,0.6l-1-0.6l-0.9,0.3l0.1-0.5l-0.5-0.6l-0.2,0.4l-0.8,0.1v-0.4h-0.4
	l0.2-0.1l-1.1-0.3l-0.8-0.7l-0.1,0.4l-1.2,0.3l-1.1-0.4h-10.4l-0.1-0.8l-1.2-0.4l-1.2,0.4L274,139l-0.6,0.3l-4.3-0.8l-1.3,0.4
	l-4.4-0.1l-1.1-0.4l-3.1,0.2l-0.3,1.4l-13.4-0.2l-1.7-1l-0.1-0.1v-0.2l0.1-2.7l0.6-3.2l0.8-1.7l-0.5-2.1l0.3-0.2l-2.9-2.8l1.8-0.9
	l-1.8-0.1l-0.2-1.2h0.4l0.8-0.7l0.1-0.4l0.1-1l-2.8-1.6l-0.6,1l0.5,1h-1.3l-0.4-0.5l0.2-0.7l-0.8,0.7H238l-0.1-0.6h-0.8l-1.5-0.9
	l0.2-1.2l-0.7-1l-0.2-1.4l0.1-0.6V115l-0.5-0.5l-0.5,0.4l-0.8,0.2v0.7l-1.5,0.2l-0.3-0.2l-0.3-0.3l0.2-0.8l-0.1-0.4l0.6-0.6l0.2-1.2
	l0.1-0.6l1.5-2.4l0.5-0.3l0.5-3.4l0.6-1l-0.8-1.1l0.4-0.5v-0.9l0.7-0.6l0.6,0.1l0.1-0.5l2.8-2.6l0.7-1.1l0.8-0.2l0.3-0.6l1-0.4
	l0.6-0.7l0.9-0.2l1-2.7l0.9,0.1l2.8-2.3l0.7,1.3l2.9,0.1l0.9-2.6l0.4,0.9l2.1,1l0.7,1.6l1.3,0.5l0.7,3v0.1h0.6l1.9-0.1l0.5-1.2
	l1.2-0.7l0.4-1l-0.3-0.9l0.2-0.5l2.5-2l0.6-0.1v-0.5l-1.3-1.4l2.9-3.2v-1.4l1.8-2.4l-0.1-1.3l0.6-1l-0.1-2l0.5-0.4h0.6l0.7-0.7
	l-0.3-1.2l1.9,0.1l1-0.5l0.5-0.9l0.6-0.1l0.1-0.2l0.1-0.3l0.1-0.2l0.2-2.7l0.8-1.7l-0.4-1.2l1.3-1l2.1-0.7l0.7-2.6l-0.5-0.7l0.4-1
	l-0.1-0.7l0.2-0.3l1.1-0.2l0.8-0.5l1.1-4.7l2.1-3.1l0.1-0.9l2.4-2.7l1.8,0.4l4.4-2.8l0,0v-0.1l0.2-1.1l-0.8-0.8l0.5-0.7l0.4-1.7
	l-0.2-0.8l0.7-1.4v-0.1l-0.1-0.2l-0.4,0.1l-1.2-1.6l-3-0.4l-1.1-7.2h3.5l0.8,1.1l-0.2,1l0.6,0.6v0.5l1.5,0.5v0.7l0.2-0.3L295,34
	l0.6,0.1l0.1,0.3l0.1,1.4l0.3,0.1l0.3,1.2l-0.1,1.8l0.6,0.6l0.5-0.2l0.4,0.2l0.3,1.2l-0.3,0.1v0.9l0.6,1l-0.5,1v0.1l0.6,1.4
	l-0.8,1.2v1.1l-0.4,1.3l0.1,1.9l0.4,1l-0.1,1.1l0.8,1.7l-0.2,0.8h0.1l0.8,0.5l0.8,1.8l1.7,1.8l2,1.5l-2.4,0.6l-2.8-0.6l-1.2,0.4
	l-1.2-0.2l-1.3,0.4l-3.3-0.8l-2.6,0.2l-0.6,1.3l-1.7,2.1l-0.1,0.1l3.7,4l0.3,0.8l4.4,3.7l1.1,0.4l0.5,1l1,0.3l1.3,1.7l1.6,3.5l0.9,3
	l1.2,0.5l-0.1,1.7l-0.7,1.1l-0.6,0.9l0.1,0.5L299,89l-0.4,1.6l-0.5,0.4l-1,2.7l-1,0.7l-1.6,4L294,99l-1.9,0.7l-1.5,1.5l0.8,1.2h1.2
	l0.3,0.6l0.1,1.3l-0.4,1.3l0.3,1.2l-1,2.1l1,0.7l0.3,0.6l0.6,5.5l0.6,0.8l2.2,1.4l0.7,1.2l0.3,1.8l1,0.6l-0.8,0.4l-0.9-0.1l0.6,1.4
	l0.9,1.3l6.2,6.7l1.3,0.1l0.6,1.2h0.5l0.4,0.8l0.2,0.5l-0.3,1v0.4v0.1l0,0l0.5,0.1l-0.2,1.9l0.9,2.7l0.1-0.2L308.5,139.6z"/>
<path d="M251.6,93.7c-1.3,0-2.4,1.1-2.4,2.4s2,3,2.3,3.2l0.2,0.1l0.2-0.1c0.2-0.2,2.3-2,2.3-3.2C254.1,94.7,252.9,93.7,251.6,93.7z
	 M251.6,97.3c-0.7,0-1.2-0.5-1.2-1.2s0.5-1.2,1.2-1.2s1.2,0.5,1.2,1.2l0,0l0,0C252.8,96.7,252.3,97.2,251.6,97.3L251.6,97.3z"/>
<circle cx="251.6" cy="96.1" r="0.7"/>
<circle class="st2" cx="259.5" cy="122.7" r="0.9"/>
<g class="st3">
	<path d="M254,111c0.8,0,1.4,0.4,1.6,1.1h-0.5c-0.2-0.4-0.6-0.7-1.1-0.7c-0.7,0-1.3,0.5-1.3,1.4s0.5,1.4,1.3,1.4
		c0.5,0,0.9-0.2,1.1-0.7h0.5c-0.3,0.7-0.9,1-1.6,1c-1,0-1.7-0.7-1.7-1.8S253,111,254,111z"/>
	<path d="M257.4,111.8c0.5,0,0.9,0.3,1,0.5v-0.5h0.5v2.7h-0.5V114c-0.2,0.3-0.5,0.6-1,0.6c-0.7,0-1.3-0.6-1.3-1.4
		C256.1,112.3,256.7,111.8,257.4,111.8z M257.5,112.2c-0.5,0-0.9,0.4-0.9,1s0.4,1,0.9,1s0.9-0.4,0.9-1
		C258.5,112.5,258,112.2,257.5,112.2z"/>
	<path d="M263.6,113c0-0.6-0.3-0.8-0.8-0.8s-0.8,0.3-0.8,0.9v1.5h-0.5V113c0-0.6-0.3-0.8-0.8-0.8s-0.8,0.3-0.8,0.9v1.5h-0.5v-2.7
		h0.5v0.4c0.2-0.3,0.5-0.4,0.9-0.4c0.5,0,0.8,0.2,1,0.6c0.2-0.4,0.6-0.6,1-0.6c0.6,0,1.1,0.4,1.1,1.2v1.6h-0.5V113H263.6z"/>
	<path d="M266,114.6c-0.8,0-1.4-0.6-1.4-1.4c0-0.9,0.6-1.4,1.4-1.4s1.3,0.6,1.3,1.3c0,0.1,0,0.2,0,0.3h-2.2c0,0.6,0.4,0.9,0.9,0.9
		c0.4,0,0.7-0.2,0.8-0.5h0.5C267.1,114.2,266.7,114.6,266,114.6z M265.1,113h1.7c0-0.5-0.4-0.8-0.9-0.8
		C265.6,112.1,265.2,112.4,265.1,113z"/>
	<path d="M268.4,114.5h-0.5v-2.7h0.5v0.4c0.2-0.3,0.5-0.5,0.9-0.5v0.5h-0.1c-0.4,0-0.8,0.2-0.8,0.8V114.5z"/>
	<path d="M271,114.6c-0.8,0-1.4-0.6-1.4-1.4c0-0.9,0.6-1.4,1.4-1.4s1.4,0.5,1.4,1.4C272.4,114,271.8,114.6,271,114.6z M271,114.2
		c0.5,0,0.9-0.3,0.9-1s-0.5-1-0.9-1c-0.5,0-0.9,0.3-0.9,1C270.1,113.9,270.5,114.2,271,114.2z"/>
	<path d="M274.2,114.6c-0.8,0-1.4-0.6-1.4-1.4c0-0.9,0.6-1.4,1.4-1.4s1.4,0.5,1.4,1.4C275.6,114,275,114.6,274.2,114.6z
		 M274.2,114.2c0.5,0,0.9-0.3,0.9-1s-0.5-1-0.9-1c-0.5,0-0.9,0.3-0.9,1C273.3,113.9,273.7,114.2,274.2,114.2z"/>
	<path d="M278.2,113c0-0.6-0.3-0.8-0.8-0.8s-0.8,0.3-0.8,0.9v1.5h-0.5v-2.7h0.5v0.4c0.2-0.3,0.5-0.4,0.9-0.4c0.6,0,1.1,0.4,1.1,1.2
		v1.6h-0.5L278.2,113L278.2,113z"/>
</g>
<g class="st3">
	<path d="M261.7,120.6h0.5l0.9,1.8l0.9-1.8h0.5l-1.1,2.2v1.3h-0.5v-1.3L261.7,120.6z"/>
	<path d="M266,121.3c0.5,0,0.9,0.3,1,0.5v-0.5h0.5v2.7H267v-0.5c-0.2,0.3-0.5,0.6-1,0.6c-0.7,0-1.3-0.6-1.3-1.4
		C264.7,121.8,265.3,121.3,266,121.3z M266.1,121.7c-0.5,0-0.9,0.4-0.9,1s0.4,1,0.9,1s0.9-0.4,0.9-1
		C267.1,122.1,266.6,121.7,266.1,121.7z"/>
	<path d="M269.5,124.1c-0.8,0-1.4-0.6-1.4-1.4c0-0.9,0.6-1.4,1.4-1.4s1.4,0.5,1.4,1.4S270.3,124.1,269.5,124.1z M269.5,123.7
		c0.5,0,0.9-0.3,0.9-1s-0.5-1-0.9-1c-0.5,0-0.9,0.3-0.9,1C268.6,123.4,269,123.7,269.5,123.7z"/>
	<path d="M273.9,124.1h-0.5v-0.4c-0.2,0.3-0.5,0.4-0.9,0.4c-0.6,0-1.1-0.4-1.1-1.2v-1.6h0.5v1.5c0,0.6,0.3,0.8,0.8,0.8
		s0.8-0.3,0.8-0.9v-1.5h0.5L273.9,124.1L273.9,124.1z"/>
	<path d="M276.7,122.5c0-0.6-0.3-0.8-0.8-0.8s-0.8,0.3-0.8,0.9v1.5h-0.5v-2.7h0.5v0.4c0.2-0.3,0.5-0.4,0.9-0.4
		c0.6,0,1.1,0.4,1.1,1.2v1.6h-0.5L276.7,122.5L276.7,122.5z"/>
	<path d="M279,121.3c0.4,0,0.8,0.2,1,0.5v-1.5h0.5v3.7H280v-0.5c-0.2,0.3-0.5,0.6-1,0.6c-0.7,0-1.3-0.6-1.3-1.4
		C277.7,121.8,278.3,121.3,279,121.3z M279.1,121.7c-0.5,0-0.9,0.4-0.9,1s0.4,1,0.9,1s0.9-0.4,0.9-1S279.6,121.7,279.1,121.7z"/>
	<path d="M282.4,124.1c-0.8,0-1.4-0.6-1.4-1.4c0-0.9,0.6-1.4,1.4-1.4s1.3,0.6,1.3,1.3c0,0.1,0,0.2,0,0.3h-2.2c0,0.6,0.4,0.9,0.9,0.9
		c0.4,0,0.7-0.2,0.8-0.5h0.5C283.6,123.7,283.1,124.1,282.4,124.1z M281.6,122.5h1.7c0-0.5-0.4-0.8-0.9-0.8
		C282,121.7,281.6,122,281.6,122.5z M282.9,120.2v0.4l-1.1,0.6v-0.3L282.9,120.2z"/>
</g>
<g class="st4">
	<path d="M221.2,62.9v3.5h-0.5l-1.8-2.8v2.8h-0.5v-3.5h0.5l1.8,2.8v-2.8C220.7,62.9,221.2,62.9,221.2,62.9z"/>
	<path d="M221.9,62.9c0-0.2,0.1-0.3,0.3-0.3s0.3,0.1,0.3,0.3s-0.1,0.3-0.3,0.3S221.9,63.1,221.9,62.9z M221.9,63.7h0.5v2.7h-0.5
		V63.7z"/>
	<path d="M224.3,63.6c0.5,0,0.9,0.3,1,0.5v-0.5h0.5v2.8c0,0.8-0.5,1.3-1.3,1.3c-0.7,0-1.2-0.4-1.3-1h0.4c0.1,0.3,0.4,0.6,0.9,0.6
		s0.9-0.3,0.9-0.9v-0.6c-0.2,0.3-0.5,0.6-1,0.6c-0.7,0-1.3-0.6-1.3-1.4C223,64.2,223.6,63.6,224.3,63.6z M224.4,64
		c-0.5,0-0.9,0.4-0.9,1s0.4,1,0.9,1s0.9-0.4,0.9-1C225.3,64.4,224.9,64,224.4,64z"/>
	<path d="M227.7,66.4c-0.8,0-1.4-0.6-1.4-1.4c0-0.9,0.6-1.4,1.4-1.4c0.8,0,1.3,0.6,1.3,1.3c0,0.1,0,0.2,0,0.3h-2.2
		c0,0.6,0.4,0.9,0.9,0.9c0.4,0,0.7-0.2,0.8-0.5h0.5C228.9,66.1,228.4,66.4,227.7,66.4z M226.9,64.8h1.7c0-0.5-0.4-0.8-0.9-0.8
		C227.3,64,226.9,64.3,226.9,64.8z"/>
	<path d="M230.1,66.4h-0.5v-2.7h0.5v0.4c0.2-0.3,0.5-0.5,0.9-0.5v0.5h-0.1c-0.4,0-0.8,0.2-0.8,0.8L230.1,66.4L230.1,66.4z"/>
	<path d="M231.4,62.9c0-0.2,0.1-0.3,0.3-0.3s0.3,0.1,0.3,0.3s-0.1,0.3-0.3,0.3C231.6,63.2,231.4,63.1,231.4,62.9z M231.5,63.7h0.5
		v2.7h-0.5V63.7z"/>
	<path d="M233.9,63.6c0.5,0,0.9,0.3,1,0.5v-0.5h0.5v2.7h-0.5v-0.5c-0.2,0.3-0.5,0.6-1,0.6c-0.7,0-1.3-0.6-1.3-1.4
		C232.6,64.2,233.1,63.6,233.9,63.6z M234,64c-0.5,0-0.9,0.4-0.9,1s0.4,1,0.9,1s0.9-0.4,0.9-1S234.5,64,234,64z"/>
</g>
<g class="st4">
	<path d="M260.7,166h-0.5c-0.2-0.4-0.6-0.6-1.1-0.6c-0.7,0-1.3,0.5-1.3,1.4c0,0.8,0.6,1.4,1.3,1.4c0.7,0,1.2-0.4,1.2-1.1h-1.4v-0.4
		h1.9v0.4c-0.1,0.9-0.8,1.6-1.7,1.6c-1,0-1.8-0.7-1.8-1.8s0.8-1.8,1.8-1.8C259.8,165,260.4,165.4,260.7,166z"/>
	<path d="M262.5,165.7c0.5,0,0.9,0.3,1,0.5v-0.5h0.5v2.7h-0.5V168c-0.2,0.3-0.5,0.6-1,0.6c-0.7,0-1.3-0.6-1.3-1.4
		C261.2,166.3,261.8,165.7,262.5,165.7z M262.6,166.1c-0.5,0-0.9,0.4-0.9,1s0.4,1,0.9,1s0.9-0.4,0.9-1
		C263.6,166.5,263.1,166.1,262.6,166.1z"/>
	<path d="M266.3,165.7c0.7,0,1.3,0.6,1.3,1.4c0,0.9-0.6,1.4-1.3,1.4c-0.5,0-0.9-0.2-1-0.6v0.5h-0.5v-3.7h0.5v1.5
		C265.4,166,265.8,165.7,266.3,165.7z M266.2,166.1c-0.5,0-0.9,0.4-0.9,1s0.4,1,0.9,1s0.9-0.4,0.9-1S266.7,166.1,266.2,166.1z"/>
	<path d="M269.4,168.6c-0.8,0-1.4-0.6-1.4-1.4c0-0.9,0.6-1.4,1.4-1.4s1.4,0.5,1.4,1.4C270.8,168,270.1,168.6,269.4,168.6z
		 M269.4,168.2c0.5,0,0.9-0.3,0.9-1s-0.5-1-0.9-1c-0.5,0-0.9,0.3-0.9,1C268.5,167.8,268.9,168.2,269.4,168.2z"/>
	<path d="M273.4,167c0-0.6-0.3-0.8-0.8-0.8s-0.8,0.3-0.8,0.9v1.5h-0.5v-2.7h0.5v0.4c0.2-0.3,0.5-0.4,0.9-0.4c0.6,0,1.1,0.4,1.1,1.2
		v1.6h-0.5L273.4,167L273.4,167z"/>
</g>
<path d="M263.4,113c0-0.8-0.7-0.9-0.9-0.7c0.5-0.2,0.9-0.2,1.3,0.5v0.7L263.4,113z"/>
<path d="M276.6,122.6c0-0.8-0.7-1-0.9-0.9c0.5-0.2,0.9-0.1,1.3,0.6v0.7L276.6,122.6z"/>
<g class="st4">
	<path d="M304.3,102.2c0.8,0,1.4,0.4,1.6,1.1h-0.5c-0.2-0.4-0.6-0.7-1.1-0.7c-0.7,0-1.3,0.5-1.3,1.4s0.5,1.4,1.3,1.4
		c0.5,0,0.9-0.2,1.1-0.7h0.5c-0.3,0.7-0.9,1-1.6,1c-1,0-1.7-0.7-1.7-1.8S303.3,102.2,304.3,102.2z"/>
	<path d="M307.8,105.8c-0.8,0-1.4-0.6-1.4-1.4c0-0.9,0.6-1.4,1.4-1.4s1.3,0.6,1.3,1.3c0,0.1,0,0.2,0,0.3h-2.2c0,0.6,0.4,0.9,0.9,0.9
		c0.4,0,0.7-0.2,0.8-0.5h0.5C308.9,105.4,308.5,105.8,307.8,105.8z M306.9,104.2h1.7c0-0.5-0.4-0.8-0.9-0.8
		C307.3,103.4,307,103.7,306.9,104.2z"/>
	<path d="M311.7,104.2c0-0.6-0.3-0.8-0.8-0.8s-0.8,0.3-0.8,0.9v1.5h-0.5V103h0.5v0.4c0.2-0.3,0.5-0.4,0.9-0.4c0.6,0,1.1,0.4,1.1,1.2
		v1.6h-0.5L311.7,104.2L311.7,104.2z"/>
	<path d="M313,103.4h-0.4V103h0.4v-0.7h0.5v0.7h0.7v0.4h-0.7v1.6c0,0.3,0.1,0.4,0.4,0.4h0.3v0.4h-0.4c-0.5,0-0.8-0.2-0.8-0.8V103.4z
		"/>
	<path d="M315.2,105.8h-0.5V103h0.5v0.4c0.2-0.3,0.5-0.5,0.9-0.5v0.5H316c-0.4,0-0.8,0.2-0.8,0.8V105.8z"/>
	<path d="M317.7,103c0.5,0,0.9,0.3,1,0.5V103h0.5v2.7h-0.5v-0.5c-0.2,0.3-0.5,0.6-1,0.6c-0.7,0-1.3-0.6-1.3-1.4
		C316.4,103.5,317,103,317.7,103z M317.8,103.4c-0.5,0-0.9,0.4-0.9,1s0.4,1,0.9,1s0.9-0.4,0.9-1
		C318.7,103.7,318.3,103.4,317.8,103.4z"/>
	<path d="M320,102.1h0.5v3.7H320V102.1z"/>
	<path d="M324.6,105h-1.5l-0.3,0.8h-0.5l1.3-3.5h0.5l1.3,3.5h-0.5L324.6,105z M323.8,102.9l-0.6,1.8h1.3L323.8,102.9z"/>
	<path d="M326,103.4h-0.4V103h0.4v-0.2c0-0.6,0.3-0.9,1-0.9v0.4c-0.4,0-0.5,0.2-0.5,0.5v0.2h0.6v0.4h-0.6v2.4H326V103.4z"/>
	<path d="M328,105.8h-0.5V103h0.5v0.4c0.2-0.3,0.5-0.5,0.9-0.5v0.5h-0.1c-0.4,0-0.8,0.2-0.8,0.8V105.8z"/>
	<path d="M329.3,102.3c0-0.2,0.1-0.3,0.3-0.3c0.2,0,0.3,0.1,0.3,0.3c0,0.2-0.1,0.3-0.3,0.3C329.5,102.6,329.3,102.4,329.3,102.3z
		 M329.4,103h0.5v2.7h-0.5V103z"/>
	<path d="M331.8,103c0.7,0,1.1,0.4,1.3,0.9h-0.5c-0.1-0.3-0.4-0.5-0.8-0.5c-0.5,0-0.9,0.4-0.9,1c0,0.7,0.4,1,0.9,1
		c0.4,0,0.7-0.2,0.8-0.5h0.5c-0.1,0.5-0.6,0.9-1.3,0.9c-0.8,0-1.3-0.6-1.3-1.4C330.5,103.5,331,103,331.8,103z"/>
	<path d="M334.8,103c0.5,0,0.9,0.3,1,0.5V103h0.5v2.7h-0.5v-0.5c-0.2,0.3-0.5,0.6-1,0.6c-0.7,0-1.3-0.6-1.3-1.4
		C333.5,103.5,334.1,103,334.8,103z M334.9,103.4c-0.5,0-0.9,0.4-0.9,1s0.4,1,0.9,1s0.9-0.4,0.9-1
		C335.8,103.7,335.4,103.4,334.9,103.4z"/>
	<path d="M339.1,104.2c0-0.6-0.3-0.8-0.8-0.8s-0.8,0.3-0.8,0.9v1.5H337V103h0.5v0.4c0.2-0.3,0.5-0.4,0.9-0.4c0.6,0,1.1,0.4,1.1,1.2
		v1.6H339L339.1,104.2L339.1,104.2z"/>
	<path d="M303.9,108.3c0.8,0,1.2,0.5,1.2,1c0,0.4-0.2,0.9-0.8,1l0.9,1.5h-0.5l-0.8-1.4h-0.5v1.4h-0.5v-3.5H303.9z M303.9,108.6h-0.7
		v1.3h0.7c0.5,0,0.7-0.3,0.7-0.7C304.6,108.9,304.4,108.6,303.9,108.6z"/>
	<path d="M307,111.8c-0.8,0-1.4-0.6-1.4-1.4c0-0.9,0.6-1.4,1.4-1.4s1.3,0.6,1.3,1.3c0,0.1,0,0.2,0,0.3h-2.2c0,0.6,0.4,0.9,0.9,0.9
		c0.4,0,0.7-0.2,0.8-0.5h0.5C308.1,111.4,307.7,111.8,307,111.8z M306.1,110.2h1.7c0-0.5-0.4-0.8-0.9-0.8
		C306.5,109.4,306.1,109.7,306.1,110.2z"/>
	<path d="M310.4,109c0.7,0,1.3,0.6,1.3,1.4c0,0.9-0.6,1.4-1.3,1.4c-0.5,0-0.9-0.3-1-0.6v1.8h-0.5v-4h0.5v0.5
		C309.5,109.2,309.9,109,310.4,109z M310.3,109.4c-0.5,0-0.9,0.4-0.9,1s0.4,1,0.9,1s0.9-0.4,0.9-1
		C311.2,109.7,310.8,109.4,310.3,109.4z"/>
	<path d="M314.7,111.8h-0.5v-0.4c-0.2,0.3-0.5,0.4-0.9,0.4c-0.6,0-1.1-0.4-1.1-1.2V109h0.5v1.5c0,0.6,0.3,0.8,0.8,0.8
		s0.8-0.3,0.8-0.9V109h0.5L314.7,111.8L314.7,111.8z"/>
	<path d="M316.9,109c0.7,0,1.3,0.6,1.3,1.4c0,0.9-0.6,1.4-1.3,1.4c-0.5,0-0.9-0.2-1-0.6v0.5h-0.5V108h0.5v1.5
		C316.1,109.2,316.5,109,316.9,109z M316.9,109.4c-0.5,0-0.9,0.4-0.9,1s0.4,1,0.9,1s0.9-0.4,0.9-1
		C317.8,109.7,317.4,109.4,316.9,109.4z"/>
	<path d="M318.8,108.1h0.5v3.7h-0.5V108.1z"/>
	<path d="M320,108.3c0-0.2,0.1-0.3,0.3-0.3c0.2,0,0.3,0.1,0.3,0.3c0,0.2-0.1,0.3-0.3,0.3C320.1,108.6,320,108.4,320,108.3z
		 M320.1,109h0.5v2.7h-0.5V109z"/>
	<path d="M322.5,109c0.7,0,1.1,0.4,1.3,0.9h-0.5c-0.1-0.3-0.4-0.5-0.8-0.5c-0.5,0-0.9,0.4-0.9,1c0,0.7,0.4,1,0.9,1
		c0.4,0,0.7-0.2,0.8-0.5h0.5c-0.1,0.5-0.6,0.9-1.3,0.9c-0.8,0-1.3-0.6-1.3-1.4C321.1,109.5,321.7,109,322.5,109z"/>
</g>
</svg>
