<svg id="Layer_1" data-name="Layer 1" xmlns="http://www.w3.org/2000/svg" viewBox="0 0 311.42 311.42"><defs><style>.cls-1{fill:#fff;}</style></defs><path class="cls-1" d="M476.57,655.32c29.19,0,58.38,0,87.57-.05a52,52,0,0,0,11.49-1.12c19.57-4.56,32.48-21.1,32.51-41.63q.11-63.63,0-127.24c0-3.24.07-6.49,0-9.73a12,12,0,0,0-8-11.13c-8-2.95-15.92,3.11-15.93,12.37q0,67.17,0,134.35c0,13-7.17,20.22-20.07,20.23H388.63c-12.69,0-20-7.29-20-19.92V435.93c0-13,7.18-20.14,20.14-20.14H508.9c1.25,0,2.5,0,3.74,0a11.92,11.92,0,0,0,11.15-13.3c-.7-6.43-5.82-10.6-13.13-10.61q-61,0-122,0c-26,0-44,18-44,44q0,87.77,0,175.52c0,26,18,44,43.94,44Q432.6,655.35,476.57,655.32ZM615.05,367.88c-1.55,1.63-2.46,2.61-3.41,3.56L470.07,513c-6.63,6.63-7.4,13.64-2.09,19s12.31,4.61,18.95-2L628.52,388.39c1-1,2-1.95,3.6-3.45v5c0,16.59-.06,33.18,0,49.78a11.94,11.94,0,0,0,23.87.23q.13-42.1,0-84.21A11.65,11.65,0,0,0,644.34,344q-42.11-.15-84.21,0c-5.26,0-9,2.84-11,7.63-3.24,7.78,2.68,16.21,11.5,16.25C578.46,368,596.29,367.88,615.05,367.88Z" transform="translate(-344.67 -343.91)"/><path d="M476.57,655.32q-44,0-87.95,0c-26,0-43.93-18-43.94-44q0-87.77,0-175.52c0-26,18-43.95,44-44q61,0,122,0c7.31,0,12.43,4.18,13.13,10.61a11.92,11.92,0,0,1-11.15,13.3c-1.24.09-2.49,0-3.74,0H388.77c-13,0-20.14,7.17-20.14,20.14V611.45c0,12.63,7.31,19.91,20,19.92H564.14c12.9,0,20.07-7.23,20.07-20.23q0-67.17,0-134.35c0-9.26,7.88-15.32,15.93-12.37a12,12,0,0,1,8,11.13c.09,3.24,0,6.49,0,9.73q0,63.62,0,127.24c0,20.53-12.94,37.07-32.51,41.63a52,52,0,0,1-11.49,1.12C535,655.36,505.76,655.32,476.57,655.32Z" transform="translate(-344.67 -343.91)"/><path d="M615.05,367.88c-18.76,0-36.59.07-54.41,0-8.82,0-14.74-8.47-11.5-16.25,2-4.79,5.73-7.61,11-7.63q42.11-.11,84.21,0A11.65,11.65,0,0,1,656,355.71q.13,42.1,0,84.21a11.94,11.94,0,0,1-23.87-.23c-.09-16.6,0-33.19,0-49.78v-5c-1.57,1.5-2.6,2.45-3.6,3.45L486.93,530c-6.64,6.65-13.63,7.4-18.95,2s-4.54-12.35,2.09-19L611.64,371.44C612.59,370.49,613.5,369.51,615.05,367.88Z" transform="translate(-344.67 -343.91)"/></svg>