<svg id="graphic" xmlns="http://www.w3.org/2000/svg" viewBox="0 0 24 24"><path id="globe" d="M437.78,204.61a12,12,0,1,0,12,12A12,12,0,0,0,437.78,204.61Zm8.65,7h-3.22a19.71,19.71,0,0,0-2.82-4.65A10.08,10.08,0,0,1,446.43,211.61Zm-4.15,5a10.5,10.5,0,0,1-.47,3h-8.05a9.61,9.61,0,0,1,0-6h8.05A10.5,10.5,0,0,1,442.28,216.61Zm-7.72,5H441a19.82,19.82,0,0,1-3.23,4.59A19.78,19.78,0,0,1,434.56,221.61Zm0-10a19.57,19.57,0,0,1,3.22-4.59,19.61,19.61,0,0,1,3.23,4.59Zm.62-4.65a19.71,19.71,0,0,0-2.82,4.65h-3.22A10,10,0,0,1,435.18,207Zm-6.94,6.65h3.44a11.45,11.45,0,0,0,0,6h-3.44A10.06,10.06,0,0,1,428.24,213.61Zm.9,8h3.22a19.65,19.65,0,0,0,2.82,4.64A10,10,0,0,1,429.14,221.61Zm11.24,4.64a19.36,19.36,0,0,0,2.83-4.64h3.22a10,10,0,0,1-6,4.64Zm6.94-6.64h-3.44a11.45,11.45,0,0,0,0-6h3.44a10.06,10.06,0,0,1,0,6Z" transform="translate(-425.78 -204.61)"/></svg>